{
DisplayStrings = (
/afii10034,
/ruble
);
copyright = "Digitized data copyright (C) 2010-2011, Google Corporation.";
customParameters = (
{
name = license;
value = "Licensed under the Apache License, Version 2.0";
},
{
name = licenseURL;
value = "http://www.apache.org/licenses/LICENSE-2.0";
},
{
name = vendorID;
value = 1ASC;
},
{
name = glyphOrder;
value = (
    ".notdef",
    null,
    nonmarkingreturn,
    space,
    exclam,
    quotedbl,
    numbersign,
    dollar,
    percent,
    ampersand,
    quotesingle,
    parenleft,
    parenright,
    asterisk,
    plus,
    comma,
    hyphen,
    period,
    slash,
    zero,
    one,
    two,
    three,
    four,
    five,
    six,
    seven,
    eight,
    nine,
    colon,
    semicolon,
    less,
    equal,
    greater,
    question,
    at,
    A,
    B,
    C,
    D,
    E,
    F,
    G,
    H,
    "I.alt",
    J,
    K,
    L,
    M,
    N,
    O,
    P,
    Q,
    R,
    S,
    T,
    U,
    V,
    W,
    X,
    Y,
    Z,
    bracketleft,
    backslash,
    bracketright,
    asciicircum,
    underscore,
    grave,
    a,
    b,
    c,
    d,
    e,
    f,
    g,
    h,
    i,
    j,
    k,
    l,
    m,
    n,
    o,
    p,
    q,
    r,
    s,
    t,
    u,
    v,
    w,
    x,
    y,
    z,
    braceleft,
    bar,
    braceright,
    asciitilde,
    nonbreakingspace,
    exclamdown,
    cent,
    sterling,
    currency,
    yen,
    brokenbar,
    section,
    dieresis,
    copyright,
    ordfeminine,
    guillemotleft,
    logicalnot,
    uni00AD,
    registered,
    overscore,
    degree,
    plusminus,
    twosuperior,
    threesuperior,
    acute,
    mu,
    paragraph,
    periodcentered,
    cedilla,
    onesuperior,
    ordmasculine,
    guillemotright,
    onequarter,
    onehalf,
    threequarters,
    questiondown,
    Agrave,
    Aacute,
    Acircumflex,
    Atilde,
    Adieresis,
    Aring,
    AE,
    Ccedilla,
    Egrave,
    Eacute,
    Ecircumflex,
    Edieresis,
    "Igrave.alt",

glyphs = (
{
glyphname = .notdef;
layers = (
{
layerId = "76F3DBC4-34E6-4FAC-BFB3-3E99EC0C3BB0";
name = Light;
paths = (
{
closed = 1;
nodes = (
"193 1462 LINE",
"1034 1462 LINE",
"1034 0 LINE",
"193 0 LINE"
);
},
{
closed = 1;
nodes = (
"297 104 LINE",
"930 104 LINE",
"930 1358 LINE",
"297 1358 LINE"
);
}
);
width = 1229;
}
);
},
{
glyphname = exclam;
layers = (
{
layerId = "76F3DBC4-34E6-4FAC-BFB3-3E99EC0C3BB0";
name = Light;
paths = (
{
closed = 1;
nodes = (
"276 377 LINE",
"215 377 LINE",
"186 1462 LINE",
"305 1462 LINE"
);
},
{
closed = 1;
nodes = (
"164 143 OFFCURVE",
"191 176 OFFCURVE",
"244 176 CURVE SMOOTH",
"299 176 OFFCURVE",
"326 143 OFFCURVE",
"326 78 CURVE SMOOTH",
"326 13 OFFCURVE",
"299 -20 OFFCURVE",
"244 -20 CURVE SMOOTH",
"191 -20 OFFCURVE",
"164 13 OFFCURVE",
"164 78 CURVE SMOOTH"
);
}
);
width = 492;
}
);
unicode = 0021;
},
{
glyphname = quotedbl;
layers = (
{
layerId = "76F3DBC4-34E6-4FAC-BFB3-3E99EC0C3BB0";
name = Light;
paths = (
{
closed = 1;
nodes = (
"260 1462 LINE",
"227 934 LINE",
"166 934 LINE",
"133 1462 LINE"
);
},
{
closed = 1;
nodes = (
"590 1462 LINE",
"557 934 LINE",
"496 934 LINE",
"463 1462 LINE"
);
}
);
width = 723;
}
);
unicode = 0022;
},
{
glyphname = numbersign;
layers = (
{
layerId = "76F3DBC4-34E6-4FAC-BFB3-3E99EC0C3BB0";
name = Light;
paths = (
{
closed = 1;
nodes = (
"967 928 LINE",
"891 530 LINE",
"1194 530 LINE",
"1194 451 LINE",
"874 451 LINE",
"788 0 LINE",
"698 0 LINE",
"786 451 LINE",
"426 451 LINE",
"340 0 LINE",
"252 0 LINE",
"338 451 LINE",
"55 451 LINE",
"55 530 LINE",
"354 530 LINE",
"430 928 LINE",
"133 928 LINE",
"133 1008 LINE",
"444 1008 LINE",
"530 1462 LINE",
"621 1462 LINE",
"532 1008 LINE",
"897 1008 LINE",
"985 1462 LINE",
"1071 1462 LINE",
"983 1008 LINE",
"1268 1008 LINE",
"1268 928 LINE"
);
},
{
closed = 1;
nodes = (
"440 530 LINE",
"803 530 LINE",
"881 928 LINE",
"518 928 LINE"
);
}
);
width = 1323;
}
);
unicode = 0023;
},
{
glyphname = dollar;
layers = (
{
layerId = "76F3DBC4-34E6-4FAC-BFB3-3E99EC0C3BB0";
name = Light;
paths = (
{
closed = 1;
nodes = (
"991 263 OFFCURVE",
"851 146 OFFCURVE",
"618 117 CURVE",
"618 -119 LINE",
"537 -119 LINE",
"537 113 LINE",
"414 116 OFFCURVE",
"249 146 OFFCURVE",
"164 186 CURVE",
"164 289 LINE",
"264 241 OFFCURVE",
"418 203 OFFCURVE",
"537 203 CURVE",
"537 711 LINE",
"344 770 OFFCURVE",
"263 823 OFFCURVE",
"220 903 CURVE SMOOTH",
"199 943 OFFCURVE",
"188 992 OFFCURVE",
"188 1049 CURVE SMOOTH",
"188 1214 OFFCURVE",
"324 1335 OFFCURVE",
"537 1362 CURVE",
"537 1554 LINE",
"618 1554 LINE",
"618 1364 LINE",
"749 1358 OFFCURVE",
"866 1334 OFFCURVE",
"969 1292 CURVE",
"936 1202 LINE",
"842 1243 OFFCURVE",
"736 1267 OFFCURVE",
"618 1274 CURVE",
"618 788 LINE",
"902 700 OFFCURVE",
"991 608 OFFCURVE",
"991 440 CURVE SMOOTH"
);
},
{
closed = 1;
nodes = (
"881 557 OFFCURVE",
"801 627 OFFCURVE",
"618 680 CURVE",
"618 209 LINE",
"781 226 OFFCURVE",
"881 313 OFFCURVE",
"881 444 CURVE SMOOTH"
);
},
{
closed = 1;
nodes = (
"297 934 OFFCURVE",
"369 866 OFFCURVE",
"537 815 CURVE",
"537 1268 LINE",
"378 1247 OFFCURVE",
"297 1160 OFFCURVE",
"297 1049 CURVE SMOOTH"
);
}
);
width = 1169;
}
);
unicode = 0024;
},
{
glyphname = percent;
layers = (
{
layerId = "76F3DBC4-34E6-4FAC-BFB3-3E99EC0C3BB0";
name = Light;
paths = (
{
closed = 1;
nodes = (
"211 778 OFFCURVE",
"269 653 OFFCURVE",
"397 653 CURVE SMOOTH",
"526 653 OFFCURVE",
"590 777 OFFCURVE",
"590 1026 CURVE SMOOTH",
"590 1271 OFFCURVE",
"522 1395 OFFCURVE",
"397 1395 CURVE SMOOTH",
"269 1395 OFFCURVE",
"211 1271 OFFCURVE",
"211 1026 CURVE SMOOTH"
);
},
{
closed = 1;
nodes = (
"688 725 OFFCURVE",
"585 565 OFFCURVE",
"397 565 CURVE SMOOTH",
"220 565 OFFCURVE",
"113 733 OFFCURVE",
"113 1026 CURVE SMOOTH",
"113 1323 OFFCURVE",
"210 1483 OFFCURVE",
"397 1483 CURVE SMOOTH",
"582 1483 OFFCURVE",
"688 1314 OFFCURVE",
"688 1026 CURVE SMOOTH"
);
},
{
closed = 1;
nodes = (
"1063 191 OFFCURVE",
"1121 68 OFFCURVE",
"1249 68 CURVE SMOOTH",
"1378 68 OFFCURVE",
"1442 191 OFFCURVE",
"1442 438 CURVE SMOOTH",
"1442 684 OFFCURVE",
"1378 807 OFFCURVE",
"1249 807 CURVE SMOOTH",
"1121 807 OFFCURVE",
"1063 686 OFFCURVE",
"1063 438 CURVE SMOOTH"
);
},
{
closed = 1;
nodes = (
"1540 137 OFFCURVE",
"1439 -23 OFFCURVE",
"1251 -23 CURVE SMOOTH",
"1070 -23 OFFCURVE",
"965 147 OFFCURVE",
"965 438 CURVE SMOOTH",
"965 738 OFFCURVE",
"1066 895 OFFCURVE",
"1251 895 CURVE SMOOTH",
"1434 895 OFFCURVE",
"1540 727 OFFCURVE",
"1540 438 CURVE SMOOTH"
);
},
{
closed = 1;
nodes = (
"1280 1462 LINE",
"469 0 LINE",
"373 0 LINE",
"1184 1462 LINE"
);
}
);
width = 1653;
}
);
unicode = 0025;
},
{
glyphname = ampersand;
layers = (
{
layerId = "76F3DBC4-34E6-4FAC-BFB3-3E99EC0C3BB0";
name = Light;
paths = (
{
closed = 1;
nodes = (
"123 555 OFFCURVE",
"203 667 OFFCURVE",
"471 811 CURVE",
"396 893 LINE SMOOTH",
"308 988 OFFCURVE",
"266 1075 OFFCURVE",
"266 1174 CURVE SMOOTH",
"266 1365 OFFCURVE",
"403 1485 OFFCURVE",
"618 1485 CURVE SMOOTH",
"825 1485 OFFCURVE",
"954 1371 OFFCURVE",
"954 1180 CURVE SMOOTH",
"954 1040 OFFCURVE",
"875 936 OFFCURVE",
"631 793 CURVE",
"1083 336 LINE",
"1164 432 OFFCURVE",
"1219 539 OFFCURVE",
"1262 694 CURVE",
"1358 694 LINE",
"1316 530 OFFCURVE",
"1246 388 OFFCURVE",
"1149 268 CURVE",
"1415 0 LINE",
"1280 0 LINE",
"1087 197 LINE",
"964 77 OFFCURVE",
"880 31 OFFCURVE",
"766 2 CURVE SMOOTH",
"709 -13 OFFCURVE",
"644 -20 OFFCURVE",
"571 -20 CURVE SMOOTH",
"292 -20 OFFCURVE",
"123 124 OFFCURVE",
"123 371 CURVE SMOOTH"
);
},
{
closed = 1;
nodes = (
"749 70 OFFCURVE",
"885 123 OFFCURVE",
"1022 260 CURVE",
"539 745 LINE",
"358 649 OFFCURVE",
"291 592 OFFCURVE",
"255 513 CURVE SMOOTH",
"236 474 OFFCURVE",
"227 428 OFFCURVE",
"227 375 CURVE SMOOTH",
"227 184 OFFCURVE",
"358 70 OFFCURVE",
"578 70 CURVE SMOOTH"
);
},
{
closed = 1;
nodes = (
"373 1071 OFFCURVE",
"416 999 OFFCURVE",
"565 856 CURVE",
"777 969 OFFCURVE",
"848 1057 OFFCURVE",
"848 1184 CURVE SMOOTH",
"848 1309 OFFCURVE",
"759 1395 OFFCURVE",
"618 1395 CURVE SMOOTH",
"466 1395 OFFCURVE",
"373 1313 OFFCURVE",
"373 1176 CURVE SMOOTH"
);
}
);
width = 1460;
}
);
unicode = 0026;
},
{
glyphname = quotesingle;
layers = (
{
layerId = "76F3DBC4-34E6-4FAC-BFB3-3E99EC0C3BB0";
name = Light;
paths = (
{
closed = 1;
nodes = (
"260 1462 LINE",
"227 934 LINE",
"166 934 LINE",
"133 1462 LINE"
);
}
);
width = 393;
}
);
unicode = 0027;
},
{
glyphname = parenleft;
layers = (
{
layerId = "76F3DBC4-34E6-4FAC-BFB3-3E99EC0C3BB0";
name = Light;
paths = (
{
closed = 1;
nodes = (
"82 914 OFFCURVE",
"188 1230 OFFCURVE",
"383 1462 CURVE",
"496 1462 LINE",
"299 1219 OFFCURVE",
"190 904 OFFCURVE",
"190 563 CURVE SMOOTH",
"190 241 OFFCURVE",
"291 -55 OFFCURVE",
"494 -324 CURVE",
"383 -324 LINE",
"187 -97 OFFCURVE",
"82 213 OFFCURVE",
"82 561 CURVE SMOOTH"
);
}
);
width = 557;
}
);
unicode = 0028;
},
{
glyphname = parenright;
layers = (
{
layerId = "76F3DBC4-34E6-4FAC-BFB3-3E99EC0C3BB0";
name = Light;
paths = (
{
closed = 1;
nodes = (
"475 210 OFFCURVE",
"369 -100 OFFCURVE",
"174 -324 CURVE",
"63 -324 LINE",
"266 -55 OFFCURVE",
"367 241 OFFCURVE",
"367 563 CURVE SMOOTH",
"367 906 OFFCURVE",
"258 1221 OFFCURVE",
"61 1462 CURVE",
"174 1462 LINE",
"370 1229 OFFCURVE",
"475 912 OFFCURVE",
"475 561 CURVE SMOOTH"
);
}
);
width = 557;
}
);
unicode = 0029;
},
{
glyphname = asterisk;
layers = (
{
layerId = "76F3DBC4-34E6-4FAC-BFB3-3E99EC0C3BB0";
name = Light;
paths = (
{
closed = 1;
nodes = (
"631 1556 LINE",
"594 1151 LINE",
"999 1255 LINE",
"1020 1124 LINE",
"625 1085 LINE",
"872 745 LINE",
"748 674 LINE",
"557 1053 LINE",
"377 674 LINE",
"252 745 LINE",
"494 1085 LINE",
"104 1124 LINE",
"123 1255 LINE",
"524 1151 LINE",
"485 1556 LINE"
);
}
);
width = 1128;
}
);
unicode = 002A;
},
{
glyphname = plus;
layers = (
{
layerId = "76F3DBC4-34E6-4FAC-BFB3-3E99EC0C3BB0";
name = Light;
paths = (
{
closed = 1;
nodes = (
"625 764 LINE",
"1059 764 LINE",
"1059 682 LINE",
"625 682 LINE",
"625 250 LINE",
"543 250 LINE",
"543 682 LINE",
"111 682 LINE",
"111 764 LINE",
"543 764 LINE",
"543 1198 LINE",
"625 1198 LINE"
);
}
);
width = 1169;
}
);
unicode = 002B;
},
{
glyphname = comma;
layers = (
{
layerId = "76F3DBC4-34E6-4FAC-BFB3-3E99EC0C3BB0";
name = Light;
paths = (
{
closed = 1;
nodes = (
"295 238 LINE",
"307 217 LINE",
"257 40 OFFCURVE",
"199 -120 OFFCURVE",
"133 -264 CURVE",
"68 -264 LINE",
"119 -81 OFFCURVE",
"156 87 OFFCURVE",
"178 238 CURVE"
);
}
);
width = 440;
}
);
unicode = 002C;
},
{
glyphname = hyphen;
layers = (
{
layerId = "76F3DBC4-34E6-4FAC-BFB3-3E99EC0C3BB0";
name = Light;
paths = (
{
closed = 1;
nodes = (
"92 512 LINE",
"92 594 LINE",
"567 594 LINE",
"567 512 LINE"
);
}
);
width = 659;
}
);
unicode = 002D;
},
{
glyphname = period;
layers = (
{
layerId = "76F3DBC4-34E6-4FAC-BFB3-3E99EC0C3BB0";
name = Light;
paths = (
{
closed = 1;
nodes = (
"162 143 OFFCURVE",
"189 176 OFFCURVE",
"242 176 CURVE SMOOTH",
"297 176 OFFCURVE",
"324 143 OFFCURVE",
"324 78 CURVE SMOOTH",
"324 13 OFFCURVE",
"297 -20 OFFCURVE",
"242 -20 CURVE SMOOTH",
"189 -20 OFFCURVE",
"162 13 OFFCURVE",
"162 78 CURVE SMOOTH"
);
}
);
width = 487;
}
);
unicode = 002E;
},
{
glyphname = slash;
layers = (
{
layerId = "76F3DBC4-34E6-4FAC-BFB3-3E99EC0C3BB0";
name = Light;
paths = (
{
closed = 1;
nodes = (
"674 1462 LINE",
"129 0 LINE",
"25 0 LINE",
"569 1462 LINE"
);
}
);
width = 698;
}
);
unicode = 002F;
},
{
glyphname = zero;
layers = (
{
layerId = "76F3DBC4-34E6-4FAC-BFB3-3E99EC0C3BB0";
name = Light;
paths = (
{
closed = 1;
nodes = (
"1055 222 OFFCURVE",
"899 -20 OFFCURVE",
"582 -20 CURVE SMOOTH",
"277 -20 OFFCURVE",
"115 236 OFFCURVE",
"115 735 CURVE SMOOTH",
"115 1244 OFFCURVE",
"267 1485 OFFCURVE",
"582 1485 CURVE SMOOTH",
"890 1485 OFFCURVE",
"1055 1227 OFFCURVE",
"1055 735 CURVE SMOOTH"
);
},
{
closed = 1;
nodes = (
"223 282 OFFCURVE",
"341 70 OFFCURVE",
"582 70 CURVE SMOOTH",
"834 70 OFFCURVE",
"944 296 OFFCURVE",
"944 735 CURVE SMOOTH",
"944 1167 OFFCURVE",
"834 1395 OFFCURVE",
"582 1395 CURVE SMOOTH",
"330 1395 OFFCURVE",
"223 1167 OFFCURVE",
"223 735 CURVE SMOOTH"
);
}
);
width = 1169;
}
);
unicode = 0030;
},
{
glyphname = one;
layers = (
{
layerId = "76F3DBC4-34E6-4FAC-BFB3-3E99EC0C3BB0";
name = Light;
paths = (
{
closed = 1;
nodes = (
"682 0 LINE",
"584 0 LINE",
"584 1065 LINE SMOOTH",
"584 1162 OFFCURVE",
"588 1262 OFFCURVE",
"596 1366 CURVE",
"586 1356 OFFCURVE",
"576 1346 OFFCURVE",
"565 1337 CURVE SMOOTH",
"554 1328 OFFCURVE",
"451 1247 OFFCURVE",
"256 1094 CURVE",
"199 1165 LINE",
"596 1462 LINE",
"682 1462 LINE"
);
}
);
width = 1169;
}
);
unicode = 0031;
},
{
glyphname = two;
layers = (
{
layerId = "76F3DBC4-34E6-4FAC-BFB3-3E99EC0C3BB0";
name = Light;
paths = (
{
closed = 1;
nodes = (
"1028 0 LINE",
"113 0 LINE",
"113 88 LINE",
"502 494 LINE SMOOTH",
"611 607 OFFCURVE",
"688 694 OFFCURVE",
"732 754 CURVE SMOOTH",
"820 874 OFFCURVE",
"860 978 OFFCURVE",
"860 1098 CURVE SMOOTH",
"860 1273 OFFCURVE",
"734 1393 OFFCURVE",
"551 1393 CURVE SMOOTH",
"429 1393 OFFCURVE",
"312 1349 OFFCURVE",
"201 1260 CURVE",
"147 1329 LINE",
"269 1432 OFFCURVE",
"404 1483 OFFCURVE",
"553 1483 CURVE SMOOTH",
"808 1483 OFFCURVE",
"963 1339 OFFCURVE",
"963 1100 CURVE SMOOTH",
"963 907 OFFCURVE",
"881 750 OFFCURVE",
"621 485 CURVE SMOOTH",
"246 100 LINE",
"246 96 LINE",
"1028 96 LINE"
);
}
);
width = 1169;
}
);
unicode = 0032;
},
{
glyphname = three;
layers = (
{
layerId = "76F3DBC4-34E6-4FAC-BFB3-3E99EC0C3BB0";
name = Light;
paths = (
{
closed = 1;
nodes = (
"979 937 OFFCURVE",
"856 805 OFFCURVE",
"664 770 CURVE",
"664 764 LINE",
"899 735 OFFCURVE",
"1024 613 OFFCURVE",
"1024 410 CURVE SMOOTH",
"1024 137 OFFCURVE",
"832 -20 OFFCURVE",
"483 -20 CURVE SMOOTH",
"334 -20 OFFCURVE",
"205 8 OFFCURVE",
"94 63 CURVE",
"94 162 LINE",
"206 103 OFFCURVE",
"356 68 OFFCURVE",
"479 68 CURVE SMOOTH",
"774 68 OFFCURVE",
"922 193 OFFCURVE",
"922 410 CURVE SMOOTH",
"922 603 OFFCURVE",
"768 711 OFFCURVE",
"475 711 CURVE SMOOTH",
"317 711 LINE",
"317 807 LINE",
"477 807 LINE SMOOTH",
"720 807 OFFCURVE",
"872 931 OFFCURVE",
"872 1128 CURVE SMOOTH",
"872 1291 OFFCURVE",
"746 1397 OFFCURVE",
"559 1397 CURVE SMOOTH",
"414 1397 OFFCURVE",
"307 1361 OFFCURVE",
"158 1262 CURVE",
"109 1329 LINE",
"222 1424 OFFCURVE",
"393 1483 OFFCURVE",
"557 1483 CURVE SMOOTH",
"826 1483 OFFCURVE",
"979 1350 OFFCURVE",
"979 1118 CURVE SMOOTH"
);
}
);
width = 1169;
}
);
unicode = 0033;
},
{
glyphname = four;
layers = (
{
layerId = "76F3DBC4-34E6-4FAC-BFB3-3E99EC0C3BB0";
name = Light;
paths = (
{
closed = 1;
nodes = (
"1141 373 LINE",
"889 373 LINE",
"889 0 LINE",
"795 0 LINE",
"795 373 LINE",
"43 373 LINE",
"43 440 LINE",
"768 1470 LINE",
"889 1470 LINE",
"889 459 LINE",
"1141 459 LINE"
);
},
{
closed = 1;
nodes = (
"795 459 LINE",
"795 877 LINE SMOOTH",
"795 1078 OFFCURVE",
"800 1247 OFFCURVE",
"809 1384 CURVE",
"801 1384 LINE",
"788 1359 OFFCURVE",
"747 1297 OFFCURVE",
"678 1196 CURVE SMOOTH",
"162 459 LINE"
);
}
);
width = 1169;
}
);
unicode = 0034;
},
{
glyphname = five;
layers = (
{
layerId = "76F3DBC4-34E6-4FAC-BFB3-3E99EC0C3BB0";
name = Light;
paths = (
{
closed = 1;
nodes = (
"849 879 OFFCURVE",
"1040 719 OFFCURVE",
"1040 455 CURVE SMOOTH",
"1040 155 OFFCURVE",
"842 -20 OFFCURVE",
"514 -20 CURVE SMOOTH",
"369 -20 OFFCURVE",
"231 10 OFFCURVE",
"143 63 CURVE",
"143 166 LINE",
"287 93 OFFCURVE",
"387 68 OFFCURVE",
"514 68 CURVE SMOOTH",
"770 68 OFFCURVE",
"938 213 OFFCURVE",
"938 444 CURVE SMOOTH",
"938 661 OFFCURVE",
"777 793 OFFCURVE",
"518 793 CURVE SMOOTH",
"431 793 OFFCURVE",
"341 780 OFFCURVE",
"246 754 CURVE",
"186 793 LINE",
"244 1462 LINE",
"948 1462 LINE",
"948 1366 LINE",
"338 1366 LINE",
"293 850 LINE",
"397 869 OFFCURVE",
"478 879 OFFCURVE",
"537 879 CURVE SMOOTH"
);
}
);
width = 1169;
}
);
unicode = 0035;
},
{
glyphname = six;
layers = (
{
layerId = "76F3DBC4-34E6-4FAC-BFB3-3E99EC0C3BB0";
name = Light;
paths = (
{
closed = 1;
nodes = (
"131 1003 OFFCURVE",
"239 1266 OFFCURVE",
"429 1391 CURVE SMOOTH",
"524 1454 OFFCURVE",
"638 1485 OFFCURVE",
"772 1485 CURVE SMOOTH",
"835 1485 OFFCURVE",
"892 1477 OFFCURVE",
"944 1462 CURVE",
"944 1374 LINE",
"895 1392 OFFCURVE",
"837 1401 OFFCURVE",
"768 1401 CURVE SMOOTH",
"439 1401 OFFCURVE",
"252 1158 OFFCURVE",
"229 705 CURVE",
"242 705 LINE",
"343 836 OFFCURVE",
"478 903 OFFCURVE",
"623 903 CURVE SMOOTH",
"896 903 OFFCURVE",
"1059 738 OFFCURVE",
"1059 463 CURVE SMOOTH",
"1059 164 OFFCURVE",
"885 -20 OFFCURVE",
"610 -20 CURVE SMOOTH",
"314 -20 OFFCURVE",
"131 218 OFFCURVE",
"131 623 CURVE SMOOTH"
);
},
{
closed = 1;
nodes = (
"829 68 OFFCURVE",
"956 210 OFFCURVE",
"956 465 CURVE SMOOTH",
"956 689 OFFCURVE",
"828 821 OFFCURVE",
"621 821 CURVE SMOOTH",
"485 821 OFFCURVE",
"361 756 OFFCURVE",
"292 657 CURVE SMOOTH",
"257 607 OFFCURVE",
"240 556 OFFCURVE",
"240 504 CURVE SMOOTH",
"240 356 OFFCURVE",
"311 208 OFFCURVE",
"424 128 CURVE SMOOTH",
"480 88 OFFCURVE",
"542 68 OFFCURVE",
"610 68 CURVE SMOOTH"
);
}
);
width = 1169;
}
);
unicode = 0036;
},
{
glyphname = seven;
layers = (
{
layerId = "76F3DBC4-34E6-4FAC-BFB3-3E99EC0C3BB0";
name = Light;
paths = (
{
closed = 1;
nodes = (
"334 0 LINE",
"936 1366 LINE",
"109 1366 LINE",
"109 1462 LINE",
"1055 1462 LINE",
"1055 1389 LINE",
"451 0 LINE"
);
}
);
width = 1169;
}
);
unicode = 0037;
},
{
glyphname = eight;
layers = (
{
layerId = "76F3DBC4-34E6-4FAC-BFB3-3E99EC0C3BB0";
name = Light;
paths = (
{
closed = 1;
nodes = (
"830 1487 OFFCURVE",
"995 1351 OFFCURVE",
"995 1135 CURVE SMOOTH",
"995 986 OFFCURVE",
"907 875 OFFCURVE",
"696 778 CURVE",
"952 673 OFFCURVE",
"1044 556 OFFCURVE",
"1044 377 CURVE SMOOTH",
"1044 136 OFFCURVE",
"862 -20 OFFCURVE",
"578 -20 CURVE SMOOTH",
"283 -20 OFFCURVE",
"121 118 OFFCURVE",
"121 375 CURVE SMOOTH",
"121 550 OFFCURVE",
"229 681 OFFCURVE",
"461 774 CURVE",
"246 875 OFFCURVE",
"168 980 OFFCURVE",
"168 1137 CURVE SMOOTH",
"168 1277 OFFCURVE",
"242 1387 OFFCURVE",
"370 1444 CURVE SMOOTH",
"433 1473 OFFCURVE",
"504 1487 OFFCURVE",
"582 1487 CURVE SMOOTH"
);
},
{
closed = 1;
nodes = (
"223 176 OFFCURVE",
"354 70 OFFCURVE",
"578 70 CURVE SMOOTH",
"797 70 OFFCURVE",
"942 185 OFFCURVE",
"942 369 CURVE SMOOTH",
"942 534 OFFCURVE",
"860 620 OFFCURVE",
"561 733 CURVE",
"316 638 OFFCURVE",
"223 533 OFFCURVE",
"223 360 CURVE SMOOTH"
);
},
{
closed = 1;
nodes = (
"392 1397 OFFCURVE",
"268 1298 OFFCURVE",
"268 1137 CURVE SMOOTH",
"268 1044 OFFCURVE",
"311 975 OFFCURVE",
"391 917 CURVE SMOOTH",
"430 888 OFFCURVE",
"497 854 OFFCURVE",
"590 815 CURVE",
"807 899 OFFCURVE",
"895 994 OFFCURVE",
"895 1137 CURVE SMOOTH",
"895 1297 OFFCURVE",
"775 1397 OFFCURVE",
"580 1397 CURVE SMOOTH"
);
}
);
width = 1169;
}
);
unicode = 0038;
},
{
glyphname = nine;
layers = (
{
layerId = "76F3DBC4-34E6-4FAC-BFB3-3E99EC0C3BB0";
name = Light;
paths = (
{
closed = 1;
nodes = (
"1036 458 OFFCURVE",
"933 197 OFFCURVE",
"741 73 CURVE SMOOTH",
"644 11 OFFCURVE",
"528 -20 OFFCURVE",
"391 -20 CURVE SMOOTH",
"322 -20 OFFCURVE",
"258 -11 OFFCURVE",
"199 6 CURVE",
"199 92 LINE",
"256 73 OFFCURVE",
"352 63 OFFCURVE",
"395 63 CURVE SMOOTH",
"724 63 OFFCURVE",
"917 306 OFFCURVE",
"938 762 CURVE",
"926 762 LINE",
"829 634 OFFCURVE",
"688 563 OFFCURVE",
"541 563 CURVE SMOOTH",
"270 563 OFFCURVE",
"111 718 OFFCURVE",
"111 993 CURVE SMOOTH",
"111 1286 OFFCURVE",
"294 1485 OFFCURVE",
"559 1485 CURVE SMOOTH",
"751 1485 OFFCURVE",
"900 1383 OFFCURVE",
"978 1188 CURVE SMOOTH",
"1017 1091 OFFCURVE",
"1036 975 OFFCURVE",
"1036 842 CURVE SMOOTH"
);
},
{
closed = 1;
nodes = (
"348 1397 OFFCURVE",
"213 1246 OFFCURVE",
"213 999 CURVE SMOOTH",
"213 767 OFFCURVE",
"333 645 OFFCURVE",
"549 645 CURVE SMOOTH",
"684 645 OFFCURVE",
"808 710 OFFCURVE",
"877 810 CURVE SMOOTH",
"911 859 OFFCURVE",
"928 910 OFFCURVE",
"928 961 CURVE SMOOTH",
"928 1117 OFFCURVE",
"863 1263 OFFCURVE",
"752 1340 CURVE SMOOTH",
"696 1378 OFFCURVE",
"632 1397 OFFCURVE",
"559 1397 CURVE SMOOTH"
);
}
);
width = 1169;
}
);
unicode = 0039;
},
{
glyphname = colon;
layers = (
{
layerId = "76F3DBC4-34E6-4FAC-BFB3-3E99EC0C3BB0";
name = Light;
paths = (
{
closed = 1;
nodes = (
"162 143 OFFCURVE",
"189 176 OFFCURVE",
"242 176 CURVE SMOOTH",
"297 176 OFFCURVE",
"324 143 OFFCURVE",
"324 78 CURVE SMOOTH",
"324 13 OFFCURVE",
"297 -20 OFFCURVE",
"242 -20 CURVE SMOOTH",
"189 -20 OFFCURVE",
"162 13 OFFCURVE",
"162 78 CURVE SMOOTH"
);
},
{
closed = 1;
nodes = (
"162 1036 OFFCURVE",
"189 1069 OFFCURVE",
"242 1069 CURVE SMOOTH",
"297 1069 OFFCURVE",
"324 1036 OFFCURVE",
"324 971 CURVE SMOOTH",
"324 900 OFFCURVE",
"289 872 OFFCURVE",
"242 872 CURVE SMOOTH",
"197 872 OFFCURVE",
"162 900 OFFCURVE",
"162 971 CURVE SMOOTH"
);
}
);
width = 487;
}
);
unicode = 003A;
},
{
glyphname = semicolon;
layers = (
{
layerId = "76F3DBC4-34E6-4FAC-BFB3-3E99EC0C3BB0";
name = Light;
paths = (
{
closed = 1;
nodes = (
"303 238 LINE",
"315 217 LINE",
"265 40 OFFCURVE",
"207 -120 OFFCURVE",
"141 -264 CURVE",
"76 -264 LINE",
"115 -135 OFFCURVE",
"166 94 OFFCURVE",
"186 238 CURVE"
);
},
{
closed = 1;
nodes = (
"162 1036 OFFCURVE",
"189 1069 OFFCURVE",
"242 1069 CURVE SMOOTH",
"297 1069 OFFCURVE",
"324 1036 OFFCURVE",
"324 971 CURVE SMOOTH",
"324 900 OFFCURVE",
"289 872 OFFCURVE",
"242 872 CURVE SMOOTH",
"197 872 OFFCURVE",
"162 900 OFFCURVE",
"162 971 CURVE SMOOTH"
);
}
);
width = 487;
}
);
unicode = 003B;
},
{
glyphname = less;
layers = (
{
layerId = "76F3DBC4-34E6-4FAC-BFB3-3E99EC0C3BB0";
name = Light;
paths = (
{
closed = 1;
nodes = (
"1059 266 LINE",
"111 682 LINE",
"111 743 LINE",
"1059 1217 LINE",
"1059 1122 LINE",
"236 717 LINE",
"1059 362 LINE"
);
}
);
width = 1169;
}
);
unicode = 003C;
},
{
glyphname = equal;
layers = (
{
layerId = "76F3DBC4-34E6-4FAC-BFB3-3E99EC0C3BB0";
name = Light;
paths = (
{
closed = 1;
nodes = (
"111 885 LINE",
"111 967 LINE",
"1059 967 LINE",
"1059 885 LINE"
);
},
{
closed = 1;
nodes = (
"111 477 LINE",
"111 559 LINE",
"1059 559 LINE",
"1059 477 LINE"
);
}
);
width = 1169;
}
);
unicode = 003D;
},
{
glyphname = greater;
layers = (
{
layerId = "76F3DBC4-34E6-4FAC-BFB3-3E99EC0C3BB0";
name = Light;
paths = (
{
closed = 1;
nodes = (
"111 362 LINE",
"934 717 LINE",
"111 1122 LINE",
"111 1217 LINE",
"1059 743 LINE",
"1059 682 LINE",
"111 266 LINE"
);
}
);
width = 1169;
}
);
unicode = 003E;
},
{
glyphname = question;
layers = (
{
layerId = "76F3DBC4-34E6-4FAC-BFB3-3E99EC0C3BB0";
name = Light;
paths = (
{
closed = 1;
nodes = (
"293 377 LINE",
"293 414 LINE SMOOTH",
"293 578 OFFCURVE",
"334 663 OFFCURVE",
"469 782 CURVE SMOOTH",
"560 861 LINE SMOOTH",
"656 942 OFFCURVE",
"694 1016 OFFCURVE",
"694 1120 CURVE SMOOTH",
"694 1289 OFFCURVE",
"572 1397 OFFCURVE",
"391 1397 CURVE SMOOTH",
"286 1397 OFFCURVE",
"201 1375 OFFCURVE",
"94 1323 CURVE",
"57 1403 LINE",
"204 1467 OFFCURVE",
"290 1483 OFFCURVE",
"395 1483 CURVE SMOOTH",
"639 1483 OFFCURVE",
"788 1343 OFFCURVE",
"788 1114 CURVE SMOOTH",
"788 1023 OFFCURVE",
"763 959 OFFCURVE",
"720 901 CURVE SMOOTH",
"676 843 OFFCURVE",
"614 792 OFFCURVE",
"539 729 CURVE SMOOTH",
"454 657 OFFCURVE",
"411 602 OFFCURVE",
"391 537 CURVE SMOOTH",
"380 504 OFFCURVE",
"375 456 OFFCURVE",
"375 391 CURVE SMOOTH",
"375 377 LINE"
);
},
{
closed = 1;
nodes = (
"260 143 OFFCURVE",
"287 176 OFFCURVE",
"340 176 CURVE SMOOTH",
"395 176 OFFCURVE",
"422 143 OFFCURVE",
"422 78 CURVE SMOOTH",
"422 13 OFFCURVE",
"395 -20 OFFCURVE",
"340 -20 CURVE SMOOTH",
"287 -20 OFFCURVE",
"260 13 OFFCURVE",
"260 78 CURVE SMOOTH"
);
}
);
width = 862;
}
);
unicode = 003F;
},
{
glyphname = at;
layers = (
{
layerId = "76F3DBC4-34E6-4FAC-BFB3-3E99EC0C3BB0";
name = Light;
paths = (
{
closed = 1;
nodes = (
"1702 421 OFFCURVE",
"1573 221 OFFCURVE",
"1366 221 CURVE SMOOTH",
"1247 221 OFFCURVE",
"1169 298 OFFCURVE",
"1157 422 CURVE",
"1153 422 LINE",
"1096 289 OFFCURVE",
"984 221 OFFCURVE",
"840 221 CURVE SMOOTH",
"643 221 OFFCURVE",
"530 356 OFFCURVE",
"530 588 CURVE SMOOTH",
"530 857 OFFCURVE",
"706 1047 OFFCURVE",
"965 1047 CURVE SMOOTH",
"1057 1047 OFFCURVE",
"1152 1033 OFFCURVE",
"1251 1006 CURVE",
"1229 542 LINE",
"1229 512 LINE SMOOTH",
"1229 373 OFFCURVE",
"1272 303 OFFCURVE",
"1380 303 CURVE SMOOTH",
"1517 303 OFFCURVE",
"1614 474 OFFCURVE",
"1614 723 CURVE SMOOTH",
"1614 982 OFFCURVE",
"1505 1183 OFFCURVE",
"1310 1288 CURVE SMOOTH",
"1212 1340 OFFCURVE",
"1100 1366 OFFCURVE",
"975 1366 CURVE SMOOTH",
"668 1366 OFFCURVE",
"426 1228 OFFCURVE",
"300 985 CURVE SMOOTH",
"237 864 OFFCURVE",
"205 724 OFFCURVE",
"205 567 CURVE SMOOTH",
"205 138 OFFCURVE",
"437 -106 OFFCURVE",
"846 -106 CURVE SMOOTH",
"970 -106 OFFCURVE",
"1085 -87 OFFCURVE",
"1266 -18 CURVE",
"1266 -117 LINE",
"1131 -170 OFFCURVE",
"993 -197 OFFCURVE",
"852 -197 CURVE SMOOTH",
"387 -197 OFFCURVE",
"113 85 OFFCURVE",
"113 561 CURVE SMOOTH",
"113 902 OFFCURVE",
"264 1188 OFFCURVE",
"529 1339 CURVE SMOOTH",
"661 1414 OFFCURVE",
"810 1452 OFFCURVE",
"977 1452 CURVE SMOOTH",
"1264 1452 OFFCURVE",
"1493 1329 OFFCURVE",
"1613 1109 CURVE SMOOTH",
"1672 998 OFFCURVE",
"1702 870 OFFCURVE",
"1702 725 CURVE SMOOTH"
);
},
{
closed = 1;
nodes = (
"633 399 OFFCURVE",
"703 303 OFFCURVE",
"862 303 CURVE SMOOTH",
"1032 303 OFFCURVE",
"1123 418 OFFCURVE",
"1135 649 CURVE SMOOTH",
"1151 940 LINE",
"1098 958 OFFCURVE",
"1034 967 OFFCURVE",
"958 967 CURVE SMOOTH",
"759 967 OFFCURVE",
"633 819 OFFCURVE",
"633 590 CURVE SMOOTH"
);
}
);
width = 1815;
}
);
unicode = 0040;
},
{
glyphname = A;
layers = (
{
layerId = "76F3DBC4-34E6-4FAC-BFB3-3E99EC0C3BB0";
name = Light;
paths = (
{
closed = 1;
nodes = (
"911 516 LINE",
"317 516 LINE",
"113 0 LINE",
"0 0 LINE",
"588 1468 LINE",
"653 1468 LINE",
"1229 0 LINE",
"1114 0 LINE"
);
},
{
closed = 1;
nodes = (
"354 608 LINE",
"877 608 LINE",
"678 1135 LINE SMOOTH",
"661 1176 OFFCURVE",
"641 1234 OFFCURVE",
"618 1307 CURVE",
"600 1243 OFFCURVE",
"580 1185 OFFCURVE",
"559 1133 CURVE SMOOTH"
);
}
);
width = 1229;
}
);
unicode = 0041;
},
{
glyphname = B;
layers = (
{
layerId = "76F3DBC4-34E6-4FAC-BFB3-3E99EC0C3BB0";
name = Light;
paths = (
{
closed = 1;
nodes = (
"207 1462 LINE",
"608 1462 LINE SMOOTH",
"969 1462 OFFCURVE",
"1133 1340 OFFCURVE",
"1133 1092 CURVE SMOOTH",
"1133 923 OFFCURVE",
"1028 804 OFFCURVE",
"829 772 CURVE",
"829 766 LINE",
"1062 731 OFFCURVE",
"1169 621 OFFCURVE",
"1169 420 CURVE SMOOTH",
"1169 151 OFFCURVE",
"983 0 OFFCURVE",
"655 0 CURVE SMOOTH",
"207 0 LINE"
);
},
{
closed = 1;
nodes = (
"309 811 LINE",
"631 811 LINE SMOOTH",
"906 811 OFFCURVE",
"1024 899 OFFCURVE",
"1024 1094 CURVE SMOOTH",
"1024 1289 OFFCURVE",
"883 1372 OFFCURVE",
"604 1372 CURVE SMOOTH",
"309 1372 LINE"
);
},
{
closed = 1;
nodes = (
"309 721 LINE",
"309 90 LINE",
"653 90 LINE SMOOTH",
"924 90 OFFCURVE",
"1059 200 OFFCURVE",
"1059 420 CURVE SMOOTH",
"1059 621 OFFCURVE",
"916 721 OFFCURVE",
"631 721 CURVE SMOOTH"
);
}
);
width = 1284;
}
);
unicode = 0042;
},
{
glyphname = C;
layers = (
{
layerId = "76F3DBC4-34E6-4FAC-BFB3-3E99EC0C3BB0";
name = Light;
paths = (
{
closed = 1;
nodes = (
"464 1391 OFFCURVE",
"240 1141 OFFCURVE",
"240 733 CURVE SMOOTH",
"240 316 OFFCURVE",
"446 74 OFFCURVE",
"815 74 CURVE SMOOTH",
"938 74 OFFCURVE",
"1050 90 OFFCURVE",
"1153 121 CURVE",
"1153 31 LINE",
"1056 -3 OFFCURVE",
"936 -20 OFFCURVE",
"791 -20 CURVE SMOOTH",
"380 -20 OFFCURVE",
"129 259 OFFCURVE",
"129 735 CURVE SMOOTH",
"129 1032 OFFCURVE",
"245 1267 OFFCURVE",
"457 1391 CURVE SMOOTH",
"562 1452 OFFCURVE",
"685 1483 OFFCURVE",
"825 1483 CURVE SMOOTH",
"968 1483 OFFCURVE",
"1095 1456 OFFCURVE",
"1208 1403 CURVE",
"1167 1311 LINE",
"1060 1364 OFFCURVE",
"948 1391 OFFCURVE",
"831 1391 CURVE SMOOTH"
);
}
);
width = 1272;
}
);
unicode = 0043;
},
{
glyphname = D;
layers = (
{
layerId = "76F3DBC4-34E6-4FAC-BFB3-3E99EC0C3BB0";
name = Light;
paths = (
{
closed = 1;
nodes = (
"1317 254 OFFCURVE",
"1056 0 OFFCURVE",
"557 0 CURVE SMOOTH",
"207 0 LINE",
"207 1462 LINE",
"602 1462 LINE SMOOTH",
"1069 1462 OFFCURVE",
"1317 1213 OFFCURVE",
"1317 745 CURVE SMOOTH"
);
},
{
closed = 1;
nodes = (
"1206 1160 OFFCURVE",
"990 1372 OFFCURVE",
"578 1372 CURVE SMOOTH",
"309 1372 LINE",
"309 90 LINE",
"551 90 LINE SMOOTH",
"988 90 OFFCURVE",
"1206 307 OFFCURVE",
"1206 741 CURVE SMOOTH"
);
}
);
width = 1446;
}
);
unicode = 0044;
},
{
glyphname = E;
layers = (
{
layerId = "76F3DBC4-34E6-4FAC-BFB3-3E99EC0C3BB0";
name = Light;
paths = (
{
closed = 1;
nodes = (
"1006 0 LINE",
"207 0 LINE",
"207 1462 LINE",
"1006 1462 LINE",
"1006 1368 LINE",
"309 1368 LINE",
"309 815 LINE",
"967 815 LINE",
"967 721 LINE",
"309 721 LINE",
"309 94 LINE",
"1006 94 LINE"
);
}
);
width = 1130;
}
);
unicode = 0045;
},
{
glyphname = F;
layers = (
{
layerId = "76F3DBC4-34E6-4FAC-BFB3-3E99EC0C3BB0";
name = Light;
paths = (
{
closed = 1;
nodes = (
"309 0 LINE",
"207 0 LINE",
"207 1462 LINE",
"1008 1462 LINE",
"1008 1368 LINE",
"309 1368 LINE",
"309 748 LINE",
"969 748 LINE",
"969 653 LINE",
"309 653 LINE"
);
}
);
width = 1028;
}
);
unicode = 0046;
},
{
glyphname = G;
layers = (
{
layerId = "76F3DBC4-34E6-4FAC-BFB3-3E99EC0C3BB0";
name = Light;
paths = (
{
closed = 1;
nodes = (
"782 737 LINE",
"1321 737 LINE",
"1321 70 LINE",
"1180 10 OFFCURVE",
"1021 -20 OFFCURVE",
"844 -20 CURVE SMOOTH",
"383 -20 OFFCURVE",
"129 252 OFFCURVE",
"129 729 CURVE SMOOTH",
"129 1026 OFFCURVE",
"255 1266 OFFCURVE",
"483 1391 CURVE SMOOTH",
"596 1454 OFFCURVE",
"727 1485 OFFCURVE",
"874 1485 CURVE SMOOTH",
"1033 1485 OFFCURVE",
"1176 1456 OFFCURVE",
"1303 1397 CURVE",
"1262 1305 LINE",
"1135 1364 OFFCURVE",
"1004 1393 OFFCURVE",
"868 1393 CURVE SMOOTH",
"483 1393 OFFCURVE",
"240 1137 OFFCURVE",
"240 733 CURVE SMOOTH",
"240 293 OFFCURVE",
"458 70 OFFCURVE",
"874 70 CURVE SMOOTH",
"1009 70 OFFCURVE",
"1123 89 OFFCURVE",
"1217 127 CURVE",
"1217 641 LINE",
"782 641 LINE"
);
}
);
width = 1481;
}
);
unicode = 0047;
},
{
glyphname = H;
layers = (
{
layerId = "76F3DBC4-34E6-4FAC-BFB3-3E99EC0C3BB0";
name = Light;
paths = (
{
closed = 1;
nodes = (
"1266 0 LINE",
"1163 0 LINE",
"1163 719 LINE",
"309 719 LINE",
"309 0 LINE",
"207 0 LINE",
"207 1462 LINE",
"309 1462 LINE",
"309 813 LINE",
"1163 813 LINE",
"1163 1462 LINE",
"1266 1462 LINE"
);
}
);
width = 1473;
}
);
unicode = 0048;
},
{
glyphname = I.alt;
layers = (
{
layerId = "76F3DBC4-34E6-4FAC-BFB3-3E99EC0C3BB0";
name = Light;
paths = (
{
closed = 1;
nodes = (
"532 0 LINE",
"90 0 LINE",
"90 66 LINE",
"260 86 LINE",
"260 1376 LINE",
"90 1397 LINE",
"90 1462 LINE",
"532 1462 LINE",
"532 1397 LINE",
"362 1376 LINE",
"362 86 LINE",
"532 66 LINE"
);
}
);
width = 623;
}
);
},
{
glyphname = J;
layers = (
{
layerId = "76F3DBC4-34E6-4FAC-BFB3-3E99EC0C3BB0";
name = Light;
paths = (
{
closed = 1;
nodes = (
"-94 -369 OFFCURVE",
"-145 -360 OFFCURVE",
"-184 -342 CURVE",
"-184 -254 LINE",
"-132 -267 OFFCURVE",
"-82 -274 OFFCURVE",
"-35 -274 CURVE SMOOTH",
"126 -274 OFFCURVE",
"207 -186 OFFCURVE",
"207 -10 CURVE SMOOTH",
"207 1462 LINE",
"309 1462 LINE",
"309 0 LINE SMOOTH",
"309 -246 OFFCURVE",
"195 -369 OFFCURVE",
"-33 -369 CURVE SMOOTH"
);
}
);
width = 506;
}
);
unicode = 004A;
},
{
glyphname = K;
layers = (
{
layerId = "76F3DBC4-34E6-4FAC-BFB3-3E99EC0C3BB0";
name = Light;
paths = (
{
closed = 1;
nodes = (
"1190 0 LINE",
"1065 0 LINE",
"504 772 LINE",
"309 600 LINE",
"309 0 LINE",
"207 0 LINE",
"207 1462 LINE",
"309 1462 LINE",
"309 702 LINE",
"471 864 LINE",
"1044 1462 LINE",
"1174 1462 LINE",
"575 844 LINE"
);
}
);
width = 1190;
}
);
unicode = 004B;
},
{
glyphname = L;
layers = (
{
layerId = "76F3DBC4-34E6-4FAC-BFB3-3E99EC0C3BB0";
name = Light;
paths = (
{
closed = 1;
nodes = (
"207 0 LINE",
"207 1462 LINE",
"309 1462 LINE",
"309 96 LINE",
"1006 96 LINE",
"1006 0 LINE"
);
}
);
width = 1051;
}
);
unicode = 004C;
},
{
glyphname = M;
layers = (
{
layerId = "76F3DBC4-34E6-4FAC-BFB3-3E99EC0C3BB0";
name = Light;
paths = (
{
closed = 1;
nodes = (
"850 0 LINE",
"305 1350 LINE",
"297 1350 LINE",
"302 1267 OFFCURVE",
"305 1183 OFFCURVE",
"305 1096 CURVE SMOOTH",
"305 0 LINE",
"207 0 LINE",
"207 1462 LINE",
"365 1462 LINE",
"883 176 LINE",
"889 176 LINE",
"1407 1462 LINE",
"1561 1462 LINE",
"1561 0 LINE",
"1458 0 LINE",
"1458 1108 LINE SMOOTH",
"1458 1185 OFFCURVE",
"1462 1265 OFFCURVE",
"1470 1348 CURVE",
"1462 1348 LINE",
"915 0 LINE"
);
}
);
width = 1767;
}
);
unicode = 004D;
},
{
glyphname = N;
layers = (
{
layerId = "76F3DBC4-34E6-4FAC-BFB3-3E99EC0C3BB0";
name = Light;
paths = (
{
closed = 1;
nodes = (
"1270 0 LINE",
"1167 0 LINE",
"301 1298 LINE",
"293 1298 LINE",
"301 1143 OFFCURVE",
"305 1027 OFFCURVE",
"305 948 CURVE SMOOTH",
"305 0 LINE",
"207 0 LINE",
"207 1462 LINE",
"309 1462 LINE",
"1174 166 LINE",
"1180 166 LINE",
"1174 286 OFFCURVE",
"1171 400 OFFCURVE",
"1171 508 CURVE SMOOTH",
"1171 1462 LINE",
"1270 1462 LINE"
);
}
);
width = 1477;
}
);
unicode = 004E;
},
{
glyphname = O;
layers = (
{
layerId = "76F3DBC4-34E6-4FAC-BFB3-3E99EC0C3BB0";
name = Light;
paths = (
{
closed = 1;
nodes = (
"1436 269 OFFCURVE",
"1190 -20 OFFCURVE",
"782 -20 CURVE SMOOTH",
"375 -20 OFFCURVE",
"129 268 OFFCURVE",
"129 735 CURVE SMOOTH",
"129 1200 OFFCURVE",
"379 1485 OFFCURVE",
"784 1485 CURVE SMOOTH",
"1192 1485 OFFCURVE",
"1436 1198 OFFCURVE",
"1436 733 CURVE SMOOTH"
);
},
{
closed = 1;
nodes = (
"240 314 OFFCURVE",
"433 76 OFFCURVE",
"782 76 CURVE SMOOTH",
"1134 76 OFFCURVE",
"1325 310 OFFCURVE",
"1325 733 CURVE SMOOTH",
"1325 1154 OFFCURVE",
"1133 1386 OFFCURVE",
"784 1386 CURVE SMOOTH",
"436 1386 OFFCURVE",
"240 1150 OFFCURVE",
"240 733 CURVE SMOOTH"
);
}
);
width = 1565;
}
);
unicode = 004F;
},
{
glyphname = P;
layers = (
{
layerId = "76F3DBC4-34E6-4FAC-BFB3-3E99EC0C3BB0";
name = Light;
paths = (
{
closed = 1;
nodes = (
"1087 759 OFFCURVE",
"887 604 OFFCURVE",
"535 604 CURVE SMOOTH",
"309 604 LINE",
"309 0 LINE",
"207 0 LINE",
"207 1462 LINE",
"565 1462 LINE SMOOTH",
"913 1462 OFFCURVE",
"1087 1322 OFFCURVE",
"1087 1042 CURVE SMOOTH"
);
},
{
closed = 1;
nodes = (
"309 692 LINE",
"510 692 LINE SMOOTH",
"839 692 OFFCURVE",
"977 794 OFFCURVE",
"977 1038 CURVE SMOOTH",
"977 1263 OFFCURVE",
"842 1370 OFFCURVE",
"551 1370 CURVE SMOOTH",
"309 1370 LINE"
);
}
);
width = 1198;
}
);
unicode = 0050;
},
{
glyphname = Q;
layers = (
{
layerId = "76F3DBC4-34E6-4FAC-BFB3-3E99EC0C3BB0";
name = Light;
paths = (
{
closed = 1;
nodes = (
"1436 341 OFFCURVE",
"1258 72 OFFCURVE",
"961 0 CURVE",
"1294 -348 LINE",
"1128 -348 LINE",
"846 -18 LINE",
"813 -20 LINE",
"782 -20 LINE SMOOTH",
"375 -20 OFFCURVE",
"129 268 OFFCURVE",
"129 735 CURVE SMOOTH",
"129 1200 OFFCURVE",
"379 1485 OFFCURVE",
"784 1485 CURVE SMOOTH",
"1192 1485 OFFCURVE",
"1436 1198 OFFCURVE",
"1436 733 CURVE SMOOTH"
);
},
{
closed = 1;
nodes = (
"240 314 OFFCURVE",
"433 76 OFFCURVE",
"782 76 CURVE SMOOTH",
"1134 76 OFFCURVE",
"1325 310 OFFCURVE",
"1325 733 CURVE SMOOTH",
"1325 1154 OFFCURVE",
"1133 1386 OFFCURVE",
"784 1386 CURVE SMOOTH",
"436 1386 OFFCURVE",
"240 1150 OFFCURVE",
"240 733 CURVE SMOOTH"
);
}
);
width = 1565;
}
);
unicode = 0051;
},
{
glyphname = R;
layers = (
{
layerId = "76F3DBC4-34E6-4FAC-BFB3-3E99EC0C3BB0";
name = Light;
paths = (
{
closed = 1;
nodes = (
"309 637 LINE",
"309 0 LINE",
"207 0 LINE",
"207 1462 LINE",
"555 1462 LINE SMOOTH",
"918 1462 OFFCURVE",
"1087 1328 OFFCURVE",
"1087 1059 CURVE SMOOTH",
"1087 863 OFFCURVE",
"985 725 OFFCURVE",
"774 666 CURVE",
"1171 0 LINE",
"1049 0 LINE",
"672 637 LINE"
);
},
{
closed = 1;
nodes = (
"309 725 LINE",
"588 725 LINE SMOOTH",
"835 725 OFFCURVE",
"977 836 OFFCURVE",
"977 1051 CURVE SMOOTH",
"977 1274 OFFCURVE",
"852 1370 OFFCURVE",
"551 1370 CURVE SMOOTH",
"309 1370 LINE"
);
}
);
width = 1217;
}
);
unicode = 0052;
},
{
glyphname = S;
layers = (
{
layerId = "76F3DBC4-34E6-4FAC-BFB3-3E99EC0C3BB0";
name = Light;
paths = (
{
closed = 1;
nodes = (
"1014 133 OFFCURVE",
"819 -20 OFFCURVE",
"522 -20 CURVE SMOOTH",
"343 -20 OFFCURVE",
"206 0 OFFCURVE",
"111 39 CURVE",
"111 141 LINE",
"216 96 OFFCURVE",
"351 74 OFFCURVE",
"514 74 CURVE SMOOTH",
"754 74 OFFCURVE",
"905 194 OFFCURVE",
"905 373 CURVE SMOOTH",
"905 484 OFFCURVE",
"861 550 OFFCURVE",
"756 610 CURVE SMOOTH",
"703 640 OFFCURVE",
"626 672 OFFCURVE",
"524 707 CURVE SMOOTH",
"225 810 OFFCURVE",
"129 913 OFFCURVE",
"129 1112 CURVE SMOOTH",
"129 1331 OFFCURVE",
"319 1483 OFFCURVE",
"588 1483 CURVE SMOOTH",
"725 1483 OFFCURVE",
"854 1457 OFFCURVE",
"975 1405 CURVE",
"938 1317 LINE",
"817 1368 OFFCURVE",
"701 1393 OFFCURVE",
"590 1393 CURVE SMOOTH",
"374 1393 OFFCURVE",
"236 1286 OFFCURVE",
"236 1114 CURVE SMOOTH",
"236 1006 OFFCURVE",
"273 943 OFFCURVE",
"362 888 CURVE SMOOTH",
"407 860 OFFCURVE",
"483 827 OFFCURVE",
"592 788 CURVE SMOOTH",
"820 709 OFFCURVE",
"922 642 OFFCURVE",
"975 548 CURVE SMOOTH",
"1001 501 OFFCURVE",
"1014 444 OFFCURVE",
"1014 377 CURVE SMOOTH"
);
}
);
width = 1116;
}
);
unicode = 0053;
},
{
glyphname = T;
layers = (
{
layerId = "76F3DBC4-34E6-4FAC-BFB3-3E99EC0C3BB0";
name = Light;
paths = (
{
closed = 1;
nodes = (
"588 0 LINE",
"485 0 LINE",
"485 1366 LINE",
"10 1366 LINE",
"10 1462 LINE",
"1063 1462 LINE",
"1063 1366 LINE",
"588 1366 LINE"
);
}
);
width = 1073;
}
);
unicode = 0054;
},
{
glyphname = U;
layers = (
{
layerId = "76F3DBC4-34E6-4FAC-BFB3-3E99EC0C3BB0";
name = Light;
paths = (
{
closed = 1;
nodes = (
"1282 1462 LINE",
"1282 516 LINE SMOOTH",
"1282 180 OFFCURVE",
"1077 -20 OFFCURVE",
"729 -20 CURVE SMOOTH",
"390 -20 OFFCURVE",
"190 180 OFFCURVE",
"190 520 CURVE SMOOTH",
"190 1462 LINE",
"293 1462 LINE",
"293 516 LINE SMOOTH",
"293 235 OFFCURVE",
"456 70 OFFCURVE",
"741 70 CURVE SMOOTH",
"1020 70 OFFCURVE",
"1180 233 OFFCURVE",
"1180 506 CURVE SMOOTH",
"1180 1462 LINE"
);
}
);
width = 1473;
}
);
unicode = 0055;
},
{
glyphname = V;
layers = (
{
layerId = "76F3DBC4-34E6-4FAC-BFB3-3E99EC0C3BB0";
name = Light;
paths = (
{
closed = 1;
nodes = (
"1071 1462 LINE",
"1182 1462 LINE",
"635 0 LINE",
"545 0 LINE",
"0 1462 LINE",
"109 1462 LINE",
"477 467 LINE SMOOTH",
"533 317 OFFCURVE",
"571 204 OFFCURVE",
"590 129 CURVE",
"603 179 OFFCURVE",
"630 257 OFFCURVE",
"669 362 CURVE SMOOTH"
);
}
);
width = 1182;
}
);
unicode = 0056;
},
{
glyphname = W;
layers = (
{
layerId = "76F3DBC4-34E6-4FAC-BFB3-3E99EC0C3BB0";
name = Light;
paths = (
{
closed = 1;
nodes = (
"1372 0 LINE",
"1288 0 LINE",
"967 1128 LINE SMOOTH",
"940 1221 OFFCURVE",
"920 1297 OFFCURVE",
"907 1356 CURVE",
"896 1298 OFFCURVE",
"881 1231 OFFCURVE",
"862 1156 CURVE SMOOTH",
"842 1081 OFFCURVE",
"734 695 OFFCURVE",
"539 0 CURVE",
"453 0 LINE",
"51 1462 LINE",
"158 1462 LINE",
"414 520 LINE SMOOTH",
"424 482 OFFCURVE",
"433 447 OFFCURVE",
"442 415 CURVE SMOOTH",
"459 350 OFFCURVE",
"473 294 OFFCURVE",
"485 242 CURVE",
"490 215 OFFCURVE",
"495 189 OFFCURVE",
"500 162 CURVE",
"516 253 OFFCURVE",
"550 390 OFFCURVE",
"602 575 CURVE SMOOTH",
"852 1462 LINE",
"965 1462 LINE",
"1258 444 LINE SMOOTH",
"1292 327 OFFCURVE",
"1316 232 OFFCURVE",
"1331 160 CURVE",
"1340 208 OFFCURVE",
"1351 259 OFFCURVE",
"1365 313 CURVE SMOOTH",
"1378 367 OFFCURVE",
"1481 750 OFFCURVE",
"1673 1462 CURVE",
"1776 1462 LINE"
);
}
);
width = 1827;
}
);
unicode = 0057;
},
{
glyphname = X;
layers = (
{
layerId = "76F3DBC4-34E6-4FAC-BFB3-3E99EC0C3BB0";
name = Light;
paths = (
{
closed = 1;
nodes = (
"1102 0 LINE",
"985 0 LINE",
"553 682 LINE",
"113 0 LINE",
"0 0 LINE",
"492 762 LINE",
"45 1462 LINE",
"160 1462 LINE",
"555 836 LINE",
"956 1462 LINE",
"1065 1462 LINE",
"612 764 LINE"
);
}
);
width = 1102;
}
);
unicode = 0058;
},
{
glyphname = Y;
layers = (
{
layerId = "76F3DBC4-34E6-4FAC-BFB3-3E99EC0C3BB0";
name = Light;
paths = (
{
closed = 1;
nodes = (
"543 662 LINE",
"971 1462 LINE",
"1081 1462 LINE",
"594 565 LINE",
"594 0 LINE",
"489 0 LINE",
"489 557 LINE",
"0 1462 LINE",
"117 1462 LINE"
);
}
);
width = 1081;
}
);
unicode = 0059;
},
{
glyphname = Z;
layers = (
{
layerId = "76F3DBC4-34E6-4FAC-BFB3-3E99EC0C3BB0";
name = Light;
paths = (
{
closed = 1;
nodes = (
"1098 0 LINE",
"82 0 LINE",
"82 76 LINE",
"938 1366 LINE",
"121 1366 LINE",
"121 1462 LINE",
"1075 1462 LINE",
"1075 1386 LINE",
"217 96 LINE",
"1098 96 LINE"
);
}
);
width = 1180;
}
);
unicode = 005A;
},
{
glyphname = bracketleft;
layers = (
{
layerId = "76F3DBC4-34E6-4FAC-BFB3-3E99EC0C3BB0";
name = Light;
paths = (
{
closed = 1;
nodes = (
"602 -324 LINE",
"174 -324 LINE",
"174 1462 LINE",
"602 1462 LINE",
"602 1368 LINE",
"272 1368 LINE",
"272 -229 LINE",
"602 -229 LINE"
);
}
);
width = 653;
}
);
unicode = 005B;
},
{
glyphname = backslash;
layers = (
{
layerId = "76F3DBC4-34E6-4FAC-BFB3-3E99EC0C3BB0";
name = Light;
paths = (
{
closed = 1;
nodes = (
"127 1462 LINE",
"674 0 LINE",
"571 0 LINE",
"25 1462 LINE"
);
}
);
width = 698;
}
);
unicode = 005C;
},
{
glyphname = bracketright;
layers = (
{
layerId = "76F3DBC4-34E6-4FAC-BFB3-3E99EC0C3BB0";
name = Light;
paths = (
{
closed = 1;
nodes = (
"51 -229 LINE",
"381 -229 LINE",
"381 1368 LINE",
"51 1368 LINE",
"51 1462 LINE",
"479 1462 LINE",
"479 -324 LINE",
"51 -324 LINE"
);
}
);
width = 653;
}
);
unicode = 005D;
},
{
glyphname = asciicircum;
layers = (
{
layerId = "76F3DBC4-34E6-4FAC-BFB3-3E99EC0C3BB0";
name = Light;
paths = (
{
closed = 1;
nodes = (
"88 561 LINE",
"553 1473 LINE",
"621 1473 LINE",
"1081 561 LINE",
"981 561 LINE",
"586 1352 LINE",
"188 561 LINE"
);
}
);
width = 1169;
}
);
unicode = 005E;
},
{
glyphname = underscore;
layers = (
{
layerId = "76F3DBC4-34E6-4FAC-BFB3-3E99EC0C3BB0";
name = Light;
paths = (
{
closed = 1;
nodes = (
"846 -266 LINE",
"-4 -266 LINE",
"-4 -184 LINE",
"846 -184 LINE"
);
}
);
width = 842;
}
);
unicode = 005F;
},
{
glyphname = grave;
layers = (
{
layerId = "76F3DBC4-34E6-4FAC-BFB3-3E99EC0C3BB0";
name = Light;
paths = (
{
closed = 1;
nodes = (
"776 1241 LINE",
"707 1241 LINE",
"579 1346 OFFCURVE",
"437 1489 OFFCURVE",
"393 1552 CURVE",
"393 1569 LINE",
"535 1569 LINE",
"570 1505 OFFCURVE",
"683 1358 OFFCURVE",
"776 1257 CURVE"
);
}
);
width = 1182;
}
);
unicode = 0060;
},
{
glyphname = a;
layers = (
{
layerId = "76F3DBC4-34E6-4FAC-BFB3-3E99EC0C3BB0";
name = Light;
paths = (
{
closed = 1;
nodes = (
"842 0 LINE",
"817 172 LINE",
"809 172 LINE",
"700 32 OFFCURVE",
"593 -20 OFFCURVE",
"436 -20 CURVE SMOOTH",
"223 -20 OFFCURVE",
"98 96 OFFCURVE",
"98 289 CURVE SMOOTH",
"98 501 OFFCURVE",
"279 622 OFFCURVE",
"614 629 CURVE SMOOTH",
"821 635 LINE",
"821 707 LINE SMOOTH",
"821 914 OFFCURVE",
"742 1020 OFFCURVE",
"555 1020 CURVE SMOOTH",
"454 1020 OFFCURVE",
"350 992 OFFCURVE",
"242 936 CURVE",
"205 1022 LINE",
"324 1078 OFFCURVE",
"442 1106 OFFCURVE",
"559 1106 CURVE SMOOTH",
"798 1106 OFFCURVE",
"915 986 OFFCURVE",
"915 723 CURVE SMOOTH",
"915 0 LINE"
);
},
{
closed = 1;
nodes = (
"674 70 OFFCURVE",
"817 210 OFFCURVE",
"817 446 CURVE SMOOTH",
"817 553 LINE",
"627 545 LINE SMOOTH",
"322 530 OFFCURVE",
"203 456 OFFCURVE",
"203 285 CURVE SMOOTH",
"203 149 OFFCURVE",
"290 70 OFFCURVE",
"442 70 CURVE SMOOTH"
);
}
);
width = 1085;
}
);
unicode = 0061;
},
{
glyphname = b;
layers = (
{
layerId = "76F3DBC4-34E6-4FAC-BFB3-3E99EC0C3BB0";
name = Light;
paths = (
{
closed = 1;
nodes = (
"945 1108 OFFCURVE",
"1100 913 OFFCURVE",
"1100 545 CURVE SMOOTH",
"1100 184 OFFCURVE",
"930 -20 OFFCURVE",
"637 -20 CURVE SMOOTH",
"482 -20 OFFCURVE",
"353 47 OFFCURVE",
"281 164 CURVE",
"272 164 LINE",
"244 0 LINE",
"182 0 LINE",
"182 1556 LINE",
"281 1556 LINE",
"281 1165 LINE SMOOTH",
"281 1106 OFFCURVE",
"280 1052 OFFCURVE",
"277 1003 CURVE SMOOTH",
"274 918 LINE",
"281 918 LINE",
"364 1049 OFFCURVE",
"477 1108 OFFCURVE",
"641 1108 CURVE SMOOTH"
);
},
{
closed = 1;
nodes = (
"383 1018 OFFCURVE",
"281 882 OFFCURVE",
"281 545 CURVE SMOOTH",
"281 528 LINE SMOOTH",
"281 200 OFFCURVE",
"393 68 OFFCURVE",
"637 68 CURVE SMOOTH",
"874 68 OFFCURVE",
"995 240 OFFCURVE",
"995 547 CURVE SMOOTH",
"995 861 OFFCURVE",
"876 1018 OFFCURVE",
"639 1018 CURVE SMOOTH"
);
}
);
width = 1219;
}
);
unicode = 0062;
},
{
glyphname = c;
layers = (
{
layerId = "76F3DBC4-34E6-4FAC-BFB3-3E99EC0C3BB0";
name = Light;
paths = (
{
closed = 1;
nodes = (
"305 -20 OFFCURVE",
"119 186 OFFCURVE",
"119 537 CURVE SMOOTH",
"119 897 OFFCURVE",
"314 1108 OFFCURVE",
"631 1108 CURVE SMOOTH",
"725 1108 OFFCURVE",
"815 1092 OFFCURVE",
"901 1059 CURVE",
"874 971 LINE",
"780 1002 OFFCURVE",
"698 1018 OFFCURVE",
"629 1018 CURVE SMOOTH",
"362 1018 OFFCURVE",
"223 848 OFFCURVE",
"223 539 CURVE SMOOTH",
"223 246 OFFCURVE",
"367 70 OFFCURVE",
"614 70 CURVE SMOOTH",
"713 70 OFFCURVE",
"804 88 OFFCURVE",
"889 123 CURVE",
"889 31 LINE",
"820 -3 OFFCURVE",
"729 -20 OFFCURVE",
"616 -20 CURVE SMOOTH"
);
}
);
width = 973;
}
);
unicode = 0063;
},
{
glyphname = d;
layers = (
{
layerId = "76F3DBC4-34E6-4FAC-BFB3-3E99EC0C3BB0";
name = Light;
paths = (
{
closed = 1;
nodes = (
"737 1108 OFFCURVE",
"847 1057 OFFCURVE",
"938 918 CURVE",
"944 918 LINE",
"940 1002 OFFCURVE",
"938 1084 OFFCURVE",
"938 1165 CURVE SMOOTH",
"938 1556 LINE",
"1036 1556 LINE",
"1036 0 LINE",
"971 0 LINE",
"946 166 LINE",
"938 166 LINE",
"855 42 OFFCURVE",
"737 -20 OFFCURVE",
"582 -20 CURVE SMOOTH",
"282 -20 OFFCURVE",
"119 171 OFFCURVE",
"119 528 CURVE SMOOTH",
"119 904 OFFCURVE",
"280 1108 OFFCURVE",
"580 1108 CURVE SMOOTH"
);
},
{
closed = 1;
nodes = (
"343 1018 OFFCURVE",
"223 847 OFFCURVE",
"223 530 CURVE SMOOTH",
"223 222 OFFCURVE",
"343 68 OFFCURVE",
"582 68 CURVE SMOOTH",
"827 68 OFFCURVE",
"938 200 OFFCURVE",
"938 528 CURVE SMOOTH",
"938 545 LINE SMOOTH",
"938 881 OFFCURVE",
"832 1018 OFFCURVE",
"580 1018 CURVE SMOOTH"
);
}
);
width = 1219;
}
);
unicode = 0064;
},
{
glyphname = e;
layers = (
{
layerId = "76F3DBC4-34E6-4FAC-BFB3-3E99EC0C3BB0";
name = Light;
paths = (
{
closed = 1;
nodes = (
"305 -20 OFFCURVE",
"119 184 OFFCURVE",
"119 535 CURVE SMOOTH",
"119 882 OFFCURVE",
"303 1108 OFFCURVE",
"592 1108 CURVE SMOOTH",
"848 1108 OFFCURVE",
"1006 917 OFFCURVE",
"1006 610 CURVE SMOOTH",
"1006 530 LINE",
"223 530 LINE",
"226 231 OFFCURVE",
"366 70 OFFCURVE",
"621 70 CURVE SMOOTH",
"745 70 OFFCURVE",
"819 82 OFFCURVE",
"963 139 CURVE",
"963 49 LINE",
"840 -4 OFFCURVE",
"746 -20 OFFCURVE",
"621 -20 CURVE SMOOTH"
);
},
{
closed = 1;
nodes = (
"383 1020 OFFCURVE",
"250 878 OFFCURVE",
"229 618 CURVE",
"901 618 LINE",
"901 870 OFFCURVE",
"785 1020 OFFCURVE",
"592 1020 CURVE SMOOTH"
);
}
);
width = 1124;
}
);
unicode = 0065;
},
{
glyphname = f;
layers = (
{
layerId = "76F3DBC4-34E6-4FAC-BFB3-3E99EC0C3BB0";
name = Light;
paths = (
{
closed = 1;
nodes = (
"586 1001 LINE",
"330 1001 LINE",
"330 0 LINE",
"231 0 LINE",
"231 1001 LINE",
"29 1001 LINE",
"29 1059 LINE",
"231 1096 LINE",
"231 1180 LINE SMOOTH",
"231 1447 OFFCURVE",
"322 1567 OFFCURVE",
"545 1567 CURVE SMOOTH",
"605 1567 OFFCURVE",
"665 1558 OFFCURVE",
"725 1540 CURVE",
"702 1454 LINE",
"649 1471 OFFCURVE",
"596 1479 OFFCURVE",
"543 1479 CURVE SMOOTH",
"388 1479 OFFCURVE",
"330 1393 OFFCURVE",
"330 1188 CURVE SMOOTH",
"330 1087 LINE",
"586 1087 LINE"
);
}
);
width = 614;
}
);
unicode = 0066;
},
{
glyphname = g;
layers = (
{
layerId = "76F3DBC4-34E6-4FAC-BFB3-3E99EC0C3BB0";
name = Light;
paths = (
{
closed = 1;
nodes = (
"1030 1087 LINE",
"1030 1018 LINE",
"805 1004 LINE",
"865 929 OFFCURVE",
"895 847 OFFCURVE",
"895 758 CURVE SMOOTH",
"895 549 OFFCURVE",
"745 406 OFFCURVE",
"510 406 CURVE SMOOTH",
"461 406 OFFCURVE",
"426 408 OFFCURVE",
"406 412 CURVE",
"327 371 OFFCURVE",
"285 313 OFFCURVE",
"285 250 CURVE SMOOTH",
"285 181 OFFCURVE",
"333 150 OFFCURVE",
"457 150 CURVE SMOOTH",
"647 150 LINE SMOOTH",
"883 150 OFFCURVE",
"1012 54 OFFCURVE",
"1012 -133 CURVE SMOOTH",
"1012 -362 OFFCURVE",
"819 -492 OFFCURVE",
"475 -492 CURVE SMOOTH",
"202 -492 OFFCURVE",
"45 -381 OFFCURVE",
"45 -193 CURVE SMOOTH",
"45 -44 OFFCURVE",
"144 58 OFFCURVE",
"303 94 CURVE",
"238 122 OFFCURVE",
"195 175 OFFCURVE",
"195 242 CURVE SMOOTH",
"195 315 OFFCURVE",
"241 379 OFFCURVE",
"334 434 CURVE",
"207 486 OFFCURVE",
"133 604 OFFCURVE",
"133 748 CURVE SMOOTH",
"133 965 OFFCURVE",
"281 1108 OFFCURVE",
"516 1108 CURVE SMOOTH",
"587 1108 OFFCURVE",
"643 1101 OFFCURVE",
"682 1087 CURVE"
);
},
{
closed = 1;
nodes = (
"150 -333 OFFCURVE",
"261 -408 OFFCURVE",
"483 -408 CURVE SMOOTH",
"768 -408 OFFCURVE",
"911 -317 OFFCURVE",
"911 -135 CURVE SMOOTH",
"911 -4 OFFCURVE",
"827 51 OFFCURVE",
"627 51 CURVE SMOOTH",
"449 51 LINE SMOOTH",
"250 51 OFFCURVE",
"150 -27 OFFCURVE",
"150 -184 CURVE SMOOTH"
);
},
{
closed = 1;
nodes = (
"233 580 OFFCURVE",
"343 483 OFFCURVE",
"514 483 CURVE SMOOTH",
"695 483 OFFCURVE",
"795 577 OFFCURVE",
"795 752 CURVE SMOOTH",
"795 937 OFFCURVE",
"691 1030 OFFCURVE",
"512 1030 CURVE SMOOTH",
"339 1030 OFFCURVE",
"233 925 OFFCURVE",
"233 748 CURVE SMOOTH"
);
}
);
width = 1071;
}
);
unicode = 0067;
},
{
glyphname = h;
layers = (
{
layerId = "76F3DBC4-34E6-4FAC-BFB3-3E99EC0C3BB0";
name = Light;
paths = (
{
closed = 1;
nodes = (
"940 0 LINE",
"940 705 LINE SMOOTH",
"940 924 OFFCURVE",
"850 1018 OFFCURVE",
"657 1018 CURVE SMOOTH",
"397 1018 OFFCURVE",
"281 895 OFFCURVE",
"281 600 CURVE SMOOTH",
"281 0 LINE",
"182 0 LINE",
"182 1556 LINE",
"281 1556 LINE",
"281 1061 LINE",
"276 922 LINE",
"283 922 LINE",
"364 1053 OFFCURVE",
"484 1108 OFFCURVE",
"668 1108 CURVE SMOOTH",
"915 1108 OFFCURVE",
"1038 976 OFFCURVE",
"1038 711 CURVE SMOOTH",
"1038 0 LINE"
);
}
);
width = 1208;
}
);
unicode = 0068;
},
{
glyphname = i;
layers = (
{
layerId = "76F3DBC4-34E6-4FAC-BFB3-3E99EC0C3BB0";
name = Light;
paths = (
{
closed = 1;
nodes = (
"281 0 LINE",
"182 0 LINE",
"182 1087 LINE",
"281 1087 LINE"
);
},
{
closed = 1;
nodes = (
"168 1453 OFFCURVE",
"189 1485 OFFCURVE",
"231 1485 CURVE SMOOTH",
"272 1485 OFFCURVE",
"297 1450 OFFCURVE",
"297 1389 CURVE SMOOTH",
"297 1329 OFFCURVE",
"272 1292 OFFCURVE",
"231 1292 CURVE SMOOTH",
"189 1292 OFFCURVE",
"168 1324 OFFCURVE",
"168 1389 CURVE SMOOTH"
);
}
);
width = 463;
}
);
unicode = 0069;
},
{
glyphname = j;
layers = (
{
layerId = "76F3DBC4-34E6-4FAC-BFB3-3E99EC0C3BB0";
name = Light;
paths = (
{
closed = 1;
nodes = (
"-16 -492 OFFCURVE",
"-61 -484 OFFCURVE",
"-98 -467 CURVE",
"-98 -381 LINE",
"-52 -394 OFFCURVE",
"-9 -401 OFFCURVE",
"31 -401 CURVE SMOOTH",
"132 -401 OFFCURVE",
"182 -342 OFFCURVE",
"182 -225 CURVE SMOOTH",
"182 1087 LINE",
"281 1087 LINE",
"281 -211 LINE SMOOTH",
"281 -391 OFFCURVE",
"193 -492 OFFCURVE",
"37 -492 CURVE SMOOTH"
);
},
{
closed = 1;
nodes = (
"168 1453 OFFCURVE",
"189 1485 OFFCURVE",
"231 1485 CURVE SMOOTH",
"272 1485 OFFCURVE",
"297 1450 OFFCURVE",
"297 1389 CURVE SMOOTH",
"297 1329 OFFCURVE",
"272 1292 OFFCURVE",
"231 1292 CURVE SMOOTH",
"189 1292 OFFCURVE",
"168 1324 OFFCURVE",
"168 1389 CURVE SMOOTH"
);
}
);
width = 463;
}
);
unicode = 006A;
},
{
glyphname = k;
layers = (
{
layerId = "76F3DBC4-34E6-4FAC-BFB3-3E99EC0C3BB0";
name = Light;
paths = (
{
closed = 1;
nodes = (
"279 477 LINE",
"834 1087 LINE",
"954 1087 LINE",
"526 623 LINE",
"991 0 LINE",
"872 0 LINE",
"459 549 LINE",
"281 387 LINE",
"281 0 LINE",
"182 0 LINE",
"182 1556 LINE",
"281 1556 LINE",
"281 776 LINE",
"274 477 LINE"
);
}
);
width = 991;
}
);
unicode = 006B;
},
{
glyphname = l;
layers = (
{
layerId = "76F3DBC4-34E6-4FAC-BFB3-3E99EC0C3BB0";
name = Light;
paths = (
{
closed = 1;
nodes = (
"281 0 LINE",
"182 0 LINE",
"182 1556 LINE",
"281 1556 LINE"
);
}
);
width = 463;
}
);
unicode = 006C;
},
{
glyphname = m;
layers = (
{
layerId = "76F3DBC4-34E6-4FAC-BFB3-3E99EC0C3BB0";
name = Light;
paths = (
{
closed = 1;
nodes = (
"1540 0 LINE",
"1540 713 LINE SMOOTH",
"1540 925 OFFCURVE",
"1459 1018 OFFCURVE",
"1288 1018 CURVE SMOOTH",
"1065 1018 OFFCURVE",
"961 900 OFFCURVE",
"961 637 CURVE SMOOTH",
"961 0 LINE",
"860 0 LINE",
"860 743 LINE SMOOTH",
"860 926 OFFCURVE",
"776 1018 OFFCURVE",
"608 1018 CURVE SMOOTH",
"380 1018 OFFCURVE",
"281 892 OFFCURVE",
"281 600 CURVE SMOOTH",
"281 0 LINE",
"182 0 LINE",
"182 1087 LINE",
"264 1087 LINE",
"285 938 LINE",
"291 938 LINE",
"351 1046 OFFCURVE",
"469 1108 OFFCURVE",
"602 1108 CURVE SMOOTH",
"773 1108 OFFCURVE",
"883 1044 OFFCURVE",
"932 915 CURVE",
"936 915 LINE",
"1007 1039 OFFCURVE",
"1130 1108 OFFCURVE",
"1282 1108 CURVE SMOOTH",
"1519 1108 OFFCURVE",
"1638 987 OFFCURVE",
"1638 711 CURVE SMOOTH",
"1638 0 LINE"
);
}
);
width = 1808;
}
);
unicode = 006D;
},
{
glyphname = n;
layers = (
{
layerId = "76F3DBC4-34E6-4FAC-BFB3-3E99EC0C3BB0";
name = Light;
paths = (
{
closed = 1;
nodes = (
"940 0 LINE",
"940 705 LINE SMOOTH",
"940 924 OFFCURVE",
"850 1018 OFFCURVE",
"657 1018 CURVE SMOOTH",
"397 1018 OFFCURVE",
"281 895 OFFCURVE",
"281 600 CURVE SMOOTH",
"281 0 LINE",
"182 0 LINE",
"182 1087 LINE",
"266 1087 LINE",
"285 938 LINE",
"291 938 LINE",
"362 1051 OFFCURVE",
"487 1108 OFFCURVE",
"668 1108 CURVE SMOOTH",
"915 1108 OFFCURVE",
"1038 976 OFFCURVE",
"1038 711 CURVE SMOOTH",
"1038 0 LINE"
);
}
);
width = 1208;
}
);
unicode = 006E;
},
{
glyphname = o;
layers = (
{
layerId = "76F3DBC4-34E6-4FAC-BFB3-3E99EC0C3BB0";
name = Light;
paths = (
{
closed = 1;
nodes = (
"1081 190 OFFCURVE",
"899 -20 OFFCURVE",
"596 -20 CURVE SMOOTH",
"405 -20 OFFCURVE",
"254 75 OFFCURVE",
"177 247 CURVE SMOOTH",
"138 333 OFFCURVE",
"119 432 OFFCURVE",
"119 545 CURVE SMOOTH",
"119 900 OFFCURVE",
"302 1108 OFFCURVE",
"602 1108 CURVE SMOOTH",
"901 1108 OFFCURVE",
"1081 894 OFFCURVE",
"1081 545 CURVE SMOOTH"
);
},
{
closed = 1;
nodes = (
"223 246 OFFCURVE",
"360 70 OFFCURVE",
"600 70 CURVE SMOOTH",
"840 70 OFFCURVE",
"977 246 OFFCURVE",
"977 545 CURVE SMOOTH",
"977 845 OFFCURVE",
"838 1018 OFFCURVE",
"598 1018 CURVE SMOOTH",
"358 1018 OFFCURVE",
"223 846 OFFCURVE",
"223 545 CURVE SMOOTH"
);
}
);
width = 1200;
}
);
unicode = 006F;
},
{
glyphname = p;
layers = (
{
layerId = "76F3DBC4-34E6-4FAC-BFB3-3E99EC0C3BB0";
name = Light;
paths = (
{
closed = 1;
nodes = (
"480 -20 OFFCURVE",
"358 43 OFFCURVE",
"281 168 CURVE",
"274 168 LINE",
"277 84 LINE SMOOTH",
"280 35 OFFCURVE",
"281 -19 OFFCURVE",
"281 -78 CURVE SMOOTH",
"281 -492 LINE",
"182 -492 LINE",
"182 1087 LINE",
"266 1087 LINE",
"285 932 LINE",
"291 932 LINE",
"366 1049 OFFCURVE",
"485 1108 OFFCURVE",
"649 1108 CURVE SMOOTH",
"942 1108 OFFCURVE",
"1100 911 OFFCURVE",
"1100 543 CURVE SMOOTH",
"1100 186 OFFCURVE",
"927 -20 OFFCURVE",
"647 -20 CURVE SMOOTH"
);
},
{
closed = 1;
nodes = (
"868 68 OFFCURVE",
"995 242 OFFCURVE",
"995 539 CURVE SMOOTH",
"995 858 OFFCURVE",
"880 1018 OFFCURVE",
"649 1018 CURVE SMOOTH",
"396 1018 OFFCURVE",
"281 888 OFFCURVE",
"281 573 CURVE SMOOTH",
"281 541 LINE SMOOTH",
"281 201 OFFCURVE",
"388 68 OFFCURVE",
"645 68 CURVE SMOOTH"
);
}
);
width = 1219;
}
);
unicode = 0070;
},
{
glyphname = q;
layers = (
{
layerId = "76F3DBC4-34E6-4FAC-BFB3-3E99EC0C3BB0";
name = Light;
paths = (
{
closed = 1;
nodes = (
"284 -20 OFFCURVE",
"119 175 OFFCURVE",
"119 532 CURVE SMOOTH",
"119 899 OFFCURVE",
"282 1108 OFFCURVE",
"575 1108 CURVE SMOOTH",
"732 1108 OFFCURVE",
"850 1050 OFFCURVE",
"928 934 CURVE",
"934 934 LINE",
"952 1087 LINE",
"1036 1087 LINE",
"1036 -492 LINE",
"938 -492 LINE",
"938 -78 LINE SMOOTH",
"938 3 OFFCURVE",
"940 86 OFFCURVE",
"944 170 CURVE",
"938 170 LINE",
"859 43 OFFCURVE",
"736 -20 OFFCURVE",
"569 -20 CURVE SMOOTH"
);
},
{
closed = 1;
nodes = (
"835 68 OFFCURVE",
"938 200 OFFCURVE",
"938 543 CURVE SMOOTH",
"938 555 LINE SMOOTH",
"938 882 OFFCURVE",
"830 1018 OFFCURVE",
"582 1018 CURVE SMOOTH",
"347 1018 OFFCURVE",
"223 850 OFFCURVE",
"223 530 CURVE SMOOTH",
"223 225 OFFCURVE",
"346 68 OFFCURVE",
"571 68 CURVE SMOOTH"
);
}
);
width = 1219;
}
);
unicode = 0071;
},
{
glyphname = r;
layers = (
{
layerId = "76F3DBC4-34E6-4FAC-BFB3-3E99EC0C3BB0";
name = Light;
paths = (
{
closed = 1;
nodes = (
"656 1108 OFFCURVE",
"705 1103 OFFCURVE",
"758 1094 CURVE",
"739 999 LINE",
"694 1010 OFFCURVE",
"647 1016 OFFCURVE",
"598 1016 CURVE SMOOTH",
"413 1016 OFFCURVE",
"281 840 OFFCURVE",
"281 600 CURVE SMOOTH",
"281 0 LINE",
"182 0 LINE",
"182 1087 LINE",
"266 1087 LINE",
"276 891 LINE",
"283 891 LINE",
"372 1051 OFFCURVE",
"466 1108 OFFCURVE",
"610 1108 CURVE SMOOTH"
);
}
);
width = 797;
}
);
unicode = 0072;
},
{
glyphname = s;
layers = (
{
layerId = "76F3DBC4-34E6-4FAC-BFB3-3E99EC0C3BB0";
name = Light;
paths = (
{
closed = 1;
nodes = (
"856 88 OFFCURVE",
"702 -20 OFFCURVE",
"430 -20 CURVE SMOOTH",
"285 -20 OFFCURVE",
"169 2 OFFCURVE",
"84 47 CURVE",
"84 154 LINE",
"193 99 OFFCURVE",
"309 72 OFFCURVE",
"430 72 CURVE SMOOTH",
"645 72 OFFCURVE",
"758 149 OFFCURVE",
"758 268 CURVE SMOOTH",
"758 377 OFFCURVE",
"676 444 OFFCURVE",
"473 516 CURVE SMOOTH",
"364 555 OFFCURVE",
"288 589 OFFCURVE",
"244 618 CURVE SMOOTH",
"156 674 OFFCURVE",
"111 741 OFFCURVE",
"111 844 CURVE SMOOTH",
"111 1007 OFFCURVE",
"255 1108 OFFCURVE",
"500 1108 CURVE SMOOTH",
"617 1108 OFFCURVE",
"729 1086 OFFCURVE",
"834 1042 CURVE",
"797 952 LINE",
"690 996 OFFCURVE",
"591 1018 OFFCURVE",
"500 1018 CURVE SMOOTH",
"323 1018 OFFCURVE",
"211 956 OFFCURVE",
"211 852 CURVE SMOOTH",
"211 795 OFFCURVE",
"231 750 OFFCURVE",
"272 716 CURVE SMOOTH",
"312 682 OFFCURVE",
"391 644 OFFCURVE",
"508 602 CURVE SMOOTH",
"704 531 OFFCURVE",
"778 482 OFFCURVE",
"823 410 CURVE SMOOTH",
"845 374 OFFCURVE",
"856 332 OFFCURVE",
"856 283 CURVE SMOOTH"
);
}
);
width = 954;
}
);
unicode = 0073;
},
{
glyphname = t;
layers = (
{
layerId = "76F3DBC4-34E6-4FAC-BFB3-3E99EC0C3BB0";
name = Light;
paths = (
{
closed = 1;
nodes = (
"532 68 OFFCURVE",
"586 73 OFFCURVE",
"633 84 CURVE",
"633 4 LINE",
"585 -12 OFFCURVE",
"530 -20 OFFCURVE",
"467 -20 CURVE SMOOTH",
"275 -20 OFFCURVE",
"186 79 OFFCURVE",
"186 299 CURVE SMOOTH",
"186 1001 LINE",
"25 1001 LINE",
"25 1059 LINE",
"186 1104 LINE",
"236 1350 LINE",
"287 1350 LINE",
"287 1087 LINE",
"606 1087 LINE",
"606 1001 LINE",
"287 1001 LINE",
"287 313 LINE SMOOTH",
"287 146 OFFCURVE",
"344 68 OFFCURVE",
"469 68 CURVE SMOOTH"
);
}
);
width = 686;
}
);
unicode = 0074;
},
{
glyphname = u;
layers = (
{
layerId = "76F3DBC4-34E6-4FAC-BFB3-3E99EC0C3BB0";
name = Light;
paths = (
{
closed = 1;
nodes = (
"268 1087 LINE",
"268 383 LINE SMOOTH",
"268 164 OFFCURVE",
"358 70 OFFCURVE",
"551 70 CURVE SMOOTH",
"810 70 OFFCURVE",
"928 192 OFFCURVE",
"928 487 CURVE SMOOTH",
"928 1087 LINE",
"1026 1087 LINE",
"1026 0 LINE",
"942 0 LINE",
"924 150 LINE",
"918 150 LINE",
"847 37 OFFCURVE",
"722 -20 OFFCURVE",
"541 -20 CURVE SMOOTH",
"294 -20 OFFCURVE",
"170 112 OFFCURVE",
"170 377 CURVE SMOOTH",
"170 1087 LINE"
);
}
);
width = 1208;
}
);
unicode = 0075;
},
{
glyphname = v;
layers = (
{
layerId = "76F3DBC4-34E6-4FAC-BFB3-3E99EC0C3BB0";
name = Light;
paths = (
{
closed = 1;
nodes = (
"420 0 LINE",
"0 1087 LINE",
"102 1087 LINE",
"383 348 LINE SMOOTH",
"420 253 OFFCURVE",
"448 171 OFFCURVE",
"467 100 CURVE",
"473 100 LINE",
"500 191 OFFCURVE",
"528 274 OFFCURVE",
"557 350 CURVE SMOOTH",
"838 1087 LINE",
"940 1087 LINE",
"520 0 LINE"
);
}
);
width = 940;
}
);
unicode = 0076;
},
{
glyphname = w;
layers = (
{
layerId = "76F3DBC4-34E6-4FAC-BFB3-3E99EC0C3BB0";
name = Light;
paths = (
{
closed = 1;
nodes = (
"1051 0 LINE",
"813 727 LINE SMOOTH",
"798 776 OFFCURVE",
"778 849 OFFCURVE",
"754 944 CURVE",
"748 944 LINE",
"727 870 LINE",
"682 725 LINE",
"440 0 LINE",
"342 0 LINE",
"31 1087 LINE",
"137 1087 LINE",
"311 457 LINE SMOOTH",
"352 301 OFFCURVE",
"378 186 OFFCURVE",
"391 113 CURVE",
"397 113 LINE",
"436 269 OFFCURVE",
"465 373 OFFCURVE",
"483 424 CURVE SMOOTH",
"707 1087 LINE",
"797 1087 LINE",
"1010 426 LINE SMOOTH",
"1058 269 OFFCURVE",
"1087 166 OFFCURVE",
"1098 115 CURVE",
"1104 115 LINE",
"1109 158 OFFCURVE",
"1136 274 OFFCURVE",
"1184 463 CURVE SMOOTH",
"1350 1087 LINE",
"1450 1087 LINE",
"1155 0 LINE"
);
}
);
width = 1481;
}
);
unicode = 0077;
},
{
glyphname = x;
layers = (
{
layerId = "76F3DBC4-34E6-4FAC-BFB3-3E99EC0C3BB0";
name = Light;
paths = (
{
closed = 1;
nodes = (
"449 559 LINE",
"70 1087 LINE",
"184 1087 LINE",
"508 629 LINE",
"829 1087 LINE",
"938 1087 LINE",
"565 559 LINE",
"965 0 LINE",
"850 0 LINE",
"508 485 LINE",
"164 0 LINE",
"55 0 LINE"
);
}
);
width = 1020;
}
);
unicode = 0078;
},
{
glyphname = y;
layers = (
{
layerId = "76F3DBC4-34E6-4FAC-BFB3-3E99EC0C3BB0";
name = Light;
paths = (
{
closed = 1;
nodes = (
"0 1087 LINE",
"102 1087 LINE",
"332 477 LINE SMOOTH",
"402 290 OFFCURVE",
"446 163 OFFCURVE",
"465 98 CURVE",
"471 98 LINE",
"499 184 OFFCURVE",
"545 312 OFFCURVE",
"608 483 CURVE SMOOTH",
"838 1087 LINE",
"940 1087 LINE",
"453 -176 LINE SMOOTH",
"414 -279 OFFCURVE",
"381 -348 OFFCURVE",
"354 -384 CURVE SMOOTH",
"301 -456 OFFCURVE",
"232 -492 OFFCURVE",
"131 -492 CURVE SMOOTH",
"93 -492 OFFCURVE",
"51 -485 OFFCURVE",
"4 -471 CURVE",
"4 -385 LINE",
"43 -396 OFFCURVE",
"84 -401 OFFCURVE",
"129 -401 CURVE SMOOTH",
"197 -401 OFFCURVE",
"248 -370 OFFCURVE",
"290 -302 CURVE SMOOTH",
"332 -235 OFFCURVE",
"400 -44 OFFCURVE",
"416 0 CURVE"
);
}
);
width = 940;
}
);
unicode = 0079;
},
{
glyphname = z;
layers = (
{
layerId = "76F3DBC4-34E6-4FAC-BFB3-3E99EC0C3BB0";
name = Light;
paths = (
{
closed = 1;
nodes = (
"858 0 LINE",
"82 0 LINE",
"82 63 LINE",
"727 999 LINE",
"129 999 LINE",
"129 1087 LINE",
"856 1087 LINE",
"856 1024 LINE",
"207 88 LINE",
"858 88 LINE"
);
}
);
width = 944;
}
);
unicode = 007A;
},
{
glyphname = braceleft;
layers = (
{
layerId = "76F3DBC4-34E6-4FAC-BFB3-3E99EC0C3BB0";
name = Light;
paths = (
{
closed = 1;
nodes = (
"389 -27 LINE SMOOTH",
"389 -163 OFFCURVE",
"460 -229 OFFCURVE",
"651 -233 CURVE",
"651 -324 LINE",
"391 -324 OFFCURVE",
"291 -226 OFFCURVE",
"291 -18 CURVE SMOOTH",
"291 319 LINE SMOOTH",
"291 456 OFFCURVE",
"214 525 OFFCURVE",
"61 528 CURVE",
"61 608 LINE",
"224 611 OFFCURVE",
"291 675 OFFCURVE",
"291 807 CURVE SMOOTH",
"291 1157 LINE SMOOTH",
"291 1356 OFFCURVE",
"411 1458 OFFCURVE",
"651 1462 CURVE",
"651 1372 LINE",
"467 1365 OFFCURVE",
"389 1296 OFFCURVE",
"389 1157 CURVE SMOOTH",
"389 852 LINE SMOOTH",
"389 679 OFFCURVE",
"334 601 OFFCURVE",
"203 573 CURVE",
"203 565 LINE",
"332 538 OFFCURVE",
"389 459 OFFCURVE",
"389 295 CURVE SMOOTH"
);
}
);
width = 723;
}
);
unicode = 007B;
},
{
glyphname = bar;
layers = (
{
layerId = "76F3DBC4-34E6-4FAC-BFB3-3E99EC0C3BB0";
name = Light;
paths = (
{
closed = 1;
nodes = (
"508 1561 LINE",
"600 1561 LINE",
"600 -506 LINE",
"508 -506 LINE"
);
}
);
width = 1108;
}
);
unicode = 007C;
},
{
glyphname = braceright;
layers = (
{
layerId = "76F3DBC4-34E6-4FAC-BFB3-3E99EC0C3BB0";
name = Light;
paths = (
{
closed = 1;
nodes = (
"334 295 LINE SMOOTH",
"334 459 OFFCURVE",
"391 538 OFFCURVE",
"520 565 CURVE",
"520 573 LINE",
"391 600 OFFCURVE",
"334 677 OFFCURVE",
"334 852 CURVE SMOOTH",
"334 1157 LINE SMOOTH",
"334 1294 OFFCURVE",
"257 1365 OFFCURVE",
"72 1372 CURVE",
"72 1462 LINE",
"304 1462 OFFCURVE",
"432 1357 OFFCURVE",
"432 1157 CURVE SMOOTH",
"432 807 LINE SMOOTH",
"432 674 OFFCURVE",
"501 611 OFFCURVE",
"662 608 CURVE",
"662 528 LINE",
"509 525 OFFCURVE",
"432 456 OFFCURVE",
"432 319 CURVE SMOOTH",
"432 -18 LINE SMOOTH",
"432 -225 OFFCURVE",
"332 -324 OFFCURVE",
"72 -324 CURVE",
"72 -233 LINE",
"260 -230 OFFCURVE",
"334 -164 OFFCURVE",
"334 -27 CURVE SMOOTH"
);
}
);
width = 723;
}
);
unicode = 007D;
},
{
glyphname = asciitilde;
layers = (
{
layerId = "76F3DBC4-34E6-4FAC-BFB3-3E99EC0C3BB0";
name = Light;
paths = (
{
closed = 1;
nodes = (
"269 745 OFFCURVE",
"186 704 OFFCURVE",
"111 625 CURVE",
"111 719 LINE",
"183 792 OFFCURVE",
"261 829 OFFCURVE",
"344 829 CURVE SMOOTH",
"425 829 OFFCURVE",
"479 817 OFFCURVE",
"614 758 CURVE SMOOTH",
"698 719 OFFCURVE",
"771 700 OFFCURVE",
"834 700 CURVE SMOOTH",
"909 700 OFFCURVE",
"976 740 OFFCURVE",
"1059 825 CURVE",
"1059 729 LINE",
"995 664 OFFCURVE",
"922 616 OFFCURVE",
"825 616 CURVE SMOOTH",
"748 616 OFFCURVE",
"658 640 OFFCURVE",
"555 688 CURVE SMOOTH",
"472 726 OFFCURVE",
"399 745 OFFCURVE",
"334 745 CURVE SMOOTH"
);
}
);
width = 1169;
}
);
unicode = 007E;
},
{
glyphname = exclamdown;
layers = (
{
layerId = "76F3DBC4-34E6-4FAC-BFB3-3E99EC0C3BB0";
name = Light;
paths = (
{
closed = 1;
nodes = (
"215 711 LINE",
"276 711 LINE",
"305 -375 LINE",
"186 -375 LINE"
);
},
{
closed = 1;
nodes = (
"166 1075 OFFCURVE",
"193 1108 OFFCURVE",
"246 1108 CURVE SMOOTH",
"301 1108 OFFCURVE",
"328 1075 OFFCURVE",
"328 1010 CURVE SMOOTH",
"328 939 OFFCURVE",
"293 911 OFFCURVE",
"246 911 CURVE SMOOTH",
"201 911 OFFCURVE",
"166 939 OFFCURVE",
"166 1010 CURVE SMOOTH"
);
}
);
width = 492;
}
);
unicode = 00A1;
},
{
glyphname = cent;
layers = (
{
layerId = "76F3DBC4-34E6-4FAC-BFB3-3E99EC0C3BB0";
name = Light;
paths = (
{
closed = 1;
nodes = (
"602 190 LINE",
"354 230 OFFCURVE",
"211 432 OFFCURVE",
"211 745 CURVE SMOOTH",
"211 1054 OFFCURVE",
"354 1265 OFFCURVE",
"602 1309 CURVE",
"602 1483 LINE",
"684 1483 LINE",
"684 1317 LINE",
"698 1317 LINE SMOOTH",
"785 1317 OFFCURVE",
"877 1299 OFFCURVE",
"973 1262 CURVE",
"942 1178 LINE",
"853 1212 OFFCURVE",
"774 1229 OFFCURVE",
"705 1229 CURVE SMOOTH",
"456 1229 OFFCURVE",
"315 1063 OFFCURVE",
"315 748 CURVE SMOOTH",
"315 448 OFFCURVE",
"456 274 OFFCURVE",
"696 274 CURVE SMOOTH",
"783 274 OFFCURVE",
"872 293 OFFCURVE",
"963 332 CURVE",
"963 240 LINE",
"890 203 OFFCURVE",
"801 184 OFFCURVE",
"696 184 CURVE SMOOTH",
"684 184 LINE",
"684 -20 LINE",
"602 -20 LINE"
);
}
);
width = 1169;
}
);
unicode = 00A2;
},
{
glyphname = sterling;
layers = (
{
layerId = "76F3DBC4-34E6-4FAC-BFB3-3E99EC0C3BB0";
name = Light;
paths = (
{
closed = 1;
nodes = (
"412 676 LINE",
"412 420 LINE SMOOTH",
"412 265 OFFCURVE",
"368 160 OFFCURVE",
"264 96 CURVE",
"1073 96 LINE",
"1073 0 LINE",
"78 0 LINE",
"78 84 LINE",
"225 112 OFFCURVE",
"311 238 OFFCURVE",
"311 418 CURVE SMOOTH",
"311 676 LINE",
"100 676 LINE",
"100 758 LINE",
"311 758 LINE",
"311 1055 LINE SMOOTH",
"311 1327 OFFCURVE",
"446 1481 OFFCURVE",
"690 1481 CURVE SMOOTH",
"807 1481 OFFCURVE",
"917 1458 OFFCURVE",
"1020 1413 CURVE",
"985 1327 LINE",
"880 1371 OFFCURVE",
"782 1393 OFFCURVE",
"690 1393 CURVE SMOOTH",
"502 1393 OFFCURVE",
"412 1288 OFFCURVE",
"412 1059 CURVE SMOOTH",
"412 758 LINE",
"823 758 LINE",
"823 676 LINE"
);
}
);
width = 1169;
}
);
unicode = 00A3;
},
{
glyphname = currency;
layers = (
{
layerId = "76F3DBC4-34E6-4FAC-BFB3-3E99EC0C3BB0";
name = Light;
paths = (
{
closed = 1;
nodes = (
"991 622 OFFCURVE",
"961 537 OFFCURVE",
"901 467 CURVE",
"1040 326 LINE",
"981 266 LINE",
"844 408 LINE",
"771 346 OFFCURVE",
"684 315 OFFCURVE",
"584 315 CURVE SMOOTH",
"482 315 OFFCURVE",
"395 346 OFFCURVE",
"324 408 CURVE",
"186 266 LINE",
"127 326 LINE",
"266 467 LINE",
"206 538 OFFCURVE",
"176 623 OFFCURVE",
"176 723 CURVE SMOOTH",
"176 821 OFFCURVE",
"206 907 OFFCURVE",
"266 981 CURVE",
"127 1122 LINE",
"186 1182 LINE",
"324 1040 LINE",
"393 1102 OFFCURVE",
"479 1133 OFFCURVE",
"584 1133 CURVE SMOOTH",
"687 1133 OFFCURVE",
"774 1102 OFFCURVE",
"844 1040 CURVE",
"981 1182 LINE",
"1040 1122 LINE",
"901 981 LINE",
"961 907 OFFCURVE",
"991 821 OFFCURVE",
"991 723 CURVE SMOOTH"
);
},
{
closed = 1;
nodes = (
"763 395 OFFCURVE",
"907 540 OFFCURVE",
"907 723 CURVE SMOOTH",
"907 904 OFFCURVE",
"761 1053 OFFCURVE",
"584 1053 CURVE SMOOTH",
"405 1053 OFFCURVE",
"260 904 OFFCURVE",
"260 723 CURVE SMOOTH",
"260 542 OFFCURVE",
"404 395 OFFCURVE",
"584 395 CURVE SMOOTH"
);
}
);
width = 1169;
}
);
unicode = 00A4;
},
{
glyphname = yen;
layers = (
{
layerId = "76F3DBC4-34E6-4FAC-BFB3-3E99EC0C3BB0";
name = Light;
paths = (
{
closed = 1;
nodes = (
"586 666 LINE",
"1014 1462 LINE",
"1124 1462 LINE",
"692 674 LINE",
"975 674 LINE",
"975 592 LINE",
"637 592 LINE",
"637 387 LINE",
"975 387 LINE",
"975 305 LINE",
"637 305 LINE",
"637 0 LINE",
"532 0 LINE",
"532 305 LINE",
"195 305 LINE",
"195 387 LINE",
"532 387 LINE",
"532 592 LINE",
"195 592 LINE",
"195 674 LINE",
"473 674 LINE",
"43 1462 LINE",
"160 1462 LINE"
);
}
);
width = 1169;
}
);
unicode = 00A5;
},
{
glyphname = brokenbar;
layers = (
{
layerId = "76F3DBC4-34E6-4FAC-BFB3-3E99EC0C3BB0";
name = Light;
paths = (
{
closed = 1;
nodes = (
"508 1561 LINE",
"600 1561 LINE",
"600 797 LINE",
"508 797 LINE"
);
},
{
closed = 1;
nodes = (
"508 258 LINE",
"600 258 LINE",
"600 -506 LINE",
"508 -506 LINE"
);
}
);
width = 1108;
}
);
unicode = 00A6;
},
{
glyphname = section;
layers = (
{
layerId = "76F3DBC4-34E6-4FAC-BFB3-3E99EC0C3BB0";
name = Light;
paths = (
{
closed = 1;
nodes = (
"145 924 OFFCURVE",
"217 1022 OFFCURVE",
"334 1073 CURVE",
"219 1136 OFFCURVE",
"170 1203 OFFCURVE",
"170 1311 CURVE SMOOTH",
"170 1467 OFFCURVE",
"315 1561 OFFCURVE",
"547 1561 CURVE SMOOTH",
"664 1561 OFFCURVE",
"776 1540 OFFCURVE",
"883 1497 CURVE",
"848 1417 LINE",
"727 1462 OFFCURVE",
"648 1477 OFFCURVE",
"545 1477 CURVE SMOOTH",
"366 1477 OFFCURVE",
"268 1413 OFFCURVE",
"268 1313 CURVE SMOOTH",
"268 1241 OFFCURVE",
"299 1200 OFFCURVE",
"379 1159 CURVE SMOOTH",
"419 1138 OFFCURVE",
"482 1114 OFFCURVE",
"567 1085 CURVE SMOOTH",
"823 1000 OFFCURVE",
"903 918 OFFCURVE",
"903 782 CURVE SMOOTH",
"903 667 OFFCURVE",
"841 575 OFFCURVE",
"717 508 CURVE",
"832 452 OFFCURVE",
"889 385 OFFCURVE",
"889 276 CURVE SMOOTH",
"889 96 OFFCURVE",
"729 -4 OFFCURVE",
"465 -4 CURVE SMOOTH",
"342 -4 OFFCURVE",
"244 14 OFFCURVE",
"129 63 CURVE",
"129 158 LINE",
"250 106 OFFCURVE",
"361 80 OFFCURVE",
"461 80 CURVE SMOOTH",
"677 80 OFFCURVE",
"793 149 OFFCURVE",
"793 270 CURVE SMOOTH",
"793 343 OFFCURVE",
"764 379 OFFCURVE",
"680 423 CURVE SMOOTH",
"637 445 OFFCURVE",
"574 471 OFFCURVE",
"489 502 CURVE SMOOTH",
"222 599 OFFCURVE",
"145 678 OFFCURVE",
"145 813 CURVE SMOOTH"
);
},
{
closed = 1;
nodes = (
"246 738 OFFCURVE",
"284 694 OFFCURVE",
"383 646 CURVE SMOOTH",
"432 622 OFFCURVE",
"516 589 OFFCURVE",
"633 547 CURVE",
"742 602 OFFCURVE",
"803 681 OFFCURVE",
"803 766 CURVE SMOOTH",
"803 849 OFFCURVE",
"765 896 OFFCURVE",
"663 945 CURVE SMOOTH",
"612 970 OFFCURVE",
"533 999 OFFCURVE",
"426 1032 CURVE",
"318 1001 OFFCURVE",
"246 921 OFFCURVE",
"246 825 CURVE SMOOTH"
);
}
);
width = 1057;
}
);
unicode = 00A7;
},
{
glyphname = dieresis;
layers = (
{
layerId = "76F3DBC4-34E6-4FAC-BFB3-3E99EC0C3BB0";
name = Light;
paths = (
{
closed = 1;
nodes = (
"336 1450 OFFCURVE",
"356 1475 OFFCURVE",
"399 1475 CURVE SMOOTH",
"442 1475 OFFCURVE",
"463 1446 OFFCURVE",
"463 1389 CURVE SMOOTH",
"463 1332 OFFCURVE",
"442 1303 OFFCURVE",
"399 1303 CURVE SMOOTH",
"357 1303 OFFCURVE",
"336 1332 OFFCURVE",
"336 1389 CURVE SMOOTH"
);
},
{
closed = 1;
nodes = (
"717 1450 OFFCURVE",
"737 1475 OFFCURVE",
"780 1475 CURVE SMOOTH",
"823 1475 OFFCURVE",
"844 1446 OFFCURVE",
"844 1389 CURVE SMOOTH",
"844 1332 OFFCURVE",
"823 1303 OFFCURVE",
"780 1303 CURVE SMOOTH",
"738 1303 OFFCURVE",
"717 1332 OFFCURVE",
"717 1389 CURVE SMOOTH"
);
}
);
width = 1182;
}
);
unicode = 00A8;
},
{
glyphname = copyright;
layers = (
{
layerId = "76F3DBC4-34E6-4FAC-BFB3-3E99EC0C3BB0";
name = Light;
paths = (
{
closed = 1;
nodes = (
"708 1092 OFFCURVE",
"594 960 OFFCURVE",
"594 733 CURVE SMOOTH",
"594 485 OFFCURVE",
"694 369 OFFCURVE",
"889 369 CURVE SMOOTH",
"945 369 OFFCURVE",
"1011 383 OFFCURVE",
"1087 412 CURVE",
"1087 324 LINE",
"1019 294 OFFCURVE",
"950 279 OFFCURVE",
"879 279 CURVE SMOOTH",
"630 279 OFFCURVE",
"489 437 OFFCURVE",
"489 725 CURVE SMOOTH",
"489 1002 OFFCURVE",
"649 1182 OFFCURVE",
"897 1182 CURVE SMOOTH",
"976 1182 OFFCURVE",
"1052 1165 OFFCURVE",
"1124 1130 CURVE",
"1087 1047 LINE",
"1022 1077 OFFCURVE",
"958 1092 OFFCURVE",
"897 1092 CURVE SMOOTH"
);
},
{
closed = 1;
nodes = (
"100 998 OFFCURVE",
"242 1247 OFFCURVE",
"475 1382 CURVE SMOOTH",
"592 1449 OFFCURVE",
"717 1483 OFFCURVE",
"852 1483 CURVE SMOOTH",
"1119 1483 OFFCURVE",
"1368 1341 OFFCURVE",
"1503 1108 CURVE SMOOTH",
"1570 991 OFFCURVE",
"1604 866 OFFCURVE",
"1604 731 CURVE SMOOTH",
"1604 468 OFFCURVE",
"1468 223 OFFCURVE",
"1235 84 CURVE SMOOTH",
"1118 15 OFFCURVE",
"991 -20 OFFCURVE",
"852 -20 CURVE SMOOTH",
"576 -20 OFFCURVE",
"328 129 OFFCURVE",
"198 360 CURVE SMOOTH",
"133 475 OFFCURVE",
"100 599 OFFCURVE",
"100 731 CURVE SMOOTH"
);
},
{
closed = 1;
nodes = (
"193 494 OFFCURVE",
"319 280 OFFCURVE",
"522 161 CURVE SMOOTH",
"623 102 OFFCURVE",
"733 72 OFFCURVE",
"852 72 CURVE SMOOTH",
"1089 72 OFFCURVE",
"1303 198 OFFCURVE",
"1422 401 CURVE SMOOTH",
"1481 502 OFFCURVE",
"1511 612 OFFCURVE",
"1511 731 CURVE SMOOTH",
"1511 963 OFFCURVE",
"1391 1176 OFFCURVE",
"1187 1299 CURVE SMOOTH",
"1084 1360 OFFCURVE",
"973 1391 OFFCURVE",
"852 1391 CURVE SMOOTH",
"617 1391 OFFCURVE",
"401 1265 OFFCURVE",
"282 1060 CURVE SMOOTH",
"223 957 OFFCURVE",
"193 848 OFFCURVE",
"193 731 CURVE SMOOTH"
);
}
);
width = 1704;
}
);
unicode = 00A9;
},
{
glyphname = ordfeminine;
layers = (
{
layerId = "76F3DBC4-34E6-4FAC-BFB3-3E99EC0C3BB0";
name = Light;
paths = (
{
closed = 1;
nodes = (
"512 813 LINE",
"487 885 LINE",
"431 829 OFFCURVE",
"364 801 OFFCURVE",
"285 801 CURVE SMOOTH",
"158 801 OFFCURVE",
"78 869 OFFCURVE",
"78 989 CURVE SMOOTH",
"78 1122 OFFCURVE",
"184 1189 OFFCURVE",
"399 1200 CURVE SMOOTH",
"494 1204 LINE",
"494 1247 LINE SMOOTH",
"494 1350 OFFCURVE",
"441 1399 OFFCURVE",
"350 1399 CURVE SMOOTH",
"292 1399 OFFCURVE",
"227 1383 OFFCURVE",
"154 1350 CURVE",
"121 1423 LINE",
"199 1460 OFFCURVE",
"276 1479 OFFCURVE",
"352 1479 CURVE SMOOTH",
"504 1479 OFFCURVE",
"580 1407 OFFCURVE",
"580 1264 CURVE SMOOTH",
"580 813 LINE"
);
},
{
closed = 1;
nodes = (
"168 921 OFFCURVE",
"218 877 OFFCURVE",
"299 877 CURVE SMOOTH",
"419 877 OFFCURVE",
"494 946 OFFCURVE",
"494 1069 CURVE SMOOTH",
"494 1133 LINE",
"406 1128 LINE SMOOTH",
"251 1120 OFFCURVE",
"168 1084 OFFCURVE",
"168 993 CURVE SMOOTH"
);
}
);
width = 686;
}
);
unicode = 00AA;
},
{
glyphname = guillemotleft;
layers = (
{
layerId = "76F3DBC4-34E6-4FAC-BFB3-3E99EC0C3BB0";
name = Light;
paths = (
{
closed = 1;
nodes = (
"82 543 LINE",
"391 936 LINE",
"453 893 LINE",
"199 530 LINE",
"453 168 LINE",
"391 125 LINE",
"82 516 LINE"
);
},
{
closed = 1;
nodes = (
"442 543 LINE",
"752 936 LINE",
"813 893 LINE",
"559 530 LINE",
"813 168 LINE",
"752 125 LINE",
"442 516 LINE"
);
}
);
width = 885;
}
);
unicode = 00AB;
},
{
glyphname = logicalnot;
layers = (
{
layerId = "76F3DBC4-34E6-4FAC-BFB3-3E99EC0C3BB0";
name = Light;
paths = (
{
closed = 1;
nodes = (
"1038 764 LINE",
"1038 270 LINE",
"956 270 LINE",
"956 682 LINE",
"111 682 LINE",
"111 764 LINE"
);
}
);
width = 1169;
}
);
unicode = 00AC;
},
{
glyphname = uni00AD;
layers = (
{
layerId = "76F3DBC4-34E6-4FAC-BFB3-3E99EC0C3BB0";
name = Light;
paths = (
{
closed = 1;
nodes = (
"92 512 LINE",
"92 594 LINE",
"567 594 LINE",
"567 512 LINE"
);
}
);
width = 659;
}
);
unicode = 00AD;
},
{
glyphname = registered;
layers = (
{
layerId = "76F3DBC4-34E6-4FAC-BFB3-3E99EC0C3BB0";
name = Light;
paths = (
{
closed = 1;
nodes = (
"709 731 LINE",
"821 731 LINE SMOOTH",
"942 731 OFFCURVE",
"1016 794 OFFCURVE",
"1016 913 CURVE SMOOTH",
"1016 1028 OFFCURVE",
"950 1085 OFFCURVE",
"819 1085 CURVE SMOOTH",
"709 1085 LINE"
);
},
{
closed = 1;
nodes = (
"1120 813 OFFCURVE",
"1067 729 OFFCURVE",
"971 684 CURVE",
"1208 291 LINE",
"1087 291 LINE",
"877 651 LINE",
"709 651 LINE",
"709 291 LINE",
"608 291 LINE",
"608 1171 LINE",
"819 1171 LINE SMOOTH",
"1010 1171 OFFCURVE",
"1120 1090 OFFCURVE",
"1120 918 CURVE SMOOTH"
);
},
{
closed = 1;
nodes = (
"100 998 OFFCURVE",
"242 1247 OFFCURVE",
"475 1382 CURVE SMOOTH",
"592 1449 OFFCURVE",
"717 1483 OFFCURVE",
"852 1483 CURVE SMOOTH",
"1119 1483 OFFCURVE",
"1368 1341 OFFCURVE",
"1503 1108 CURVE SMOOTH",
"1570 991 OFFCURVE",
"1604 866 OFFCURVE",
"1604 731 CURVE SMOOTH",
"1604 468 OFFCURVE",
"1468 223 OFFCURVE",
"1235 84 CURVE SMOOTH",
"1118 15 OFFCURVE",
"991 -20 OFFCURVE",
"852 -20 CURVE SMOOTH",
"576 -20 OFFCURVE",
"328 129 OFFCURVE",
"198 360 CURVE SMOOTH",
"133 475 OFFCURVE",
"100 599 OFFCURVE",
"100 731 CURVE SMOOTH"
);
},
{
closed = 1;
nodes = (
"193 494 OFFCURVE",
"319 280 OFFCURVE",
"522 161 CURVE SMOOTH",
"623 102 OFFCURVE",
"733 72 OFFCURVE",
"852 72 CURVE SMOOTH",
"1089 72 OFFCURVE",
"1303 198 OFFCURVE",
"1422 401 CURVE SMOOTH",
"1481 502 OFFCURVE",
"1511 612 OFFCURVE",
"1511 731 CURVE SMOOTH",
"1511 963 OFFCURVE",
"1391 1176 OFFCURVE",
"1187 1299 CURVE SMOOTH",
"1084 1360 OFFCURVE",
"973 1391 OFFCURVE",
"852 1391 CURVE SMOOTH",
"617 1391 OFFCURVE",
"401 1265 OFFCURVE",
"282 1060 CURVE SMOOTH",
"223 957 OFFCURVE",
"193 848 OFFCURVE",
"193 731 CURVE SMOOTH"
);
}
);
width = 1704;
}
);
unicode = 00AE;
},
{
glyphname = overscore;
layers = (
{
layerId = "76F3DBC4-34E6-4FAC-BFB3-3E99EC0C3BB0";
name = Light;
paths = (
{
closed = 1;
nodes = (
"1030 1556 LINE",
"-6 1556 LINE",
"-6 1638 LINE",
"1030 1638 LINE"
);
}
);
width = 1024;
}
);
unicode = 00AF;
},
{
glyphname = degree;
layers = (
{
layerId = "76F3DBC4-34E6-4FAC-BFB3-3E99EC0C3BB0";
name = Light;
paths = (
{
closed = 1;
nodes = (
"139 1360 OFFCURVE",
"270 1483 OFFCURVE",
"438 1483 CURVE SMOOTH",
"606 1483 OFFCURVE",
"737 1360 OFFCURVE",
"737 1184 CURVE SMOOTH",
"737 1008 OFFCURVE",
"606 885 OFFCURVE",
"438 885 CURVE SMOOTH",
"265 885 OFFCURVE",
"139 1007 OFFCURVE",
"139 1184 CURVE SMOOTH"
);
},
{
closed = 1;
nodes = (
"229 1063 OFFCURVE",
"322 967 OFFCURVE",
"438 967 CURVE SMOOTH",
"553 967 OFFCURVE",
"647 1060 OFFCURVE",
"647 1184 CURVE SMOOTH",
"647 1307 OFFCURVE",
"557 1401 OFFCURVE",
"438 1401 CURVE SMOOTH",
"318 1401 OFFCURVE",
"229 1303 OFFCURVE",
"229 1184 CURVE SMOOTH"
);
}
);
width = 877;
}
);
unicode = 00B0;
},
{
glyphname = plusminus;
layers = (
{
layerId = "76F3DBC4-34E6-4FAC-BFB3-3E99EC0C3BB0";
name = Light;
paths = (
{
closed = 1;
nodes = (
"111 1 LINE",
"111 83 LINE",
"1059 83 LINE",
"1059 1 LINE"
);
},
{
closed = 1;
nodes = (
"625 764 LINE",
"1059 764 LINE",
"1059 682 LINE",
"625 682 LINE",
"625 250 LINE",
"543 250 LINE",
"543 682 LINE",
"111 682 LINE",
"111 764 LINE",
"543 764 LINE",
"543 1198 LINE",
"625 1198 LINE"
);
}
);
width = 1169;
}
);
unicode = 00B1;
},
{
glyphname = twosuperior;
layers = (
{
layerId = "76F3DBC4-34E6-4FAC-BFB3-3E99EC0C3BB0";
name = Light;
paths = (
{
closed = 1;
nodes = (
"629 586 LINE",
"53 586 LINE",
"53 664 LINE",
"295 901 LINE SMOOTH",
"462 1062 OFFCURVE",
"514 1140 OFFCURVE",
"514 1243 CURVE SMOOTH",
"514 1338 OFFCURVE",
"447 1397 OFFCURVE",
"344 1397 CURVE SMOOTH",
"272 1397 OFFCURVE",
"200 1370 OFFCURVE",
"127 1315 CURVE",
"78 1380 LINE",
"157 1449 OFFCURVE",
"247 1483 OFFCURVE",
"348 1483 CURVE SMOOTH",
"513 1483 OFFCURVE",
"612 1393 OFFCURVE",
"612 1245 CURVE SMOOTH",
"612 1182 OFFCURVE",
"595 1129 OFFCURVE",
"559 1071 CURVE SMOOTH",
"541 1042 OFFCURVE",
"518 1012 OFFCURVE",
"491 981 CURVE SMOOTH",
"463 950 OFFCURVE",
"360 847 OFFCURVE",
"182 674 CURVE",
"629 674 LINE"
);
}
);
width = 688;
}
);
unicode = 00B2;
},
{
glyphname = threesuperior;
layers = (
{
layerId = "76F3DBC4-34E6-4FAC-BFB3-3E99EC0C3BB0";
name = Light;
paths = (
{
closed = 1;
nodes = (
"616 1156 OFFCURVE",
"552 1082 OFFCURVE",
"455 1053 CURVE",
"579 1023 OFFCURVE",
"641 953 OFFCURVE",
"641 842 CURVE SMOOTH",
"641 669 OFFCURVE",
"517 569 OFFCURVE",
"305 569 CURVE SMOOTH",
"209 569 OFFCURVE",
"121 589 OFFCURVE",
"41 629 CURVE",
"41 717 LINE",
"132 676 OFFCURVE",
"220 655 OFFCURVE",
"307 655 CURVE SMOOTH",
"460 655 OFFCURVE",
"541 724 OFFCURVE",
"541 840 CURVE SMOOTH",
"541 951 OFFCURVE",
"462 1001 OFFCURVE",
"303 1001 CURVE SMOOTH",
"172 1001 LINE",
"172 1085 LINE",
"307 1085 LINE SMOOTH",
"447 1085 OFFCURVE",
"518 1146 OFFCURVE",
"518 1249 CURVE SMOOTH",
"518 1338 OFFCURVE",
"451 1397 OFFCURVE",
"344 1397 CURVE SMOOTH",
"259 1397 OFFCURVE",
"177 1371 OFFCURVE",
"98 1319 CURVE",
"51 1389 LINE",
"138 1452 OFFCURVE",
"235 1483 OFFCURVE",
"344 1483 CURVE SMOOTH",
"513 1483 OFFCURVE",
"616 1397 OFFCURVE",
"616 1260 CURVE SMOOTH"
);
}
);
width = 688;
}
);
unicode = 00B3;
},
{
glyphname = acute;
layers = (
{
layerId = "76F3DBC4-34E6-4FAC-BFB3-3E99EC0C3BB0";
name = Light;
paths = (
{
closed = 1;
nodes = (
"393 1257 LINE",
"490 1362 OFFCURVE",
"600 1505 OFFCURVE",
"635 1569 CURVE",
"776 1569 LINE",
"776 1552 LINE",
"728 1483 OFFCURVE",
"602 1357 OFFCURVE",
"463 1241 CURVE",
"393 1241 LINE"
);
}
);
width = 1182;
}
);
unicode = 00B4;
},
{
glyphname = mu;
layers = (
{
layerId = "76F3DBC4-34E6-4FAC-BFB3-3E99EC0C3BB0";
name = Light;
paths = (
{
closed = 1;
nodes = (
"281 1087 LINE",
"281 383 LINE SMOOTH",
"281 164 OFFCURVE",
"371 70 OFFCURVE",
"563 70 CURVE SMOOTH",
"822 70 OFFCURVE",
"940 192 OFFCURVE",
"940 487 CURVE SMOOTH",
"940 1087 LINE",
"1038 1087 LINE",
"1038 0 LINE",
"954 0 LINE",
"936 150 LINE",
"930 150 LINE",
"863 47 OFFCURVE",
"719 -20 OFFCURVE",
"563 -20 CURVE SMOOTH",
"431 -20 OFFCURVE",
"344 16 OFFCURVE",
"276 92 CURVE",
"279 31 OFFCURVE",
"281 -26 OFFCURVE",
"281 -78 CURVE SMOOTH",
"281 -492 LINE",
"182 -492 LINE",
"182 1087 LINE"
);
}
);
width = 1221;
}
);
unicode = 00B5;
},
{
glyphname = paragraph;
layers = (
{
layerId = "76F3DBC4-34E6-4FAC-BFB3-3E99EC0C3BB0";
name = Light;
paths = (
{
closed = 1;
nodes = (
"1106 -260 LINE",
"1006 -260 LINE",
"1006 1462 LINE",
"778 1462 LINE",
"778 -260 LINE",
"678 -260 LINE",
"678 559 LINE",
"635 547 OFFCURVE",
"587 541 OFFCURVE",
"532 541 CURVE SMOOTH",
"244 541 OFFCURVE",
"113 707 OFFCURVE",
"113 1042 CURVE SMOOTH",
"113 1389 OFFCURVE",
"254 1556 OFFCURVE",
"563 1556 CURVE SMOOTH",
"1106 1556 LINE"
);
}
);
width = 1341;
}
);
unicode = 00B6;
},
{
glyphname = periodcentered;
layers = (
{
layerId = "76F3DBC4-34E6-4FAC-BFB3-3E99EC0C3BB0";
name = Light;
paths = (
{
closed = 1;
nodes = (
"162 786 OFFCURVE",
"189 819 OFFCURVE",
"242 819 CURVE SMOOTH",
"297 819 OFFCURVE",
"324 786 OFFCURVE",
"324 721 CURVE SMOOTH",
"324 656 OFFCURVE",
"297 623 OFFCURVE",
"242 623 CURVE SMOOTH",
"189 623 OFFCURVE",
"162 656 OFFCURVE",
"162 721 CURVE SMOOTH"
);
}
);
width = 487;
}
);
unicode = 00B7;
},
{
glyphname = cedilla;
layers = (
{
layerId = "76F3DBC4-34E6-4FAC-BFB3-3E99EC0C3BB0";
name = Light;
paths = (
{
closed = 1;
nodes = (
"393 -424 OFFCURVE",
"298 -492 OFFCURVE",
"137 -492 CURVE SMOOTH",
"92 -492 OFFCURVE",
"60 -488 OFFCURVE",
"43 -481 CURVE",
"43 -393 LINE",
"63 -400 OFFCURVE",
"94 -403 OFFCURVE",
"135 -403 CURVE SMOOTH",
"239 -403 OFFCURVE",
"295 -364 OFFCURVE",
"295 -295 CURVE SMOOTH",
"295 -232 OFFCURVE",
"231 -192 OFFCURVE",
"102 -174 CURVE",
"195 0 LINE",
"291 0 LINE",
"225 -117 LINE",
"337 -142 OFFCURVE",
"393 -200 OFFCURVE",
"393 -291 CURVE SMOOTH"
);
}
);
width = 420;
}
);
unicode = 00B8;
},
{
glyphname = onesuperior;
layers = (
{
layerId = "76F3DBC4-34E6-4FAC-BFB3-3E99EC0C3BB0";
name = Light;
paths = (
{
closed = 1;
nodes = (
"350 1462 LINE",
"442 1462 LINE",
"442 586 LINE",
"344 586 LINE",
"344 1133 LINE SMOOTH",
"344 1199 OFFCURVE",
"348 1277 OFFCURVE",
"356 1366 CURVE",
"339 1351 OFFCURVE",
"261 1302 OFFCURVE",
"123 1221 CURVE",
"76 1298 LINE"
);
}
);
width = 688;
}
);
unicode = 00B9;
},
{
glyphname = ordmasculine;
layers = (
{
layerId = "76F3DBC4-34E6-4FAC-BFB3-3E99EC0C3BB0";
name = Light;
paths = (
{
closed = 1;
nodes = (
"670 926 OFFCURVE",
"558 801 OFFCURVE",
"367 801 CURVE SMOOTH",
"176 801 OFFCURVE",
"70 917 OFFCURVE",
"70 1141 CURVE SMOOTH",
"70 1357 OFFCURVE",
"178 1479 OFFCURVE",
"371 1479 CURVE SMOOTH",
"560 1479 OFFCURVE",
"670 1360 OFFCURVE",
"670 1141 CURVE SMOOTH"
);
},
{
closed = 1;
nodes = (
"160 965 OFFCURVE",
"230 877 OFFCURVE",
"369 877 CURVE SMOOTH",
"508 877 OFFCURVE",
"578 965 OFFCURVE",
"578 1141 CURVE SMOOTH",
"578 1316 OFFCURVE",
"514 1399 OFFCURVE",
"369 1399 CURVE SMOOTH",
"224 1399 OFFCURVE",
"160 1316 OFFCURVE",
"160 1141 CURVE SMOOTH"
);
}
);
width = 739;
}
);
unicode = 00BA;
},
{
glyphname = guillemotright;
layers = (
{
layerId = "76F3DBC4-34E6-4FAC-BFB3-3E99EC0C3BB0";
name = Light;
paths = (
{
closed = 1;
nodes = (
"803 518 LINE",
"494 125 LINE",
"432 168 LINE",
"686 530 LINE",
"432 893 LINE",
"494 936 LINE",
"803 545 LINE"
);
},
{
closed = 1;
nodes = (
"442 518 LINE",
"133 125 LINE",
"72 168 LINE",
"326 530 LINE",
"72 893 LINE",
"133 936 LINE",
"442 545 LINE"
);
}
);
width = 885;
}
);
unicode = 00BB;
},
{
glyphname = onequarter;
layers = (
{
layerId = "76F3DBC4-34E6-4FAC-BFB3-3E99EC0C3BB0";
name = Light;
paths = (
{
closed = 1;
nodes = (
"333 1462 LINE",
"425 1462 LINE",
"425 586 LINE",
"327 586 LINE",
"327 1133 LINE SMOOTH",
"327 1199 OFFCURVE",
"331 1277 OFFCURVE",
"339 1366 CURVE",
"322 1351 OFFCURVE",
"244 1302 OFFCURVE",
"106 1221 CURVE",
"59 1298 LINE"
);
},
{
closed = 1;
nodes = (
"1148 1462 LINE",
"337 0 LINE",
"243 0 LINE",
"1054 1462 LINE"
);
},
{
closed = 1;
nodes = (
"1392 242 LINE",
"1263 242 LINE",
"1263 1 LINE",
"1173 1 LINE",
"1173 242 LINE",
"760 242 LINE",
"760 302 LINE",
"1167 883 LINE",
"1263 883 LINE",
"1263 320 LINE",
"1392 320 LINE"
);
},
{
closed = 1;
nodes = (
"1173 320 LINE",
"1173 541 LINE SMOOTH",
"1173 629 OFFCURVE",
"1176 706 OFFCURVE",
"1181 773 CURVE",
"1177 765 OFFCURVE",
"1170 753 OFFCURVE",
"1160 738 CURVE SMOOTH",
"1149 722 OFFCURVE",
"1051 583 OFFCURVE",
"864 320 CURVE"
);
}
);
width = 1516;
}
);
unicode = 00BC;
},
{
glyphname = onehalf;
layers = (
{
layerId = "76F3DBC4-34E6-4FAC-BFB3-3E99EC0C3BB0";
name = Light;
paths = (
{
closed = 1;
nodes = (
"285 1462 LINE",
"377 1462 LINE",
"377 586 LINE",
"279 586 LINE",
"279 1133 LINE SMOOTH",
"279 1199 OFFCURVE",
"283 1277 OFFCURVE",
"291 1366 CURVE",
"274 1351 OFFCURVE",
"196 1302 OFFCURVE",
"58 1221 CURVE",
"11 1298 LINE"
);
},
{
closed = 1;
nodes = (
"1073 1462 LINE",
"262 0 LINE",
"168 0 LINE",
"979 1462 LINE"
);
},
{
closed = 1;
nodes = (
"1403 1 LINE",
"827 1 LINE",
"827 79 LINE",
"1069 316 LINE SMOOTH",
"1236 477 OFFCURVE",
"1288 555 OFFCURVE",
"1288 658 CURVE SMOOTH",
"1288 753 OFFCURVE",
"1221 812 OFFCURVE",
"1118 812 CURVE SMOOTH",
"1046 812 OFFCURVE",
"974 785 OFFCURVE",
"901 730 CURVE",
"852 795 LINE",
"931 864 OFFCURVE",
"1021 898 OFFCURVE",
"1122 898 CURVE SMOOTH",
"1287 898 OFFCURVE",
"1386 808 OFFCURVE",
"1386 660 CURVE SMOOTH",
"1386 597 OFFCURVE",
"1369 544 OFFCURVE",
"1333 486 CURVE SMOOTH",
"1315 457 OFFCURVE",
"1292 427 OFFCURVE",
"1265 396 CURVE SMOOTH",
"1237 365 OFFCURVE",
"1134 262 OFFCURVE",
"956 89 CURVE",
"1403 89 LINE"
);
}
);
width = 1516;
}
);
unicode = 00BD;
},
{
glyphname = threequarters;
layers = (
{
layerId = "76F3DBC4-34E6-4FAC-BFB3-3E99EC0C3BB0";
name = Light;
paths = (
{
closed = 1;
nodes = (
"616 1156 OFFCURVE",
"552 1082 OFFCURVE",
"455 1053 CURVE",
"579 1023 OFFCURVE",
"641 953 OFFCURVE",
"641 842 CURVE SMOOTH",
"641 669 OFFCURVE",
"517 569 OFFCURVE",
"305 569 CURVE SMOOTH",
"209 569 OFFCURVE",
"121 589 OFFCURVE",
"41 629 CURVE",
"41 717 LINE",
"132 676 OFFCURVE",
"220 655 OFFCURVE",
"307 655 CURVE SMOOTH",
"460 655 OFFCURVE",
"541 724 OFFCURVE",
"541 840 CURVE SMOOTH",
"541 951 OFFCURVE",
"462 1001 OFFCURVE",
"303 1001 CURVE SMOOTH",
"172 1001 LINE",
"172 1085 LINE",
"307 1085 LINE SMOOTH",
"447 1085 OFFCURVE",
"518 1146 OFFCURVE",
"518 1249 CURVE SMOOTH",
"518 1338 OFFCURVE",
"451 1397 OFFCURVE",
"344 1397 CURVE SMOOTH",
"259 1397 OFFCURVE",
"177 1371 OFFCURVE",
"98 1319 CURVE",
"51 1389 LINE",
"138 1452 OFFCURVE",
"235 1483 OFFCURVE",
"344 1483 CURVE SMOOTH",
"513 1483 OFFCURVE",
"616 1397 OFFCURVE",
"616 1260 CURVE SMOOTH"
);
},
{
closed = 1;
nodes = (
"1300 1462 LINE",
"489 0 LINE",
"395 0 LINE",
"1206 1462 LINE"
);
},
{
closed = 1;
nodes = (
"1495 242 LINE",
"1366 242 LINE",
"1366 1 LINE",
"1276 1 LINE",
"1276 242 LINE",
"863 242 LINE",
"863 302 LINE",
"1270 883 LINE",
"1366 883 LINE",
"1366 320 LINE",
"1495 320 LINE"
);
},
{
closed = 1;
nodes = (
"1276 320 LINE",
"1276 541 LINE SMOOTH",
"1276 629 OFFCURVE",
"1279 706 OFFCURVE",
"1284 773 CURVE",
"1280 765 OFFCURVE",
"1273 753 OFFCURVE",
"1263 738 CURVE SMOOTH",
"1252 722 OFFCURVE",
"1154 583 OFFCURVE",
"967 320 CURVE"
);
}
);
width = 1516;
}
);
unicode = 00BE;
},
{
glyphname = questiondown;
layers = (
{
layerId = "76F3DBC4-34E6-4FAC-BFB3-3E99EC0C3BB0";
name = Light;
paths = (
{
closed = 1;
nodes = (
"569 711 LINE",
"569 674 LINE SMOOTH",
"569 507 OFFCURVE",
"522 418 OFFCURVE",
"393 305 CURVE SMOOTH",
"303 226 LINE SMOOTH",
"206 145 OFFCURVE",
"168 72 OFFCURVE",
"168 -33 CURVE SMOOTH",
"168 -198 OFFCURVE",
"286 -309 OFFCURVE",
"471 -309 CURVE SMOOTH",
"554 -309 OFFCURVE",
"632 -294 OFFCURVE",
"704 -263 CURVE SMOOTH",
"768 -236 LINE",
"805 -315 LINE",
"657 -379 OFFCURVE",
"571 -395 OFFCURVE",
"467 -395 CURVE SMOOTH",
"222 -395 OFFCURVE",
"74 -254 OFFCURVE",
"74 -27 CURVE SMOOTH",
"74 66 OFFCURVE",
"101 135 OFFCURVE",
"153 199 CURVE SMOOTH",
"178 231 OFFCURVE",
"235 284 OFFCURVE",
"324 358 CURVE SMOOTH",
"409 429 OFFCURVE",
"452 486 OFFCURVE",
"472 551 CURVE SMOOTH",
"482 583 OFFCURVE",
"487 631 OFFCURVE",
"487 696 CURVE SMOOTH",
"487 711 LINE"
);
},
{
closed = 1;
nodes = (
"440 1075 OFFCURVE",
"467 1108 OFFCURVE",
"520 1108 CURVE SMOOTH",
"575 1108 OFFCURVE",
"602 1075 OFFCURVE",
"602 1010 CURVE SMOOTH",
"602 939 OFFCURVE",
"567 911 OFFCURVE",
"520 911 CURVE SMOOTH",
"475 911 OFFCURVE",
"440 939 OFFCURVE",
"440 1010 CURVE SMOOTH"
);
}
);
width = 862;
}
);
unicode = 00BF;
},
{
glyphname = Agrave;
layers = (
{
layerId = "76F3DBC4-34E6-4FAC-BFB3-3E99EC0C3BB0";
name = Light;
paths = (
{
closed = 1;
nodes = (
"911 516 LINE",
"317 516 LINE",
"113 0 LINE",
"0 0 LINE",
"588 1468 LINE",
"653 1468 LINE",
"1229 0 LINE",
"1114 0 LINE"
);
},
{
closed = 1;
nodes = (
"354 608 LINE",
"877 608 LINE",
"678 1135 LINE SMOOTH",
"661 1176 OFFCURVE",
"641 1234 OFFCURVE",
"618 1307 CURVE",
"600 1243 OFFCURVE",
"580 1185 OFFCURVE",
"559 1133 CURVE SMOOTH"
);
},
{
closed = 1;
nodes = (
"720 1579 LINE",
"651 1579 LINE",
"523 1684 OFFCURVE",
"381 1827 OFFCURVE",
"337 1890 CURVE",
"337 1907 LINE",
"479 1907 LINE",
"514 1843 OFFCURVE",
"627 1696 OFFCURVE",
"720 1595 CURVE"
);
}
);
width = 1229;
}
);
unicode = 00C0;
},
{
glyphname = Aacute;
layers = (
{
layerId = "76F3DBC4-34E6-4FAC-BFB3-3E99EC0C3BB0";
name = Light;
paths = (
{
closed = 1;
nodes = (
"911 516 LINE",
"317 516 LINE",
"113 0 LINE",
"0 0 LINE",
"588 1468 LINE",
"653 1468 LINE",
"1229 0 LINE",
"1114 0 LINE"
);
},
{
closed = 1;
nodes = (
"354 608 LINE",
"877 608 LINE",
"678 1135 LINE SMOOTH",
"661 1176 OFFCURVE",
"641 1234 OFFCURVE",
"618 1307 CURVE",
"600 1243 OFFCURVE",
"580 1185 OFFCURVE",
"559 1133 CURVE SMOOTH"
);
},
{
closed = 1;
nodes = (
"504 1595 LINE",
"601 1700 OFFCURVE",
"711 1843 OFFCURVE",
"746 1907 CURVE",
"887 1907 LINE",
"887 1890 LINE",
"839 1821 OFFCURVE",
"713 1695 OFFCURVE",
"574 1579 CURVE",
"504 1579 LINE"
);
}
);
width = 1229;
}
);
unicode = 00C1;
},
{
glyphname = Acircumflex;
layers = (
{
layerId = "76F3DBC4-34E6-4FAC-BFB3-3E99EC0C3BB0";
name = Light;
paths = (
{
closed = 1;
nodes = (
"911 516 LINE",
"317 516 LINE",
"113 0 LINE",
"0 0 LINE",
"588 1468 LINE",
"653 1468 LINE",
"1229 0 LINE",
"1114 0 LINE"
);
},
{
closed = 1;
nodes = (
"354 608 LINE",
"877 608 LINE",
"678 1135 LINE SMOOTH",
"661 1176 OFFCURVE",
"641 1234 OFFCURVE",
"618 1307 CURVE",
"600 1243 OFFCURVE",
"580 1185 OFFCURVE",
"559 1133 CURVE SMOOTH"
);
},
{
closed = 1;
nodes = (
"328 1595 LINE",
"411 1684 OFFCURVE",
"515 1818 OFFCURVE",
"570 1907 CURVE",
"668 1907 LINE",
"713 1827 OFFCURVE",
"794 1723 OFFCURVE",
"910 1595 CURVE",
"910 1579 LINE",
"840 1579 LINE",
"759 1646 OFFCURVE",
"685 1715 OFFCURVE",
"619 1786 CURVE",
"547 1710 OFFCURVE",
"473 1641 OFFCURVE",
"398 1579 CURVE",
"328 1579 LINE"
);
}
);
width = 1229;
}
);
unicode = 00C2;
},
{
glyphname = Atilde;
layers = (
{
layerId = "76F3DBC4-34E6-4FAC-BFB3-3E99EC0C3BB0";
name = Light;
paths = (
{
closed = 1;
nodes = (
"911 516 LINE",
"317 516 LINE",
"113 0 LINE",
"0 0 LINE",
"588 1468 LINE",
"653 1468 LINE",
"1229 0 LINE",
"1114 0 LINE"
);
},
{
closed = 1;
nodes = (
"354 608 LINE",
"877 608 LINE",
"678 1135 LINE SMOOTH",
"661 1176 OFFCURVE",
"641 1234 OFFCURVE",
"618 1307 CURVE",
"600 1243 OFFCURVE",
"580 1185 OFFCURVE",
"559 1133 CURVE SMOOTH"
);
},
{
closed = 1;
nodes = (
"736 1581 OFFCURVE",
"691 1600 OFFCURVE",
"608 1671 CURVE SMOOTH",
"565 1706 OFFCURVE",
"526 1737 OFFCURVE",
"483 1737 CURVE SMOOTH",
"423 1737 OFFCURVE",
"384 1697 OFFCURVE",
"360 1581 CURVE",
"287 1581 LINE",
"300 1729 OFFCURVE",
"375 1819 OFFCURVE",
"487 1819 CURVE SMOOTH",
"551 1819 OFFCURVE",
"601 1780 OFFCURVE",
"657 1735 CURVE SMOOTH",
"702 1698 OFFCURVE",
"745 1663 OFFCURVE",
"784 1663 CURVE SMOOTH",
"845 1663 OFFCURVE",
"886 1708 OFFCURVE",
"909 1819 CURVE",
"985 1819 LINE",
"964 1664 OFFCURVE",
"889 1581 OFFCURVE",
"784 1581 CURVE SMOOTH"
);
}
);
width = 1229;
}
);
unicode = 00C3;
},
{
glyphname = Adieresis;
layers = (
{
layerId = "76F3DBC4-34E6-4FAC-BFB3-3E99EC0C3BB0";
name = Light;
paths = (
{
closed = 1;
nodes = (
"911 516 LINE",
"317 516 LINE",
"113 0 LINE",
"0 0 LINE",
"588 1468 LINE",
"653 1468 LINE",
"1229 0 LINE",
"1114 0 LINE"
);
},
{
closed = 1;
nodes = (
"354 608 LINE",
"877 608 LINE",
"678 1135 LINE SMOOTH",
"661 1176 OFFCURVE",
"641 1234 OFFCURVE",
"618 1307 CURVE",
"600 1243 OFFCURVE",
"580 1185 OFFCURVE",
"559 1133 CURVE SMOOTH"
);
},
{
closed = 1;
nodes = (
"367 1788 OFFCURVE",
"387 1813 OFFCURVE",
"430 1813 CURVE SMOOTH",
"473 1813 OFFCURVE",
"494 1784 OFFCURVE",
"494 1727 CURVE SMOOTH",
"494 1670 OFFCURVE",
"473 1641 OFFCURVE",
"430 1641 CURVE SMOOTH",
"388 1641 OFFCURVE",
"367 1670 OFFCURVE",
"367 1727 CURVE SMOOTH"
);
},
{
closed = 1;
nodes = (
"748 1788 OFFCURVE",
"768 1813 OFFCURVE",
"811 1813 CURVE SMOOTH",
"854 1813 OFFCURVE",
"875 1784 OFFCURVE",
"875 1727 CURVE SMOOTH",
"875 1670 OFFCURVE",
"854 1641 OFFCURVE",
"811 1641 CURVE SMOOTH",
"769 1641 OFFCURVE",
"748 1670 OFFCURVE",
"748 1727 CURVE SMOOTH"
);
}
);
width = 1229;
}
);
unicode = 00C4;
},
{
glyphname = Aring;
layers = (
{
layerId = "76F3DBC4-34E6-4FAC-BFB3-3E99EC0C3BB0";
name = Light;
paths = (
{
closed = 1;
nodes = (
"911 516 LINE",
"317 516 LINE",
"113 0 LINE",
"0 0 LINE",
"588 1468 LINE",
"653 1468 LINE",
"1229 0 LINE",
"1114 0 LINE"
);
},
{
closed = 1;
nodes = (
"354 608 LINE",
"877 608 LINE",
"678 1135 LINE SMOOTH",
"661 1176 OFFCURVE",
"641 1234 OFFCURVE",
"618 1307 CURVE",
"600 1243 OFFCURVE",
"580 1185 OFFCURVE",
"559 1133 CURVE SMOOTH"
);
},
{
closed = 1;
nodes = (
"836 1481 OFFCURVE",
"748 1397 OFFCURVE",
"619 1397 CURVE SMOOTH",
"490 1397 OFFCURVE",
"402 1481 OFFCURVE",
"402 1610 CURVE SMOOTH",
"402 1735 OFFCURVE",
"490 1821 OFFCURVE",
"619 1821 CURVE SMOOTH",
"748 1821 OFFCURVE",
"836 1734 OFFCURVE",
"836 1610 CURVE SMOOTH"
);
},
{
closed = 1;
nodes = (
"482 1522 OFFCURVE",
"536 1469 OFFCURVE",
"619 1469 CURVE SMOOTH",
"702 1469 OFFCURVE",
"756 1522 OFFCURVE",
"756 1610 CURVE SMOOTH",
"756 1695 OFFCURVE",
"698 1749 OFFCURVE",
"619 1749 CURVE SMOOTH",
"536 1749 OFFCURVE",
"482 1694 OFFCURVE",
"482 1610 CURVE SMOOTH"
);
}
);
width = 1229;
}
);
unicode = 00C5;
},
{
glyphname = AE;
layers = (
{
layerId = "76F3DBC4-34E6-4FAC-BFB3-3E99EC0C3BB0";
name = Light;
paths = (
{
closed = 1;
nodes = (
"1528 0 LINE",
"811 0 LINE",
"811 516 LINE",
"336 516 LINE",
"109 0 LINE",
"-2 0 LINE",
"651 1462 LINE",
"1528 1462 LINE",
"1528 1368 LINE",
"913 1368 LINE",
"913 815 LINE",
"1489 815 LINE",
"1489 721 LINE",
"913 721 LINE",
"913 94 LINE",
"1528 94 LINE"
);
},
{
closed = 1;
nodes = (
"377 608 LINE",
"811 608 LINE",
"811 1368 LINE",
"711 1368 LINE"
);
}
);
width = 1653;
}
);
unicode = 00C6;
},
{
glyphname = Ccedilla;
layers = (
{
layerId = "76F3DBC4-34E6-4FAC-BFB3-3E99EC0C3BB0";
name = Light;
paths = (
{
closed = 1;
nodes = (
"464 1391 OFFCURVE",
"240 1141 OFFCURVE",
"240 733 CURVE SMOOTH",
"240 316 OFFCURVE",
"446 74 OFFCURVE",
"815 74 CURVE SMOOTH",
"938 74 OFFCURVE",
"1050 90 OFFCURVE",
"1153 121 CURVE",
"1153 31 LINE",
"1056 -3 OFFCURVE",
"936 -20 OFFCURVE",
"791 -20 CURVE SMOOTH",
"380 -20 OFFCURVE",
"129 259 OFFCURVE",
"129 735 CURVE SMOOTH",
"129 1032 OFFCURVE",
"245 1267 OFFCURVE",
"457 1391 CURVE SMOOTH",
"562 1452 OFFCURVE",
"685 1483 OFFCURVE",
"825 1483 CURVE SMOOTH",
"968 1483 OFFCURVE",
"1095 1456 OFFCURVE",
"1208 1403 CURVE",
"1167 1311 LINE",
"1060 1364 OFFCURVE",
"948 1391 OFFCURVE",
"831 1391 CURVE SMOOTH"
);
},
{
closed = 1;
nodes = (
"911 -424 OFFCURVE",
"816 -492 OFFCURVE",
"655 -492 CURVE SMOOTH",
"610 -492 OFFCURVE",
"578 -488 OFFCURVE",
"561 -481 CURVE",
"561 -393 LINE",
"581 -400 OFFCURVE",
"612 -403 OFFCURVE",
"653 -403 CURVE SMOOTH",
"757 -403 OFFCURVE",
"813 -364 OFFCURVE",
"813 -295 CURVE SMOOTH",
"813 -232 OFFCURVE",
"749 -192 OFFCURVE",
"620 -174 CURVE",
"713 0 LINE",
"809 0 LINE",
"743 -117 LINE",
"855 -142 OFFCURVE",
"911 -200 OFFCURVE",
"911 -291 CURVE SMOOTH"
);
}
);
width = 1272;
}
);
unicode = 00C7;
},
{
glyphname = Egrave;
layers = (
{
layerId = "76F3DBC4-34E6-4FAC-BFB3-3E99EC0C3BB0";
name = Light;
paths = (
{
closed = 1;
nodes = (
"1006 0 LINE",
"207 0 LINE",
"207 1462 LINE",
"1006 1462 LINE",
"1006 1368 LINE",
"309 1368 LINE",
"309 815 LINE",
"967 815 LINE",
"967 721 LINE",
"309 721 LINE",
"309 94 LINE",
"1006 94 LINE"
);
},
{
closed = 1;
nodes = (
"697 1579 LINE",
"628 1579 LINE",
"500 1684 OFFCURVE",
"358 1827 OFFCURVE",
"314 1890 CURVE",
"314 1907 LINE",
"456 1907 LINE",
"491 1843 OFFCURVE",
"604 1696 OFFCURVE",
"697 1595 CURVE"
);
}
);
width = 1130;
}
);
unicode = 00C8;
},
{
glyphname = Eacute;
layers = (
{
layerId = "76F3DBC4-34E6-4FAC-BFB3-3E99EC0C3BB0";
name = Light;
paths = (
{
closed = 1;
nodes = (
"1006 0 LINE",
"207 0 LINE",
"207 1462 LINE",
"1006 1462 LINE",
"1006 1368 LINE",
"309 1368 LINE",
"309 815 LINE",
"967 815 LINE",
"967 721 LINE",
"309 721 LINE",
"309 94 LINE",
"1006 94 LINE"
);
},
{
closed = 1;
nodes = (
"463 1595 LINE",
"560 1700 OFFCURVE",
"670 1843 OFFCURVE",
"705 1907 CURVE",
"846 1907 LINE",
"846 1890 LINE",
"798 1821 OFFCURVE",
"672 1695 OFFCURVE",
"533 1579 CURVE",
"463 1579 LINE"
);
}
);
width = 1130;
}
);
unicode = 00C9;
},
{
glyphname = Ecircumflex;
layers = (
{
layerId = "76F3DBC4-34E6-4FAC-BFB3-3E99EC0C3BB0";
name = Light;
paths = (
{
closed = 1;
nodes = (
"1006 0 LINE",
"207 0 LINE",
"207 1462 LINE",
"1006 1462 LINE",
"1006 1368 LINE",
"309 1368 LINE",
"309 815 LINE",
"967 815 LINE",
"967 721 LINE",
"309 721 LINE",
"309 94 LINE",
"1006 94 LINE"
);
},
{
closed = 1;
nodes = (
"315 1595 LINE",
"398 1684 OFFCURVE",
"502 1818 OFFCURVE",
"557 1907 CURVE",
"655 1907 LINE",
"700 1827 OFFCURVE",
"781 1723 OFFCURVE",
"897 1595 CURVE",
"897 1579 LINE",
"827 1579 LINE",
"746 1646 OFFCURVE",
"672 1715 OFFCURVE",
"606 1786 CURVE",
"534 1710 OFFCURVE",
"460 1641 OFFCURVE",
"385 1579 CURVE",
"315 1579 LINE"
);
}
);
width = 1130;
}
);
unicode = 00CA;
},
{
glyphname = Edieresis;
layers = (
{
layerId = "76F3DBC4-34E6-4FAC-BFB3-3E99EC0C3BB0";
name = Light;
paths = (
{
closed = 1;
nodes = (
"1006 0 LINE",
"207 0 LINE",
"207 1462 LINE",
"1006 1462 LINE",
"1006 1368 LINE",
"309 1368 LINE",
"309 815 LINE",
"967 815 LINE",
"967 721 LINE",
"309 721 LINE",
"309 94 LINE",
"1006 94 LINE"
);
},
{
closed = 1;
nodes = (
"354 1788 OFFCURVE",
"374 1813 OFFCURVE",
"417 1813 CURVE SMOOTH",
"460 1813 OFFCURVE",
"481 1784 OFFCURVE",
"481 1727 CURVE SMOOTH",
"481 1670 OFFCURVE",
"460 1641 OFFCURVE",
"417 1641 CURVE SMOOTH",
"375 1641 OFFCURVE",
"354 1670 OFFCURVE",
"354 1727 CURVE SMOOTH"
);
},
{
closed = 1;
nodes = (
"735 1788 OFFCURVE",
"755 1813 OFFCURVE",
"798 1813 CURVE SMOOTH",
"841 1813 OFFCURVE",
"862 1784 OFFCURVE",
"862 1727 CURVE SMOOTH",
"862 1670 OFFCURVE",
"841 1641 OFFCURVE",
"798 1641 CURVE SMOOTH",
"756 1641 OFFCURVE",
"735 1670 OFFCURVE",
"735 1727 CURVE SMOOTH"
);
}
);
width = 1130;
}
);
unicode = 00CB;
},
{
glyphname = Igrave.alt;
layers = (
{
layerId = "76F3DBC4-34E6-4FAC-BFB3-3E99EC0C3BB0";
name = Light;
paths = (
{
closed = 1;
nodes = (
"532 0 LINE",
"90 0 LINE",
"90 66 LINE",
"260 86 LINE",
"260 1376 LINE",
"90 1397 LINE",
"90 1462 LINE",
"532 1462 LINE",
"532 1397 LINE",
"362 1376 LINE",
"362 86 LINE",
"532 66 LINE"
);
},
{
closed = 1;
nodes = (
"435 1579 LINE",
"366 1579 LINE",
"238 1684 OFFCURVE",
"96 1827 OFFCURVE",
"52 1890 CURVE",
"52 1907 LINE",
"194 1907 LINE",
"229 1843 OFFCURVE",
"342 1696 OFFCURVE",
"435 1595 CURVE"
);
}
);
width = 623;
}
);
},
{
glyphname = Iacute.alt;
layers = (
{
layerId = "76F3DBC4-34E6-4FAC-BFB3-3E99EC0C3BB0";
name = Light;
paths = (
{
closed = 1;
nodes = (
"532 0 LINE",
"90 0 LINE",
"90 66 LINE",
"260 86 LINE",
"260 1376 LINE",
"90 1397 LINE",
"90 1462 LINE",
"532 1462 LINE",
"532 1397 LINE",
"362 1376 LINE",
"362 86 LINE",
"532 66 LINE"
);
},
{
closed = 1;
nodes = (
"224 1595 LINE",
"321 1700 OFFCURVE",
"431 1843 OFFCURVE",
"466 1907 CURVE",
"607 1907 LINE",
"607 1890 LINE",
"559 1821 OFFCURVE",
"433 1695 OFFCURVE",
"294 1579 CURVE",
"224 1579 LINE"
);
}
);
width = 623;
}
);
},
{
glyphname = Icircumflex.alt;
layers = (
{
layerId = "76F3DBC4-34E6-4FAC-BFB3-3E99EC0C3BB0";
name = Light;
paths = (
{
closed = 1;
nodes = (
"532 0 LINE",
"90 0 LINE",
"90 66 LINE",
"260 86 LINE",
"260 1376 LINE",
"90 1397 LINE",
"90 1462 LINE",
"532 1462 LINE",
"532 1397 LINE",
"362 1376 LINE",
"362 86 LINE",
"532 66 LINE"
);
},
{
closed = 1;
nodes = (
"21 1595 LINE",
"104 1684 OFFCURVE",
"208 1818 OFFCURVE",
"263 1907 CURVE",
"361 1907 LINE",
"406 1827 OFFCURVE",
"487 1723 OFFCURVE",
"603 1595 CURVE",
"603 1579 LINE",
"533 1579 LINE",
"452 1646 OFFCURVE",
"378 1715 OFFCURVE",
"312 1786 CURVE",
"240 1710 OFFCURVE",
"166 1641 OFFCURVE",
"91 1579 CURVE",
"21 1579 LINE"
);
}
);
width = 623;
}
);
},
{
glyphname = Idieresis.alt;
layers = (
{
layerId = "76F3DBC4-34E6-4FAC-BFB3-3E99EC0C3BB0";
name = Light;
paths = (
{
closed = 1;
nodes = (
"532 0 LINE",
"90 0 LINE",
"90 66 LINE",
"260 86 LINE",
"260 1376 LINE",
"90 1397 LINE",
"90 1462 LINE",
"532 1462 LINE",
"532 1397 LINE",
"362 1376 LINE",
"362 86 LINE",
"532 66 LINE"
);
},
{
closed = 1;
nodes = (
"58 1788 OFFCURVE",
"78 1813 OFFCURVE",
"121 1813 CURVE SMOOTH",
"164 1813 OFFCURVE",
"185 1784 OFFCURVE",
"185 1727 CURVE SMOOTH",
"185 1670 OFFCURVE",
"164 1641 OFFCURVE",
"121 1641 CURVE SMOOTH",
"79 1641 OFFCURVE",
"58 1670 OFFCURVE",
"58 1727 CURVE SMOOTH"
);
},
{
closed = 1;
nodes = (
"439 1788 OFFCURVE",
"459 1813 OFFCURVE",
"502 1813 CURVE SMOOTH",
"545 1813 OFFCURVE",
"566 1784 OFFCURVE",
"566 1727 CURVE SMOOTH",
"566 1670 OFFCURVE",
"545 1641 OFFCURVE",
"502 1641 CURVE SMOOTH",
"460 1641 OFFCURVE",
"439 1670 OFFCURVE",
"439 1727 CURVE SMOOTH"
);
}
);
width = 623;
}
);
},
{
glyphname = Eth;
layers = (
{
layerId = "76F3DBC4-34E6-4FAC-BFB3-3E99EC0C3BB0";
name = Light;
paths = (
{
closed = 1;
nodes = (
"1317 254 OFFCURVE",
"1056 0 OFFCURVE",
"557 0 CURVE SMOOTH",
"207 0 LINE",
"207 678 LINE",
"47 678 LINE",
"47 772 LINE",
"207 772 LINE",
"207 1462 LINE",
"602 1462 LINE SMOOTH",
"1069 1462 OFFCURVE",
"1317 1213 OFFCURVE",
"1317 745 CURVE SMOOTH"
);
},
{
closed = 1;
nodes = (
"1206 1160 OFFCURVE",
"990 1372 OFFCURVE",
"578 1372 CURVE SMOOTH",
"309 1372 LINE",
"309 772 LINE",
"715 772 LINE",
"715 678 LINE",
"309 678 LINE",
"309 90 LINE",
"551 90 LINE SMOOTH",
"988 90 OFFCURVE",
"1206 307 OFFCURVE",
"1206 741 CURVE SMOOTH"
);
}
);
width = 1466;
}
);
unicode = 00D0;
},
{
glyphname = Ntilde;
layers = (
{
layerId = "76F3DBC4-34E6-4FAC-BFB3-3E99EC0C3BB0";
name = Light;
paths = (
{
closed = 1;
nodes = (
"1270 0 LINE",
"1167 0 LINE",
"301 1298 LINE",
"293 1298 LINE",
"301 1143 OFFCURVE",
"305 1027 OFFCURVE",
"305 948 CURVE SMOOTH",
"305 0 LINE",
"207 0 LINE",
"207 1462 LINE",
"309 1462 LINE",
"1174 166 LINE",
"1180 166 LINE",
"1174 286 OFFCURVE",
"1171 400 OFFCURVE",
"1171 508 CURVE SMOOTH",
"1171 1462 LINE",
"1270 1462 LINE"
);
},
{
closed = 1;
nodes = (
"849 1581 OFFCURVE",
"804 1600 OFFCURVE",
"721 1671 CURVE SMOOTH",
"678 1706 OFFCURVE",
"639 1737 OFFCURVE",
"596 1737 CURVE SMOOTH",
"536 1737 OFFCURVE",
"497 1697 OFFCURVE",
"473 1581 CURVE",
"400 1581 LINE",
"413 1729 OFFCURVE",
"488 1819 OFFCURVE",
"600 1819 CURVE SMOOTH",
"664 1819 OFFCURVE",
"714 1780 OFFCURVE",
"770 1735 CURVE SMOOTH",
"815 1698 OFFCURVE",
"858 1663 OFFCURVE",
"897 1663 CURVE SMOOTH",
"958 1663 OFFCURVE",
"999 1708 OFFCURVE",
"1022 1819 CURVE",
"1098 1819 LINE",
"1077 1664 OFFCURVE",
"1002 1581 OFFCURVE",
"897 1581 CURVE SMOOTH"
);
}
);
width = 1477;
}
);
unicode = 00D1;
},
{
glyphname = Ograve;
layers = (
{
layerId = "76F3DBC4-34E6-4FAC-BFB3-3E99EC0C3BB0";
name = Light;
paths = (
{
closed = 1;
nodes = (
"1436 269 OFFCURVE",
"1190 -20 OFFCURVE",
"782 -20 CURVE SMOOTH",
"375 -20 OFFCURVE",
"129 268 OFFCURVE",
"129 735 CURVE SMOOTH",
"129 1200 OFFCURVE",
"379 1485 OFFCURVE",
"784 1485 CURVE SMOOTH",
"1192 1485 OFFCURVE",
"1436 1198 OFFCURVE",
"1436 733 CURVE SMOOTH"
);
},
{
closed = 1;
nodes = (
"240 314 OFFCURVE",
"433 76 OFFCURVE",
"782 76 CURVE SMOOTH",
"1134 76 OFFCURVE",
"1325 310 OFFCURVE",
"1325 733 CURVE SMOOTH",
"1325 1154 OFFCURVE",
"1133 1386 OFFCURVE",
"784 1386 CURVE SMOOTH",
"436 1386 OFFCURVE",
"240 1150 OFFCURVE",
"240 733 CURVE SMOOTH"
);
},
{
closed = 1;
nodes = (
"885 1579 LINE",
"816 1579 LINE",
"688 1684 OFFCURVE",
"546 1827 OFFCURVE",
"502 1890 CURVE",
"502 1907 LINE",
"644 1907 LINE",
"679 1843 OFFCURVE",
"792 1696 OFFCURVE",
"885 1595 CURVE"
);
}
);
width = 1565;
}
);
unicode = 00D2;
},
{
glyphname = Oacute;
layers = (
{
layerId = "76F3DBC4-34E6-4FAC-BFB3-3E99EC0C3BB0";
name = Light;
paths = (
{
closed = 1;
nodes = (
"1436 269 OFFCURVE",
"1190 -20 OFFCURVE",
"782 -20 CURVE SMOOTH",
"375 -20 OFFCURVE",
"129 268 OFFCURVE",
"129 735 CURVE SMOOTH",
"129 1200 OFFCURVE",
"379 1485 OFFCURVE",
"784 1485 CURVE SMOOTH",
"1192 1485 OFFCURVE",
"1436 1198 OFFCURVE",
"1436 733 CURVE SMOOTH"
);
},
{
closed = 1;
nodes = (
"240 314 OFFCURVE",
"433 76 OFFCURVE",
"782 76 CURVE SMOOTH",
"1134 76 OFFCURVE",
"1325 310 OFFCURVE",
"1325 733 CURVE SMOOTH",
"1325 1154 OFFCURVE",
"1133 1386 OFFCURVE",
"784 1386 CURVE SMOOTH",
"436 1386 OFFCURVE",
"240 1150 OFFCURVE",
"240 733 CURVE SMOOTH"
);
},
{
closed = 1;
nodes = (
"686 1595 LINE",
"783 1700 OFFCURVE",
"893 1843 OFFCURVE",
"928 1907 CURVE",
"1069 1907 LINE",
"1069 1890 LINE",
"1021 1821 OFFCURVE",
"895 1695 OFFCURVE",
"756 1579 CURVE",
"686 1579 LINE"
);
}
);
width = 1565;
}
);
unicode = 00D3;
},
{
glyphname = Ocircumflex;
layers = (
{
layerId = "76F3DBC4-34E6-4FAC-BFB3-3E99EC0C3BB0";
name = Light;
paths = (
{
closed = 1;
nodes = (
"1436 269 OFFCURVE",
"1190 -20 OFFCURVE",
"782 -20 CURVE SMOOTH",
"375 -20 OFFCURVE",
"129 268 OFFCURVE",
"129 735 CURVE SMOOTH",
"129 1200 OFFCURVE",
"379 1485 OFFCURVE",
"784 1485 CURVE SMOOTH",
"1192 1485 OFFCURVE",
"1436 1198 OFFCURVE",
"1436 733 CURVE SMOOTH"
);
},
{
closed = 1;
nodes = (
"240 314 OFFCURVE",
"433 76 OFFCURVE",
"782 76 CURVE SMOOTH",
"1134 76 OFFCURVE",
"1325 310 OFFCURVE",
"1325 733 CURVE SMOOTH",
"1325 1154 OFFCURVE",
"1133 1386 OFFCURVE",
"784 1386 CURVE SMOOTH",
"436 1386 OFFCURVE",
"240 1150 OFFCURVE",
"240 733 CURVE SMOOTH"
);
},
{
closed = 1;
nodes = (
"492 1595 LINE",
"575 1684 OFFCURVE",
"679 1818 OFFCURVE",
"734 1907 CURVE",
"832 1907 LINE",
"877 1827 OFFCURVE",
"958 1723 OFFCURVE",
"1074 1595 CURVE",
"1074 1579 LINE",
"1004 1579 LINE",
"923 1646 OFFCURVE",
"849 1715 OFFCURVE",
"783 1786 CURVE",
"711 1710 OFFCURVE",
"637 1641 OFFCURVE",
"562 1579 CURVE",
"492 1579 LINE"
);
}
);
width = 1565;
}
);
unicode = 00D4;
},
{
glyphname = Otilde;
layers = (
{
layerId = "76F3DBC4-34E6-4FAC-BFB3-3E99EC0C3BB0";
name = Light;
paths = (
{
closed = 1;
nodes = (
"1436 269 OFFCURVE",
"1190 -20 OFFCURVE",
"782 -20 CURVE SMOOTH",
"375 -20 OFFCURVE",
"129 268 OFFCURVE",
"129 735 CURVE SMOOTH",
"129 1200 OFFCURVE",
"379 1485 OFFCURVE",
"784 1485 CURVE SMOOTH",
"1192 1485 OFFCURVE",
"1436 1198 OFFCURVE",
"1436 733 CURVE SMOOTH"
);
},
{
closed = 1;
nodes = (
"240 314 OFFCURVE",
"433 76 OFFCURVE",
"782 76 CURVE SMOOTH",
"1134 76 OFFCURVE",
"1325 310 OFFCURVE",
"1325 733 CURVE SMOOTH",
"1325 1154 OFFCURVE",
"1133 1386 OFFCURVE",
"784 1386 CURVE SMOOTH",
"436 1386 OFFCURVE",
"240 1150 OFFCURVE",
"240 733 CURVE SMOOTH"
);
},
{
closed = 1;
nodes = (
"892 1581 OFFCURVE",
"847 1600 OFFCURVE",
"764 1671 CURVE SMOOTH",
"721 1706 OFFCURVE",
"682 1737 OFFCURVE",
"639 1737 CURVE SMOOTH",
"579 1737 OFFCURVE",
"540 1697 OFFCURVE",
"516 1581 CURVE",
"443 1581 LINE",
"456 1729 OFFCURVE",
"531 1819 OFFCURVE",
"643 1819 CURVE SMOOTH",
"707 1819 OFFCURVE",
"757 1780 OFFCURVE",
"813 1735 CURVE SMOOTH",
"858 1698 OFFCURVE",
"901 1663 OFFCURVE",
"940 1663 CURVE SMOOTH",
"1001 1663 OFFCURVE",
"1042 1708 OFFCURVE",
"1065 1819 CURVE",
"1141 1819 LINE",
"1120 1664 OFFCURVE",
"1045 1581 OFFCURVE",
"940 1581 CURVE SMOOTH"
);
}
);
width = 1565;
}
);
unicode = 00D5;
},
{
glyphname = Odieresis;
layers = (
{
layerId = "76F3DBC4-34E6-4FAC-BFB3-3E99EC0C3BB0";
name = Light;
paths = (
{
closed = 1;
nodes = (
"1436 269 OFFCURVE",
"1190 -20 OFFCURVE",
"782 -20 CURVE SMOOTH",
"375 -20 OFFCURVE",
"129 268 OFFCURVE",
"129 735 CURVE SMOOTH",
"129 1200 OFFCURVE",
"379 1485 OFFCURVE",
"784 1485 CURVE SMOOTH",
"1192 1485 OFFCURVE",
"1436 1198 OFFCURVE",
"1436 733 CURVE SMOOTH"
);
},
{
closed = 1;
nodes = (
"240 314 OFFCURVE",
"433 76 OFFCURVE",
"782 76 CURVE SMOOTH",
"1134 76 OFFCURVE",
"1325 310 OFFCURVE",
"1325 733 CURVE SMOOTH",
"1325 1154 OFFCURVE",
"1133 1386 OFFCURVE",
"784 1386 CURVE SMOOTH",
"436 1386 OFFCURVE",
"240 1150 OFFCURVE",
"240 733 CURVE SMOOTH"
);
},
{
closed = 1;
nodes = (
"529 1788 OFFCURVE",
"549 1813 OFFCURVE",
"592 1813 CURVE SMOOTH",
"635 1813 OFFCURVE",
"656 1784 OFFCURVE",
"656 1727 CURVE SMOOTH",
"656 1670 OFFCURVE",
"635 1641 OFFCURVE",
"592 1641 CURVE SMOOTH",
"550 1641 OFFCURVE",
"529 1670 OFFCURVE",
"529 1727 CURVE SMOOTH"
);
},
{
closed = 1;
nodes = (
"910 1788 OFFCURVE",
"930 1813 OFFCURVE",
"973 1813 CURVE SMOOTH",
"1016 1813 OFFCURVE",
"1037 1784 OFFCURVE",
"1037 1727 CURVE SMOOTH",
"1037 1670 OFFCURVE",
"1016 1641 OFFCURVE",
"973 1641 CURVE SMOOTH",
"931 1641 OFFCURVE",
"910 1670 OFFCURVE",
"910 1727 CURVE SMOOTH"
);
}
);
width = 1565;
}
);
unicode = 00D6;
},
{
glyphname = multiply;
layers = (
{
layerId = "76F3DBC4-34E6-4FAC-BFB3-3E99EC0C3BB0";
name = Light;
paths = (
{
closed = 1;
nodes = (
"584 780 LINE",
"993 1188 LINE",
"1051 1130 LINE",
"643 723 LINE",
"1049 315 LINE",
"991 258 LINE",
"584 666 LINE",
"178 258 LINE",
"121 315 LINE",
"526 723 LINE",
"119 1130 LINE",
"176 1188 LINE"
);
}
);
width = 1169;
}
);
unicode = 00D7;
},
{
glyphname = Oslash;
layers = (
{
layerId = "76F3DBC4-34E6-4FAC-BFB3-3E99EC0C3BB0";
name = Light;
paths = (
{
closed = 1;
nodes = (
"1436 269 OFFCURVE",
"1190 -20 OFFCURVE",
"782 -20 CURVE SMOOTH",
"625 -20 OFFCURVE",
"493 20 OFFCURVE",
"387 100 CURVE",
"301 -20 LINE",
"227 39 LINE",
"317 166 LINE",
"192 299 OFFCURVE",
"129 489 OFFCURVE",
"129 735 CURVE SMOOTH",
"129 1200 OFFCURVE",
"379 1485 OFFCURVE",
"784 1485 CURVE SMOOTH",
"939 1485 OFFCURVE",
"1069 1445 OFFCURVE",
"1176 1364 CURVE",
"1284 1516 LINE",
"1356 1456 LINE",
"1245 1303 LINE",
"1372 1165 OFFCURVE",
"1436 975 OFFCURVE",
"1436 733 CURVE SMOOTH"
);
},
{
closed = 1;
nodes = (
"1325 943 OFFCURVE",
"1279 1105 OFFCURVE",
"1186 1219 CURVE",
"444 182 LINE",
"533 111 OFFCURVE",
"645 76 OFFCURVE",
"782 76 CURVE SMOOTH",
"1134 76 OFFCURVE",
"1325 310 OFFCURVE",
"1325 733 CURVE SMOOTH"
);
},
{
closed = 1;
nodes = (
"240 525 OFFCURVE",
"286 364 OFFCURVE",
"379 250 CURVE",
"1118 1284 LINE",
"1029 1352 OFFCURVE",
"918 1386 OFFCURVE",
"784 1386 CURVE SMOOTH",
"436 1386 OFFCURVE",
"240 1150 OFFCURVE",
"240 733 CURVE SMOOTH"
);
}
);
width = 1565;
}
);
unicode = 00D8;
},
{
glyphname = Ugrave;
layers = (
{
layerId = "76F3DBC4-34E6-4FAC-BFB3-3E99EC0C3BB0";
name = Light;
paths = (
{
closed = 1;
nodes = (
"1282 1462 LINE",
"1282 516 LINE SMOOTH",
"1282 180 OFFCURVE",
"1077 -20 OFFCURVE",
"729 -20 CURVE SMOOTH",
"390 -20 OFFCURVE",
"190 180 OFFCURVE",
"190 520 CURVE SMOOTH",
"190 1462 LINE",
"293 1462 LINE",
"293 516 LINE SMOOTH",
"293 235 OFFCURVE",
"456 70 OFFCURVE",
"741 70 CURVE SMOOTH",
"1020 70 OFFCURVE",
"1180 233 OFFCURVE",
"1180 506 CURVE SMOOTH",
"1180 1462 LINE"
);
},
{
closed = 1;
nodes = (
"833 1579 LINE",
"764 1579 LINE",
"636 1684 OFFCURVE",
"494 1827 OFFCURVE",
"450 1890 CURVE",
"450 1907 LINE",
"592 1907 LINE",
"627 1843 OFFCURVE",
"740 1696 OFFCURVE",
"833 1595 CURVE"
);
}
);
width = 1473;
}
);
unicode = 00D9;
},
{
glyphname = Uacute;
layers = (
{
layerId = "76F3DBC4-34E6-4FAC-BFB3-3E99EC0C3BB0";
name = Light;
paths = (
{
closed = 1;
nodes = (
"1282 1462 LINE",
"1282 516 LINE SMOOTH",
"1282 180 OFFCURVE",
"1077 -20 OFFCURVE",
"729 -20 CURVE SMOOTH",
"390 -20 OFFCURVE",
"190 180 OFFCURVE",
"190 520 CURVE SMOOTH",
"190 1462 LINE",
"293 1462 LINE",
"293 516 LINE SMOOTH",
"293 235 OFFCURVE",
"456 70 OFFCURVE",
"741 70 CURVE SMOOTH",
"1020 70 OFFCURVE",
"1180 233 OFFCURVE",
"1180 506 CURVE SMOOTH",
"1180 1462 LINE"
);
},
{
closed = 1;
nodes = (
"633 1595 LINE",
"730 1700 OFFCURVE",
"840 1843 OFFCURVE",
"875 1907 CURVE",
"1016 1907 LINE",
"1016 1890 LINE",
"968 1821 OFFCURVE",
"842 1695 OFFCURVE",
"703 1579 CURVE",
"633 1579 LINE"
);
}
);
width = 1473;
}
);
unicode = 00DA;
},
{
glyphname = Ucircumflex;
layers = (
{
layerId = "76F3DBC4-34E6-4FAC-BFB3-3E99EC0C3BB0";
name = Light;
paths = (
{
closed = 1;
nodes = (
"1282 1462 LINE",
"1282 516 LINE SMOOTH",
"1282 180 OFFCURVE",
"1077 -20 OFFCURVE",
"729 -20 CURVE SMOOTH",
"390 -20 OFFCURVE",
"190 180 OFFCURVE",
"190 520 CURVE SMOOTH",
"190 1462 LINE",
"293 1462 LINE",
"293 516 LINE SMOOTH",
"293 235 OFFCURVE",
"456 70 OFFCURVE",
"741 70 CURVE SMOOTH",
"1020 70 OFFCURVE",
"1180 233 OFFCURVE",
"1180 506 CURVE SMOOTH",
"1180 1462 LINE"
);
},
{
closed = 1;
nodes = (
"444 1595 LINE",
"527 1684 OFFCURVE",
"631 1818 OFFCURVE",
"686 1907 CURVE",
"784 1907 LINE",
"829 1827 OFFCURVE",
"910 1723 OFFCURVE",
"1026 1595 CURVE",
"1026 1579 LINE",
"956 1579 LINE",
"875 1646 OFFCURVE",
"801 1715 OFFCURVE",
"735 1786 CURVE",
"663 1710 OFFCURVE",
"589 1641 OFFCURVE",
"514 1579 CURVE",
"444 1579 LINE"
);
}
);
width = 1473;
}
);
unicode = 00DB;
},
{
glyphname = Udieresis;
layers = (
{
layerId = "76F3DBC4-34E6-4FAC-BFB3-3E99EC0C3BB0";
name = Light;
paths = (
{
closed = 1;
nodes = (
"1282 1462 LINE",
"1282 516 LINE SMOOTH",
"1282 180 OFFCURVE",
"1077 -20 OFFCURVE",
"729 -20 CURVE SMOOTH",
"390 -20 OFFCURVE",
"190 180 OFFCURVE",
"190 520 CURVE SMOOTH",
"190 1462 LINE",
"293 1462 LINE",
"293 516 LINE SMOOTH",
"293 235 OFFCURVE",
"456 70 OFFCURVE",
"741 70 CURVE SMOOTH",
"1020 70 OFFCURVE",
"1180 233 OFFCURVE",
"1180 506 CURVE SMOOTH",
"1180 1462 LINE"
);
},
{
closed = 1;
nodes = (
"481 1788 OFFCURVE",
"501 1813 OFFCURVE",
"544 1813 CURVE SMOOTH",
"587 1813 OFFCURVE",
"608 1784 OFFCURVE",
"608 1727 CURVE SMOOTH",
"608 1670 OFFCURVE",
"587 1641 OFFCURVE",
"544 1641 CURVE SMOOTH",
"502 1641 OFFCURVE",
"481 1670 OFFCURVE",
"481 1727 CURVE SMOOTH"
);
},
{
closed = 1;
nodes = (
"862 1788 OFFCURVE",
"882 1813 OFFCURVE",
"925 1813 CURVE SMOOTH",
"968 1813 OFFCURVE",
"989 1784 OFFCURVE",
"989 1727 CURVE SMOOTH",
"989 1670 OFFCURVE",
"968 1641 OFFCURVE",
"925 1641 CURVE SMOOTH",
"883 1641 OFFCURVE",
"862 1670 OFFCURVE",
"862 1727 CURVE SMOOTH"
);
}
);
width = 1473;
}
);
unicode = 00DC;
},
{
glyphname = Yacute;
layers = (
{
layerId = "76F3DBC4-34E6-4FAC-BFB3-3E99EC0C3BB0";
name = Light;
paths = (
{
closed = 1;
nodes = (
"543 662 LINE",
"971 1462 LINE",
"1081 1462 LINE",
"594 565 LINE",
"594 0 LINE",
"489 0 LINE",
"489 557 LINE",
"0 1462 LINE",
"117 1462 LINE"
);
},
{
closed = 1;
nodes = (
"434 1595 LINE",
"531 1700 OFFCURVE",
"641 1843 OFFCURVE",
"676 1907 CURVE",
"817 1907 LINE",
"817 1890 LINE",
"769 1821 OFFCURVE",
"643 1695 OFFCURVE",
"504 1579 CURVE",
"434 1579 LINE"
);
}
);
width = 1081;
}
);
unicode = 00DD;
},
{
glyphname = Thorn;
layers = (
{
layerId = "76F3DBC4-34E6-4FAC-BFB3-3E99EC0C3BB0";
name = Light;
paths = (
{
closed = 1;
nodes = (
"1087 495 OFFCURVE",
"887 340 OFFCURVE",
"535 340 CURVE SMOOTH",
"309 340 LINE",
"309 0 LINE",
"207 0 LINE",
"207 1462 LINE",
"309 1462 LINE",
"309 1198 LINE",
"565 1198 LINE SMOOTH",
"913 1198 OFFCURVE",
"1087 1058 OFFCURVE",
"1087 778 CURVE SMOOTH"
);
},
{
closed = 1;
nodes = (
"309 428 LINE",
"510 428 LINE SMOOTH",
"839 428 OFFCURVE",
"977 530 OFFCURVE",
"977 774 CURVE SMOOTH",
"977 999 OFFCURVE",
"842 1106 OFFCURVE",
"551 1106 CURVE SMOOTH",
"309 1106 LINE"
);
}
);
width = 1198;
}
);
unicode = 00DE;
},
{
glyphname = germandbls;
layers = (
{
layerId = "76F3DBC4-34E6-4FAC-BFB3-3E99EC0C3BB0";
name = Light;
paths = (
{
closed = 1;
nodes = (
"961 1191 OFFCURVE",
"915 1108 OFFCURVE",
"822 1034 CURVE SMOOTH",
"768 991 OFFCURVE",
"731 958 OFFCURVE",
"712 934 CURVE SMOOTH",
"692 909 OFFCURVE",
"682 884 OFFCURVE",
"682 858 CURVE SMOOTH",
"682 799 OFFCURVE",
"699 777 OFFCURVE",
"748 733 CURVE SMOOTH",
"773 711 OFFCURVE",
"807 685 OFFCURVE",
"850 655 CURVE SMOOTH",
"991 555 OFFCURVE",
"1040 499 OFFCURVE",
"1070 428 CURVE SMOOTH",
"1085 392 OFFCURVE",
"1092 352 OFFCURVE",
"1092 307 CURVE SMOOTH",
"1092 99 OFFCURVE",
"969 -20 OFFCURVE",
"758 -20 CURVE SMOOTH",
"631 -20 OFFCURVE",
"520 7 OFFCURVE",
"457 47 CURVE",
"457 154 LINE",
"544 103 OFFCURVE",
"666 68 OFFCURVE",
"758 68 CURVE SMOOTH",
"910 68 OFFCURVE",
"993 142 OFFCURVE",
"993 283 CURVE SMOOTH",
"993 394 OFFCURVE",
"952 463 OFFCURVE",
"805 563 CURVE SMOOTH",
"636 679 OFFCURVE",
"582 741 OFFCURVE",
"582 856 CURVE SMOOTH",
"582 936 OFFCURVE",
"622 997 OFFCURVE",
"721 1074 CURVE SMOOTH",
"820 1150 OFFCURVE",
"860 1209 OFFCURVE",
"860 1286 CURVE SMOOTH",
"860 1410 OFFCURVE",
"764 1479 OFFCURVE",
"588 1479 CURVE SMOOTH",
"395 1479 OFFCURVE",
"281 1383 OFFCURVE",
"281 1214 CURVE SMOOTH",
"281 0 LINE",
"182 0 LINE",
"182 1206 LINE SMOOTH",
"182 1437 OFFCURVE",
"326 1567 OFFCURVE",
"578 1567 CURVE SMOOTH",
"829 1567 OFFCURVE",
"961 1468 OFFCURVE",
"961 1284 CURVE SMOOTH"
);
}
);
width = 1194;
}
);
unicode = 00DF;
},
{
glyphname = agrave;
layers = (
{
layerId = "76F3DBC4-34E6-4FAC-BFB3-3E99EC0C3BB0";
name = Light;
paths = (
{
closed = 1;
nodes = (
"842 0 LINE",
"817 172 LINE",
"809 172 LINE",
"700 32 OFFCURVE",
"593 -20 OFFCURVE",
"436 -20 CURVE SMOOTH",
"223 -20 OFFCURVE",
"98 96 OFFCURVE",
"98 289 CURVE SMOOTH",
"98 501 OFFCURVE",
"279 622 OFFCURVE",
"614 629 CURVE SMOOTH",
"821 635 LINE",
"821 707 LINE SMOOTH",
"821 914 OFFCURVE",
"742 1020 OFFCURVE",
"555 1020 CURVE SMOOTH",
"454 1020 OFFCURVE",
"350 992 OFFCURVE",
"242 936 CURVE",
"205 1022 LINE",
"324 1078 OFFCURVE",
"442 1106 OFFCURVE",
"559 1106 CURVE SMOOTH",
"798 1106 OFFCURVE",
"915 986 OFFCURVE",
"915 723 CURVE SMOOTH",
"915 0 LINE"
);
},
{
closed = 1;
nodes = (
"674 70 OFFCURVE",
"817 210 OFFCURVE",
"817 446 CURVE SMOOTH",
"817 553 LINE",
"627 545 LINE SMOOTH",
"322 530 OFFCURVE",
"203 456 OFFCURVE",
"203 285 CURVE SMOOTH",
"203 149 OFFCURVE",
"290 70 OFFCURVE",
"442 70 CURVE SMOOTH"
);
},
{
closed = 1;
nodes = (
"638 1241 LINE",
"569 1241 LINE",
"441 1346 OFFCURVE",
"299 1489 OFFCURVE",
"255 1552 CURVE",
"255 1569 LINE",
"397 1569 LINE",
"432 1505 OFFCURVE",
"545 1358 OFFCURVE",
"638 1257 CURVE"
);
}
);
width = 1085;
}
);
unicode = 00E0;
},
{
glyphname = aacute;
layers = (
{
layerId = "76F3DBC4-34E6-4FAC-BFB3-3E99EC0C3BB0";
name = Light;
paths = (
{
closed = 1;
nodes = (
"842 0 LINE",
"817 172 LINE",
"809 172 LINE",
"700 32 OFFCURVE",
"593 -20 OFFCURVE",
"436 -20 CURVE SMOOTH",
"223 -20 OFFCURVE",
"98 96 OFFCURVE",
"98 289 CURVE SMOOTH",
"98 501 OFFCURVE",
"279 622 OFFCURVE",
"614 629 CURVE SMOOTH",
"821 635 LINE",
"821 707 LINE SMOOTH",
"821 914 OFFCURVE",
"742 1020 OFFCURVE",
"555 1020 CURVE SMOOTH",
"454 1020 OFFCURVE",
"350 992 OFFCURVE",
"242 936 CURVE",
"205 1022 LINE",
"324 1078 OFFCURVE",
"442 1106 OFFCURVE",
"559 1106 CURVE SMOOTH",
"798 1106 OFFCURVE",
"915 986 OFFCURVE",
"915 723 CURVE SMOOTH",
"915 0 LINE"
);
},
{
closed = 1;
nodes = (
"674 70 OFFCURVE",
"817 210 OFFCURVE",
"817 446 CURVE SMOOTH",
"817 553 LINE",
"627 545 LINE SMOOTH",
"322 530 OFFCURVE",
"203 456 OFFCURVE",
"203 285 CURVE SMOOTH",
"203 149 OFFCURVE",
"290 70 OFFCURVE",
"442 70 CURVE SMOOTH"
);
},
{
closed = 1;
nodes = (
"422 1257 LINE",
"519 1362 OFFCURVE",
"629 1505 OFFCURVE",
"664 1569 CURVE",
"805 1569 LINE",
"805 1552 LINE",
"757 1483 OFFCURVE",
"631 1357 OFFCURVE",
"492 1241 CURVE",
"422 1241 LINE"
);
}
);
width = 1085;
}
);
unicode = 00E1;
},
{
glyphname = acircumflex;
layers = (
{
layerId = "76F3DBC4-34E6-4FAC-BFB3-3E99EC0C3BB0";
name = Light;
paths = (
{
closed = 1;
nodes = (
"842 0 LINE",
"817 172 LINE",
"809 172 LINE",
"700 32 OFFCURVE",
"593 -20 OFFCURVE",
"436 -20 CURVE SMOOTH",
"223 -20 OFFCURVE",
"98 96 OFFCURVE",
"98 289 CURVE SMOOTH",
"98 501 OFFCURVE",
"279 622 OFFCURVE",
"614 629 CURVE SMOOTH",
"821 635 LINE",
"821 707 LINE SMOOTH",
"821 914 OFFCURVE",
"742 1020 OFFCURVE",
"555 1020 CURVE SMOOTH",
"454 1020 OFFCURVE",
"350 992 OFFCURVE",
"242 936 CURVE",
"205 1022 LINE",
"324 1078 OFFCURVE",
"442 1106 OFFCURVE",
"559 1106 CURVE SMOOTH",
"798 1106 OFFCURVE",
"915 986 OFFCURVE",
"915 723 CURVE SMOOTH",
"915 0 LINE"
);
},
{
closed = 1;
nodes = (
"674 70 OFFCURVE",
"817 210 OFFCURVE",
"817 446 CURVE SMOOTH",
"817 553 LINE",
"627 545 LINE SMOOTH",
"322 530 OFFCURVE",
"203 456 OFFCURVE",
"203 285 CURVE SMOOTH",
"203 149 OFFCURVE",
"290 70 OFFCURVE",
"442 70 CURVE SMOOTH"
);
},
{
closed = 1;
nodes = (
"251 1257 LINE",
"334 1346 OFFCURVE",
"438 1480 OFFCURVE",
"493 1569 CURVE",
"591 1569 LINE",
"636 1489 OFFCURVE",
"717 1385 OFFCURVE",
"833 1257 CURVE",
"833 1241 LINE",
"763 1241 LINE",
"682 1308 OFFCURVE",
"608 1377 OFFCURVE",
"542 1448 CURVE",
"470 1372 OFFCURVE",
"396 1303 OFFCURVE",
"321 1241 CURVE",
"251 1241 LINE"
);
}
);
width = 1085;
}
);
unicode = 00E2;
},
{
glyphname = atilde;
layers = (
{
layerId = "76F3DBC4-34E6-4FAC-BFB3-3E99EC0C3BB0";
name = Light;
paths = (
{
closed = 1;
nodes = (
"842 0 LINE",
"817 172 LINE",
"809 172 LINE",
"700 32 OFFCURVE",
"593 -20 OFFCURVE",
"436 -20 CURVE SMOOTH",
"223 -20 OFFCURVE",
"98 96 OFFCURVE",
"98 289 CURVE SMOOTH",
"98 501 OFFCURVE",
"279 622 OFFCURVE",
"614 629 CURVE SMOOTH",
"821 635 LINE",
"821 707 LINE SMOOTH",
"821 914 OFFCURVE",
"742 1020 OFFCURVE",
"555 1020 CURVE SMOOTH",
"454 1020 OFFCURVE",
"350 992 OFFCURVE",
"242 936 CURVE",
"205 1022 LINE",
"324 1078 OFFCURVE",
"442 1106 OFFCURVE",
"559 1106 CURVE SMOOTH",
"798 1106 OFFCURVE",
"915 986 OFFCURVE",
"915 723 CURVE SMOOTH",
"915 0 LINE"
);
},
{
closed = 1;
nodes = (
"674 70 OFFCURVE",
"817 210 OFFCURVE",
"817 446 CURVE SMOOTH",
"817 553 LINE",
"627 545 LINE SMOOTH",
"322 530 OFFCURVE",
"203 456 OFFCURVE",
"203 285 CURVE SMOOTH",
"203 149 OFFCURVE",
"290 70 OFFCURVE",
"442 70 CURVE SMOOTH"
);
},
{
closed = 1;
nodes = (
"649 1243 OFFCURVE",
"604 1262 OFFCURVE",
"521 1333 CURVE SMOOTH",
"478 1368 OFFCURVE",
"439 1399 OFFCURVE",
"396 1399 CURVE SMOOTH",
"336 1399 OFFCURVE",
"297 1359 OFFCURVE",
"273 1243 CURVE",
"200 1243 LINE",
"213 1391 OFFCURVE",
"288 1481 OFFCURVE",
"400 1481 CURVE SMOOTH",
"464 1481 OFFCURVE",
"514 1442 OFFCURVE",
"570 1397 CURVE SMOOTH",
"615 1360 OFFCURVE",
"658 1325 OFFCURVE",
"697 1325 CURVE SMOOTH",
"758 1325 OFFCURVE",
"799 1370 OFFCURVE",
"822 1481 CURVE",
"898 1481 LINE",
"877 1326 OFFCURVE",
"802 1243 OFFCURVE",
"697 1243 CURVE SMOOTH"
);
}
);
width = 1085;
}
);
unicode = 00E3;
},
{
glyphname = adieresis;
layers = (
{
layerId = "76F3DBC4-34E6-4FAC-BFB3-3E99EC0C3BB0";
name = Light;
paths = (
{
closed = 1;
nodes = (
"842 0 LINE",
"817 172 LINE",
"809 172 LINE",
"700 32 OFFCURVE",
"593 -20 OFFCURVE",
"436 -20 CURVE SMOOTH",
"223 -20 OFFCURVE",
"98 96 OFFCURVE",
"98 289 CURVE SMOOTH",
"98 501 OFFCURVE",
"279 622 OFFCURVE",
"614 629 CURVE SMOOTH",
"821 635 LINE",
"821 707 LINE SMOOTH",
"821 914 OFFCURVE",
"742 1020 OFFCURVE",
"555 1020 CURVE SMOOTH",
"454 1020 OFFCURVE",
"350 992 OFFCURVE",
"242 936 CURVE",
"205 1022 LINE",
"324 1078 OFFCURVE",
"442 1106 OFFCURVE",
"559 1106 CURVE SMOOTH",
"798 1106 OFFCURVE",
"915 986 OFFCURVE",
"915 723 CURVE SMOOTH",
"915 0 LINE"
);
},
{
closed = 1;
nodes = (
"674 70 OFFCURVE",
"817 210 OFFCURVE",
"817 446 CURVE SMOOTH",
"817 553 LINE",
"627 545 LINE SMOOTH",
"322 530 OFFCURVE",
"203 456 OFFCURVE",
"203 285 CURVE SMOOTH",
"203 149 OFFCURVE",
"290 70 OFFCURVE",
"442 70 CURVE SMOOTH"
);
},
{
closed = 1;
nodes = (
"282 1450 OFFCURVE",
"302 1475 OFFCURVE",
"345 1475 CURVE SMOOTH",
"388 1475 OFFCURVE",
"409 1446 OFFCURVE",
"409 1389 CURVE SMOOTH",
"409 1332 OFFCURVE",
"388 1303 OFFCURVE",
"345 1303 CURVE SMOOTH",
"303 1303 OFFCURVE",
"282 1332 OFFCURVE",
"282 1389 CURVE SMOOTH"
);
},
{
closed = 1;
nodes = (
"663 1450 OFFCURVE",
"683 1475 OFFCURVE",
"726 1475 CURVE SMOOTH",
"769 1475 OFFCURVE",
"790 1446 OFFCURVE",
"790 1389 CURVE SMOOTH",
"790 1332 OFFCURVE",
"769 1303 OFFCURVE",
"726 1303 CURVE SMOOTH",
"684 1303 OFFCURVE",
"663 1332 OFFCURVE",
"663 1389 CURVE SMOOTH"
);
}
);
width = 1085;
}
);
unicode = 00E4;
},
{
glyphname = aring;
layers = (
{
layerId = "76F3DBC4-34E6-4FAC-BFB3-3E99EC0C3BB0";
name = Light;
paths = (
{
closed = 1;
nodes = (
"842 0 LINE",
"817 172 LINE",
"809 172 LINE",
"700 32 OFFCURVE",
"593 -20 OFFCURVE",
"436 -20 CURVE SMOOTH",
"223 -20 OFFCURVE",
"98 96 OFFCURVE",
"98 289 CURVE SMOOTH",
"98 501 OFFCURVE",
"279 622 OFFCURVE",
"614 629 CURVE SMOOTH",
"821 635 LINE",
"821 707 LINE SMOOTH",
"821 914 OFFCURVE",
"742 1020 OFFCURVE",
"555 1020 CURVE SMOOTH",
"454 1020 OFFCURVE",
"350 992 OFFCURVE",
"242 936 CURVE",
"205 1022 LINE",
"324 1078 OFFCURVE",
"442 1106 OFFCURVE",
"559 1106 CURVE SMOOTH",
"798 1106 OFFCURVE",
"915 986 OFFCURVE",
"915 723 CURVE SMOOTH",
"915 0 LINE"
);
},
{
closed = 1;
nodes = (
"674 70 OFFCURVE",
"817 210 OFFCURVE",
"817 446 CURVE SMOOTH",
"817 553 LINE",
"627 545 LINE SMOOTH",
"322 530 OFFCURVE",
"203 456 OFFCURVE",
"203 285 CURVE SMOOTH",
"203 149 OFFCURVE",
"290 70 OFFCURVE",
"442 70 CURVE SMOOTH"
);
},
{
closed = 1;
nodes = (
"759 1327 OFFCURVE",
"671 1243 OFFCURVE",
"542 1243 CURVE SMOOTH",
"413 1243 OFFCURVE",
"325 1327 OFFCURVE",
"325 1456 CURVE SMOOTH",
"325 1581 OFFCURVE",
"413 1667 OFFCURVE",
"542 1667 CURVE SMOOTH",
"671 1667 OFFCURVE",
"759 1580 OFFCURVE",
"759 1456 CURVE SMOOTH"
);
},
{
closed = 1;
nodes = (
"405 1368 OFFCURVE",
"459 1315 OFFCURVE",
"542 1315 CURVE SMOOTH",
"625 1315 OFFCURVE",
"679 1368 OFFCURVE",
"679 1456 CURVE SMOOTH",
"679 1541 OFFCURVE",
"621 1595 OFFCURVE",
"542 1595 CURVE SMOOTH",
"459 1595 OFFCURVE",
"405 1540 OFFCURVE",
"405 1456 CURVE SMOOTH"
);
}
);
width = 1085;
}
);
unicode = 00E5;
},
{
glyphname = ae;
layers = (
{
layerId = "76F3DBC4-34E6-4FAC-BFB3-3E99EC0C3BB0";
name = Light;
paths = (
{
closed = 1;
nodes = (
"1046 -20 OFFCURVE",
"914 65 OFFCURVE",
"846 236 CURVE",
"755 59 OFFCURVE",
"629 -20 OFFCURVE",
"426 -20 CURVE SMOOTH",
"218 -20 OFFCURVE",
"98 97 OFFCURVE",
"98 289 CURVE SMOOTH",
"98 494 OFFCURVE",
"264 618 OFFCURVE",
"600 629 CURVE SMOOTH",
"801 635 LINE",
"801 707 LINE SMOOTH",
"801 914 OFFCURVE",
"724 1020 OFFCURVE",
"541 1020 CURVE SMOOTH",
"442 1020 OFFCURVE",
"341 992 OFFCURVE",
"236 936 CURVE",
"199 1022 LINE",
"314 1078 OFFCURVE",
"430 1106 OFFCURVE",
"545 1106 CURVE SMOOTH",
"719 1106 OFFCURVE",
"827 1036 OFFCURVE",
"870 895 CURVE",
"944 1037 OFFCURVE",
"1060 1108 OFFCURVE",
"1217 1108 CURVE SMOOTH",
"1462 1108 OFFCURVE",
"1612 915 OFFCURVE",
"1612 610 CURVE SMOOTH",
"1612 530 LINE",
"897 530 LINE",
"897 223 OFFCURVE",
"1013 70 OFFCURVE",
"1245 70 CURVE SMOOTH",
"1358 70 OFFCURVE",
"1424 79 OFFCURVE",
"1569 139 CURVE",
"1569 49 LINE",
"1446 -6 OFFCURVE",
"1360 -20 OFFCURVE",
"1243 -20 CURVE SMOOTH"
);
},
{
closed = 1;
nodes = (
"659 70 OFFCURVE",
"797 210 OFFCURVE",
"797 446 CURVE SMOOTH",
"797 553 LINE",
"610 545 LINE SMOOTH",
"318 530 OFFCURVE",
"203 456 OFFCURVE",
"203 285 CURVE SMOOTH",
"203 149 OFFCURVE",
"289 70 OFFCURVE",
"434 70 CURVE SMOOTH"
);
},
{
closed = 1;
nodes = (
"1028 1020 OFFCURVE",
"923 886 OFFCURVE",
"903 618 CURVE",
"1507 618 LINE",
"1507 869 OFFCURVE",
"1397 1020 OFFCURVE",
"1217 1020 CURVE SMOOTH"
);
}
);
width = 1731;
}
);
unicode = 00E6;
},
{
glyphname = ccedilla;
layers = (
{
layerId = "76F3DBC4-34E6-4FAC-BFB3-3E99EC0C3BB0";
name = Light;
paths = (
{
closed = 1;
nodes = (
"305 -20 OFFCURVE",
"119 186 OFFCURVE",
"119 537 CURVE SMOOTH",
"119 897 OFFCURVE",
"314 1108 OFFCURVE",
"631 1108 CURVE SMOOTH",
"725 1108 OFFCURVE",
"815 1092 OFFCURVE",
"901 1059 CURVE",
"874 971 LINE",
"780 1002 OFFCURVE",
"698 1018 OFFCURVE",
"629 1018 CURVE SMOOTH",
"362 1018 OFFCURVE",
"223 848 OFFCURVE",
"223 539 CURVE SMOOTH",
"223 246 OFFCURVE",
"367 70 OFFCURVE",
"614 70 CURVE SMOOTH",
"713 70 OFFCURVE",
"804 88 OFFCURVE",
"889 123 CURVE",
"889 31 LINE",
"820 -3 OFFCURVE",
"729 -20 OFFCURVE",
"616 -20 CURVE SMOOTH"
);
},
{
closed = 1;
nodes = (
"723 -424 OFFCURVE",
"628 -492 OFFCURVE",
"467 -492 CURVE SMOOTH",
"422 -492 OFFCURVE",
"390 -488 OFFCURVE",
"373 -481 CURVE",
"373 -393 LINE",
"393 -400 OFFCURVE",
"424 -403 OFFCURVE",
"465 -403 CURVE SMOOTH",
"569 -403 OFFCURVE",
"625 -364 OFFCURVE",
"625 -295 CURVE SMOOTH",
"625 -232 OFFCURVE",
"561 -192 OFFCURVE",
"432 -174 CURVE",
"525 0 LINE",
"621 0 LINE",
"555 -117 LINE",
"667 -142 OFFCURVE",
"723 -200 OFFCURVE",
"723 -291 CURVE SMOOTH"
);
}
);
width = 973;
}
);
unicode = 00E7;
},
{
glyphname = egrave;
layers = (
{
layerId = "76F3DBC4-34E6-4FAC-BFB3-3E99EC0C3BB0";
name = Light;
paths = (
{
closed = 1;
nodes = (
"305 -20 OFFCURVE",
"119 184 OFFCURVE",
"119 535 CURVE SMOOTH",
"119 882 OFFCURVE",
"303 1108 OFFCURVE",
"592 1108 CURVE SMOOTH",
"848 1108 OFFCURVE",
"1006 917 OFFCURVE",
"1006 610 CURVE SMOOTH",
"1006 530 LINE",
"223 530 LINE",
"226 231 OFFCURVE",
"366 70 OFFCURVE",
"621 70 CURVE SMOOTH",
"745 70 OFFCURVE",
"819 82 OFFCURVE",
"963 139 CURVE",
"963 49 LINE",
"840 -4 OFFCURVE",
"746 -20 OFFCURVE",
"621 -20 CURVE SMOOTH"
);
},
{
closed = 1;
nodes = (
"383 1020 OFFCURVE",
"250 878 OFFCURVE",
"229 618 CURVE",
"901 618 LINE",
"901 870 OFFCURVE",
"785 1020 OFFCURVE",
"592 1020 CURVE SMOOTH"
);
},
{
closed = 1;
nodes = (
"685 1241 LINE",
"616 1241 LINE",
"488 1346 OFFCURVE",
"346 1489 OFFCURVE",
"302 1552 CURVE",
"302 1569 LINE",
"444 1569 LINE",
"479 1505 OFFCURVE",
"592 1358 OFFCURVE",
"685 1257 CURVE"
);
}
);
width = 1124;
}
);
unicode = 00E8;
},
{
glyphname = eacute;
layers = (
{
layerId = "76F3DBC4-34E6-4FAC-BFB3-3E99EC0C3BB0";
name = Light;
paths = (
{
closed = 1;
nodes = (
"305 -20 OFFCURVE",
"119 184 OFFCURVE",
"119 535 CURVE SMOOTH",
"119 882 OFFCURVE",
"303 1108 OFFCURVE",
"592 1108 CURVE SMOOTH",
"848 1108 OFFCURVE",
"1006 917 OFFCURVE",
"1006 610 CURVE SMOOTH",
"1006 530 LINE",
"223 530 LINE",
"226 231 OFFCURVE",
"366 70 OFFCURVE",
"621 70 CURVE SMOOTH",
"745 70 OFFCURVE",
"819 82 OFFCURVE",
"963 139 CURVE",
"963 49 LINE",
"840 -4 OFFCURVE",
"746 -20 OFFCURVE",
"621 -20 CURVE SMOOTH"
);
},
{
closed = 1;
nodes = (
"383 1020 OFFCURVE",
"250 878 OFFCURVE",
"229 618 CURVE",
"901 618 LINE",
"901 870 OFFCURVE",
"785 1020 OFFCURVE",
"592 1020 CURVE SMOOTH"
);
},
{
closed = 1;
nodes = (
"452 1257 LINE",
"549 1362 OFFCURVE",
"659 1505 OFFCURVE",
"694 1569 CURVE",
"835 1569 LINE",
"835 1552 LINE",
"787 1483 OFFCURVE",
"661 1357 OFFCURVE",
"522 1241 CURVE",
"452 1241 LINE"
);
}
);
width = 1124;
}
);
unicode = 00E9;
},
{
glyphname = ecircumflex;
layers = (
{
layerId = "76F3DBC4-34E6-4FAC-BFB3-3E99EC0C3BB0";
name = Light;
paths = (
{
closed = 1;
nodes = (
"305 -20 OFFCURVE",
"119 184 OFFCURVE",
"119 535 CURVE SMOOTH",
"119 882 OFFCURVE",
"303 1108 OFFCURVE",
"592 1108 CURVE SMOOTH",
"848 1108 OFFCURVE",
"1006 917 OFFCURVE",
"1006 610 CURVE SMOOTH",
"1006 530 LINE",
"223 530 LINE",
"226 231 OFFCURVE",
"366 70 OFFCURVE",
"621 70 CURVE SMOOTH",
"745 70 OFFCURVE",
"819 82 OFFCURVE",
"963 139 CURVE",
"963 49 LINE",
"840 -4 OFFCURVE",
"746 -20 OFFCURVE",
"621 -20 CURVE SMOOTH"
);
},
{
closed = 1;
nodes = (
"383 1020 OFFCURVE",
"250 878 OFFCURVE",
"229 618 CURVE",
"901 618 LINE",
"901 870 OFFCURVE",
"785 1020 OFFCURVE",
"592 1020 CURVE SMOOTH"
);
},
{
closed = 1;
nodes = (
"290 1257 LINE",
"373 1346 OFFCURVE",
"477 1480 OFFCURVE",
"532 1569 CURVE",
"630 1569 LINE",
"675 1489 OFFCURVE",
"756 1385 OFFCURVE",
"872 1257 CURVE",
"872 1241 LINE",
"802 1241 LINE",
"721 1308 OFFCURVE",
"647 1377 OFFCURVE",
"581 1448 CURVE",
"509 1372 OFFCURVE",
"435 1303 OFFCURVE",
"360 1241 CURVE",
"290 1241 LINE"
);
}
);
width = 1124;
}
);
unicode = 00EA;
},
{
glyphname = edieresis;
layers = (
{
layerId = "76F3DBC4-34E6-4FAC-BFB3-3E99EC0C3BB0";
name = Light;
paths = (
{
closed = 1;
nodes = (
"305 -20 OFFCURVE",
"119 184 OFFCURVE",
"119 535 CURVE SMOOTH",
"119 882 OFFCURVE",
"303 1108 OFFCURVE",
"592 1108 CURVE SMOOTH",
"848 1108 OFFCURVE",
"1006 917 OFFCURVE",
"1006 610 CURVE SMOOTH",
"1006 530 LINE",
"223 530 LINE",
"226 231 OFFCURVE",
"366 70 OFFCURVE",
"621 70 CURVE SMOOTH",
"745 70 OFFCURVE",
"819 82 OFFCURVE",
"963 139 CURVE",
"963 49 LINE",
"840 -4 OFFCURVE",
"746 -20 OFFCURVE",
"621 -20 CURVE SMOOTH"
);
},
{
closed = 1;
nodes = (
"383 1020 OFFCURVE",
"250 878 OFFCURVE",
"229 618 CURVE",
"901 618 LINE",
"901 870 OFFCURVE",
"785 1020 OFFCURVE",
"592 1020 CURVE SMOOTH"
);
},
{
closed = 1;
nodes = (
"331 1450 OFFCURVE",
"351 1475 OFFCURVE",
"394 1475 CURVE SMOOTH",
"437 1475 OFFCURVE",
"458 1446 OFFCURVE",
"458 1389 CURVE SMOOTH",
"458 1332 OFFCURVE",
"437 1303 OFFCURVE",
"394 1303 CURVE SMOOTH",
"352 1303 OFFCURVE",
"331 1332 OFFCURVE",
"331 1389 CURVE SMOOTH"
);
},
{
closed = 1;
nodes = (
"712 1450 OFFCURVE",
"732 1475 OFFCURVE",
"775 1475 CURVE SMOOTH",
"818 1475 OFFCURVE",
"839 1446 OFFCURVE",
"839 1389 CURVE SMOOTH",
"839 1332 OFFCURVE",
"818 1303 OFFCURVE",
"775 1303 CURVE SMOOTH",
"733 1303 OFFCURVE",
"712 1332 OFFCURVE",
"712 1389 CURVE SMOOTH"
);
}
);
width = 1124;
}
);
unicode = 00EB;
},
{
glyphname = igrave;
layers = (
{
layerId = "76F3DBC4-34E6-4FAC-BFB3-3E99EC0C3BB0";
name = Light;
paths = (
{
closed = 1;
nodes = (
"281 0 LINE",
"182 0 LINE",
"182 1087 LINE",
"281 1087 LINE"
);
},
{
closed = 1;
nodes = (
"349 1241 LINE",
"280 1241 LINE",
"152 1346 OFFCURVE",
"10 1489 OFFCURVE",
"-34 1552 CURVE",
"-34 1569 LINE",
"108 1569 LINE",
"143 1505 OFFCURVE",
"256 1358 OFFCURVE",
"349 1257 CURVE"
);
}
);
width = 463;
}
);
unicode = 00EC;
},
{
glyphname = iacute;
layers = (
{
layerId = "76F3DBC4-34E6-4FAC-BFB3-3E99EC0C3BB0";
name = Light;
paths = (
{
closed = 1;
nodes = (
"281 0 LINE",
"182 0 LINE",
"182 1087 LINE",
"281 1087 LINE"
);
},
{
closed = 1;
nodes = (
"107 1257 LINE",
"204 1362 OFFCURVE",
"314 1505 OFFCURVE",
"349 1569 CURVE",
"490 1569 LINE",
"490 1552 LINE",
"442 1483 OFFCURVE",
"316 1357 OFFCURVE",
"177 1241 CURVE",
"107 1241 LINE"
);
}
);
width = 463;
}
);
unicode = 00ED;
},
{
glyphname = icircumflex;
layers = (
{
layerId = "76F3DBC4-34E6-4FAC-BFB3-3E99EC0C3BB0";
name = Light;
paths = (
{
closed = 1;
nodes = (
"281 0 LINE",
"182 0 LINE",
"182 1087 LINE",
"281 1087 LINE"
);
},
{
closed = 1;
nodes = (
"-58 1257 LINE",
"25 1346 OFFCURVE",
"129 1480 OFFCURVE",
"184 1569 CURVE",
"282 1569 LINE",
"327 1489 OFFCURVE",
"408 1385 OFFCURVE",
"524 1257 CURVE",
"524 1241 LINE",
"454 1241 LINE",
"373 1308 OFFCURVE",
"299 1377 OFFCURVE",
"233 1448 CURVE",
"161 1372 OFFCURVE",
"87 1303 OFFCURVE",
"12 1241 CURVE",
"-58 1241 LINE"
);
}
);
width = 463;
}
);
unicode = 00EE;
},
{
glyphname = idieresis;
layers = (
{
layerId = "76F3DBC4-34E6-4FAC-BFB3-3E99EC0C3BB0";
name = Light;
paths = (
{
closed = 1;
nodes = (
"281 0 LINE",
"182 0 LINE",
"182 1087 LINE",
"281 1087 LINE"
);
},
{
closed = 1;
nodes = (
"-21 1450 OFFCURVE",
"-1 1475 OFFCURVE",
"42 1475 CURVE SMOOTH",
"85 1475 OFFCURVE",
"106 1446 OFFCURVE",
"106 1389 CURVE SMOOTH",
"106 1332 OFFCURVE",
"85 1303 OFFCURVE",
"42 1303 CURVE SMOOTH",
"0 1303 OFFCURVE",
"-21 1332 OFFCURVE",
"-21 1389 CURVE SMOOTH"
);
},
{
closed = 1;
nodes = (
"360 1450 OFFCURVE",
"380 1475 OFFCURVE",
"423 1475 CURVE SMOOTH",
"466 1475 OFFCURVE",
"487 1446 OFFCURVE",
"487 1389 CURVE SMOOTH",
"487 1332 OFFCURVE",
"466 1303 OFFCURVE",
"423 1303 CURVE SMOOTH",
"381 1303 OFFCURVE",
"360 1332 OFFCURVE",
"360 1389 CURVE SMOOTH"
);
}
);
width = 463;
}
);
unicode = 00EF;
},
{
glyphname = eth;
layers = (
{
layerId = "76F3DBC4-34E6-4FAC-BFB3-3E99EC0C3BB0";
name = Light;
paths = (
{
closed = 1;
nodes = (
"1055 191 OFFCURVE",
"882 -20 OFFCURVE",
"582 -20 CURVE SMOOTH",
"297 -20 OFFCURVE",
"117 163 OFFCURVE",
"117 471 CURVE SMOOTH",
"117 775 OFFCURVE",
"298 958 OFFCURVE",
"586 958 CURVE SMOOTH",
"730 958 OFFCURVE",
"830 913 OFFCURVE",
"922 829 CURVE",
"926 831 LINE",
"883 1011 OFFCURVE",
"794 1164 OFFCURVE",
"657 1290 CURVE",
"387 1133 LINE",
"338 1210 LINE",
"582 1356 LINE",
"525 1397 OFFCURVE",
"458 1437 OFFCURVE",
"383 1475 CURVE",
"428 1556 LINE",
"526 1510 OFFCURVE",
"609 1462 OFFCURVE",
"676 1411 CURVE",
"901 1548 LINE",
"950 1464 LINE",
"748 1343 LINE",
"953 1142 OFFCURVE",
"1055 864 OFFCURVE",
"1055 559 CURVE SMOOTH"
);
},
{
closed = 1;
nodes = (
"950 752 OFFCURVE",
"813 868 OFFCURVE",
"586 868 CURVE SMOOTH",
"339 868 OFFCURVE",
"221 735 OFFCURVE",
"221 463 CURVE SMOOTH",
"221 215 OFFCURVE",
"352 70 OFFCURVE",
"584 70 CURVE SMOOTH",
"823 70 OFFCURVE",
"950 236 OFFCURVE",
"950 557 CURVE SMOOTH"
);
}
);
width = 1174;
}
);
unicode = 00F0;
},
{
glyphname = ntilde;
layers = (
{
layerId = "76F3DBC4-34E6-4FAC-BFB3-3E99EC0C3BB0";
name = Light;
paths = (
{
closed = 1;
nodes = (
"940 0 LINE",
"940 705 LINE SMOOTH",
"940 924 OFFCURVE",
"850 1018 OFFCURVE",
"657 1018 CURVE SMOOTH",
"397 1018 OFFCURVE",
"281 895 OFFCURVE",
"281 600 CURVE SMOOTH",
"281 0 LINE",
"182 0 LINE",
"182 1087 LINE",
"266 1087 LINE",
"285 938 LINE",
"291 938 LINE",
"362 1051 OFFCURVE",
"487 1108 OFFCURVE",
"668 1108 CURVE SMOOTH",
"915 1108 OFFCURVE",
"1038 976 OFFCURVE",
"1038 711 CURVE SMOOTH",
"1038 0 LINE"
);
},
{
closed = 1;
nodes = (
"731 1243 OFFCURVE",
"686 1262 OFFCURVE",
"603 1333 CURVE SMOOTH",
"560 1368 OFFCURVE",
"521 1399 OFFCURVE",
"478 1399 CURVE SMOOTH",
"418 1399 OFFCURVE",
"379 1359 OFFCURVE",
"355 1243 CURVE",
"282 1243 LINE",
"295 1391 OFFCURVE",
"370 1481 OFFCURVE",
"482 1481 CURVE SMOOTH",
"546 1481 OFFCURVE",
"596 1442 OFFCURVE",
"652 1397 CURVE SMOOTH",
"697 1360 OFFCURVE",
"740 1325 OFFCURVE",
"779 1325 CURVE SMOOTH",
"840 1325 OFFCURVE",
"881 1370 OFFCURVE",
"904 1481 CURVE",
"980 1481 LINE",
"959 1326 OFFCURVE",
"884 1243 OFFCURVE",
"779 1243 CURVE SMOOTH"
);
}
);
width = 1208;
}
);
unicode = 00F1;
},
{
glyphname = ograve;
layers = (
{
layerId = "76F3DBC4-34E6-4FAC-BFB3-3E99EC0C3BB0";
name = Light;
paths = (
{
closed = 1;
nodes = (
"1081 190 OFFCURVE",
"899 -20 OFFCURVE",
"596 -20 CURVE SMOOTH",
"405 -20 OFFCURVE",
"254 75 OFFCURVE",
"177 247 CURVE SMOOTH",
"138 333 OFFCURVE",
"119 432 OFFCURVE",
"119 545 CURVE SMOOTH",
"119 900 OFFCURVE",
"302 1108 OFFCURVE",
"602 1108 CURVE SMOOTH",
"901 1108 OFFCURVE",
"1081 894 OFFCURVE",
"1081 545 CURVE SMOOTH"
);
},
{
closed = 1;
nodes = (
"223 246 OFFCURVE",
"360 70 OFFCURVE",
"600 70 CURVE SMOOTH",
"840 70 OFFCURVE",
"977 246 OFFCURVE",
"977 545 CURVE SMOOTH",
"977 845 OFFCURVE",
"838 1018 OFFCURVE",
"598 1018 CURVE SMOOTH",
"358 1018 OFFCURVE",
"223 846 OFFCURVE",
"223 545 CURVE SMOOTH"
);
},
{
closed = 1;
nodes = (
"718 1241 LINE",
"649 1241 LINE",
"521 1346 OFFCURVE",
"379 1489 OFFCURVE",
"335 1552 CURVE",
"335 1569 LINE",
"477 1569 LINE",
"512 1505 OFFCURVE",
"625 1358 OFFCURVE",
"718 1257 CURVE"
);
}
);
width = 1200;
}
);
unicode = 00F2;
},
{
glyphname = oacute;
layers = (
{
layerId = "76F3DBC4-34E6-4FAC-BFB3-3E99EC0C3BB0";
name = Light;
paths = (
{
closed = 1;
nodes = (
"1081 190 OFFCURVE",
"899 -20 OFFCURVE",
"596 -20 CURVE SMOOTH",
"405 -20 OFFCURVE",
"254 75 OFFCURVE",
"177 247 CURVE SMOOTH",
"138 333 OFFCURVE",
"119 432 OFFCURVE",
"119 545 CURVE SMOOTH",
"119 900 OFFCURVE",
"302 1108 OFFCURVE",
"602 1108 CURVE SMOOTH",
"901 1108 OFFCURVE",
"1081 894 OFFCURVE",
"1081 545 CURVE SMOOTH"
);
},
{
closed = 1;
nodes = (
"223 246 OFFCURVE",
"360 70 OFFCURVE",
"600 70 CURVE SMOOTH",
"840 70 OFFCURVE",
"977 246 OFFCURVE",
"977 545 CURVE SMOOTH",
"977 845 OFFCURVE",
"838 1018 OFFCURVE",
"598 1018 CURVE SMOOTH",
"358 1018 OFFCURVE",
"223 846 OFFCURVE",
"223 545 CURVE SMOOTH"
);
},
{
closed = 1;
nodes = (
"499 1257 LINE",
"596 1362 OFFCURVE",
"706 1505 OFFCURVE",
"741 1569 CURVE",
"882 1569 LINE",
"882 1552 LINE",
"834 1483 OFFCURVE",
"708 1357 OFFCURVE",
"569 1241 CURVE",
"499 1241 LINE"
);
}
);
width = 1200;
}
);
unicode = 00F3;
},
{
glyphname = ocircumflex;
layers = (
{
layerId = "76F3DBC4-34E6-4FAC-BFB3-3E99EC0C3BB0";
name = Light;
paths = (
{
closed = 1;
nodes = (
"1081 190 OFFCURVE",
"899 -20 OFFCURVE",
"596 -20 CURVE SMOOTH",
"405 -20 OFFCURVE",
"254 75 OFFCURVE",
"177 247 CURVE SMOOTH",
"138 333 OFFCURVE",
"119 432 OFFCURVE",
"119 545 CURVE SMOOTH",
"119 900 OFFCURVE",
"302 1108 OFFCURVE",
"602 1108 CURVE SMOOTH",
"901 1108 OFFCURVE",
"1081 894 OFFCURVE",
"1081 545 CURVE SMOOTH"
);
},
{
closed = 1;
nodes = (
"223 246 OFFCURVE",
"360 70 OFFCURVE",
"600 70 CURVE SMOOTH",
"840 70 OFFCURVE",
"977 246 OFFCURVE",
"977 545 CURVE SMOOTH",
"977 845 OFFCURVE",
"838 1018 OFFCURVE",
"598 1018 CURVE SMOOTH",
"358 1018 OFFCURVE",
"223 846 OFFCURVE",
"223 545 CURVE SMOOTH"
);
},
{
closed = 1;
nodes = (
"309 1257 LINE",
"392 1346 OFFCURVE",
"496 1480 OFFCURVE",
"551 1569 CURVE",
"649 1569 LINE",
"694 1489 OFFCURVE",
"775 1385 OFFCURVE",
"891 1257 CURVE",
"891 1241 LINE",
"821 1241 LINE",
"740 1308 OFFCURVE",
"666 1377 OFFCURVE",
"600 1448 CURVE",
"528 1372 OFFCURVE",
"454 1303 OFFCURVE",
"379 1241 CURVE",
"309 1241 LINE"
);
}
);
width = 1200;
}
);
unicode = 00F4;
},
{
glyphname = otilde;
layers = (
{
layerId = "76F3DBC4-34E6-4FAC-BFB3-3E99EC0C3BB0";
name = Light;
paths = (
{
closed = 1;
nodes = (
"1081 190 OFFCURVE",
"899 -20 OFFCURVE",
"596 -20 CURVE SMOOTH",
"405 -20 OFFCURVE",
"254 75 OFFCURVE",
"177 247 CURVE SMOOTH",
"138 333 OFFCURVE",
"119 432 OFFCURVE",
"119 545 CURVE SMOOTH",
"119 900 OFFCURVE",
"302 1108 OFFCURVE",
"602 1108 CURVE SMOOTH",
"901 1108 OFFCURVE",
"1081 894 OFFCURVE",
"1081 545 CURVE SMOOTH"
);
},
{
closed = 1;
nodes = (
"223 246 OFFCURVE",
"360 70 OFFCURVE",
"600 70 CURVE SMOOTH",
"840 70 OFFCURVE",
"977 246 OFFCURVE",
"977 545 CURVE SMOOTH",
"977 845 OFFCURVE",
"838 1018 OFFCURVE",
"598 1018 CURVE SMOOTH",
"358 1018 OFFCURVE",
"223 846 OFFCURVE",
"223 545 CURVE SMOOTH"
);
},
{
closed = 1;
nodes = (
"713 1243 OFFCURVE",
"668 1262 OFFCURVE",
"585 1333 CURVE SMOOTH",
"542 1368 OFFCURVE",
"503 1399 OFFCURVE",
"460 1399 CURVE SMOOTH",
"400 1399 OFFCURVE",
"361 1359 OFFCURVE",
"337 1243 CURVE",
"264 1243 LINE",
"277 1391 OFFCURVE",
"352 1481 OFFCURVE",
"464 1481 CURVE SMOOTH",
"528 1481 OFFCURVE",
"578 1442 OFFCURVE",
"634 1397 CURVE SMOOTH",
"679 1360 OFFCURVE",
"722 1325 OFFCURVE",
"761 1325 CURVE SMOOTH",
"822 1325 OFFCURVE",
"863 1370 OFFCURVE",
"886 1481 CURVE",
"962 1481 LINE",
"941 1326 OFFCURVE",
"866 1243 OFFCURVE",
"761 1243 CURVE SMOOTH"
);
}
);
width = 1200;
}
);
unicode = 00F5;
},
{
glyphname = odieresis;
layers = (
{
layerId = "76F3DBC4-34E6-4FAC-BFB3-3E99EC0C3BB0";
name = Light;
paths = (
{
closed = 1;
nodes = (
"1081 190 OFFCURVE",
"899 -20 OFFCURVE",
"596 -20 CURVE SMOOTH",
"405 -20 OFFCURVE",
"254 75 OFFCURVE",
"177 247 CURVE SMOOTH",
"138 333 OFFCURVE",
"119 432 OFFCURVE",
"119 545 CURVE SMOOTH",
"119 900 OFFCURVE",
"302 1108 OFFCURVE",
"602 1108 CURVE SMOOTH",
"901 1108 OFFCURVE",
"1081 894 OFFCURVE",
"1081 545 CURVE SMOOTH"
);
},
{
closed = 1;
nodes = (
"223 246 OFFCURVE",
"360 70 OFFCURVE",
"600 70 CURVE SMOOTH",
"840 70 OFFCURVE",
"977 246 OFFCURVE",
"977 545 CURVE SMOOTH",
"977 845 OFFCURVE",
"838 1018 OFFCURVE",
"598 1018 CURVE SMOOTH",
"358 1018 OFFCURVE",
"223 846 OFFCURVE",
"223 545 CURVE SMOOTH"
);
},
{
closed = 1;
nodes = (
"346 1450 OFFCURVE",
"366 1475 OFFCURVE",
"409 1475 CURVE SMOOTH",
"452 1475 OFFCURVE",
"473 1446 OFFCURVE",
"473 1389 CURVE SMOOTH",
"473 1332 OFFCURVE",
"452 1303 OFFCURVE",
"409 1303 CURVE SMOOTH",
"367 1303 OFFCURVE",
"346 1332 OFFCURVE",
"346 1389 CURVE SMOOTH"
);
},
{
closed = 1;
nodes = (
"727 1450 OFFCURVE",
"747 1475 OFFCURVE",
"790 1475 CURVE SMOOTH",
"833 1475 OFFCURVE",
"854 1446 OFFCURVE",
"854 1389 CURVE SMOOTH",
"854 1332 OFFCURVE",
"833 1303 OFFCURVE",
"790 1303 CURVE SMOOTH",
"748 1303 OFFCURVE",
"727 1332 OFFCURVE",
"727 1389 CURVE SMOOTH"
);
}
);
width = 1200;
}
);
unicode = 00F6;
},
{
glyphname = divide;
layers = (
{
layerId = "76F3DBC4-34E6-4FAC-BFB3-3E99EC0C3BB0";
name = Light;
paths = (
{
closed = 1;
nodes = (
"111 682 LINE",
"111 764 LINE",
"1059 764 LINE",
"1059 682 LINE"
);
},
{
closed = 1;
nodes = (
"504 1141 OFFCURVE",
"531 1174 OFFCURVE",
"584 1174 CURVE SMOOTH",
"639 1174 OFFCURVE",
"666 1141 OFFCURVE",
"666 1075 CURVE SMOOTH",
"666 1006 OFFCURVE",
"631 977 OFFCURVE",
"584 977 CURVE SMOOTH",
"539 977 OFFCURVE",
"504 1006 OFFCURVE",
"504 1075 CURVE SMOOTH"
);
},
{
closed = 1;
nodes = (
"504 436 OFFCURVE",
"531 469 OFFCURVE",
"584 469 CURVE SMOOTH",
"639 469 OFFCURVE",
"666 436 OFFCURVE",
"666 371 CURVE SMOOTH",
"666 300 OFFCURVE",
"631 272 OFFCURVE",
"584 272 CURVE SMOOTH",
"539 272 OFFCURVE",
"504 300 OFFCURVE",
"504 371 CURVE SMOOTH"
);
}
);
width = 1169;
}
);
unicode = 00F7;
},
{
glyphname = oslash;
layers = (
{
layerId = "76F3DBC4-34E6-4FAC-BFB3-3E99EC0C3BB0";
name = Light;
paths = (
{
closed = 1;
nodes = (
"1081 190 OFFCURVE",
"899 -20 OFFCURVE",
"596 -20 CURVE SMOOTH",
"481 -20 OFFCURVE",
"384 13 OFFCURVE",
"305 78 CURVE",
"219 -35 LINE",
"147 23 LINE",
"240 143 LINE",
"159 245 OFFCURVE",
"119 379 OFFCURVE",
"119 545 CURVE SMOOTH",
"119 900 OFFCURVE",
"302 1108 OFFCURVE",
"602 1108 CURVE SMOOTH",
"721 1108 OFFCURVE",
"822 1073 OFFCURVE",
"903 1004 CURVE",
"999 1128 LINE",
"1073 1073 LINE",
"969 936 LINE",
"1044 838 OFFCURVE",
"1081 708 OFFCURVE",
"1081 545 CURVE SMOOTH"
);
},
{
closed = 1;
nodes = (
"223 412 OFFCURVE",
"249 304 OFFCURVE",
"301 223 CURVE",
"844 928 LINE",
"779 988 OFFCURVE",
"697 1018 OFFCURVE",
"598 1018 CURVE SMOOTH",
"358 1018 OFFCURVE",
"223 846 OFFCURVE",
"223 545 CURVE SMOOTH"
);
},
{
closed = 1;
nodes = (
"977 672 OFFCURVE",
"953 775 OFFCURVE",
"905 854 CURVE",
"362 152 LINE",
"425 97 OFFCURVE",
"504 70 OFFCURVE",
"600 70 CURVE SMOOTH",
"840 70 OFFCURVE",
"977 246 OFFCURVE",
"977 545 CURVE SMOOTH"
);
}
);
width = 1200;
}
);
unicode = 00F8;
},
{
glyphname = ugrave;
layers = (
{
layerId = "76F3DBC4-34E6-4FAC-BFB3-3E99EC0C3BB0";
name = Light;
paths = (
{
closed = 1;
nodes = (
"268 1087 LINE",
"268 383 LINE SMOOTH",
"268 164 OFFCURVE",
"358 70 OFFCURVE",
"551 70 CURVE SMOOTH",
"810 70 OFFCURVE",
"928 192 OFFCURVE",
"928 487 CURVE SMOOTH",
"928 1087 LINE",
"1026 1087 LINE",
"1026 0 LINE",
"942 0 LINE",
"924 150 LINE",
"918 150 LINE",
"847 37 OFFCURVE",
"722 -20 OFFCURVE",
"541 -20 CURVE SMOOTH",
"294 -20 OFFCURVE",
"170 112 OFFCURVE",
"170 377 CURVE SMOOTH",
"170 1087 LINE"
);
},
{
closed = 1;
nodes = (
"687 1241 LINE",
"618 1241 LINE",
"490 1346 OFFCURVE",
"348 1489 OFFCURVE",
"304 1552 CURVE",
"304 1569 LINE",
"446 1569 LINE",
"481 1505 OFFCURVE",
"594 1358 OFFCURVE",
"687 1257 CURVE"
);
}
);
width = 1208;
}
);
unicode = 00F9;
},
{
glyphname = uacute;
layers = (
{
layerId = "76F3DBC4-34E6-4FAC-BFB3-3E99EC0C3BB0";
name = Light;
paths = (
{
closed = 1;
nodes = (
"268 1087 LINE",
"268 383 LINE SMOOTH",
"268 164 OFFCURVE",
"358 70 OFFCURVE",
"551 70 CURVE SMOOTH",
"810 70 OFFCURVE",
"928 192 OFFCURVE",
"928 487 CURVE SMOOTH",
"928 1087 LINE",
"1026 1087 LINE",
"1026 0 LINE",
"942 0 LINE",
"924 150 LINE",
"918 150 LINE",
"847 37 OFFCURVE",
"722 -20 OFFCURVE",
"541 -20 CURVE SMOOTH",
"294 -20 OFFCURVE",
"170 112 OFFCURVE",
"170 377 CURVE SMOOTH",
"170 1087 LINE"
);
},
{
closed = 1;
nodes = (
"495 1257 LINE",
"592 1362 OFFCURVE",
"702 1505 OFFCURVE",
"737 1569 CURVE",
"878 1569 LINE",
"878 1552 LINE",
"830 1483 OFFCURVE",
"704 1357 OFFCURVE",
"565 1241 CURVE",
"495 1241 LINE"
);
}
);
width = 1208;
}
);
unicode = 00FA;
},
{
glyphname = ucircumflex;
layers = (
{
layerId = "76F3DBC4-34E6-4FAC-BFB3-3E99EC0C3BB0";
name = Light;
paths = (
{
closed = 1;
nodes = (
"268 1087 LINE",
"268 383 LINE SMOOTH",
"268 164 OFFCURVE",
"358 70 OFFCURVE",
"551 70 CURVE SMOOTH",
"810 70 OFFCURVE",
"928 192 OFFCURVE",
"928 487 CURVE SMOOTH",
"928 1087 LINE",
"1026 1087 LINE",
"1026 0 LINE",
"942 0 LINE",
"924 150 LINE",
"918 150 LINE",
"847 37 OFFCURVE",
"722 -20 OFFCURVE",
"541 -20 CURVE SMOOTH",
"294 -20 OFFCURVE",
"170 112 OFFCURVE",
"170 377 CURVE SMOOTH",
"170 1087 LINE"
);
},
{
closed = 1;
nodes = (
"313 1257 LINE",
"396 1346 OFFCURVE",
"500 1480 OFFCURVE",
"555 1569 CURVE",
"653 1569 LINE",
"698 1489 OFFCURVE",
"779 1385 OFFCURVE",
"895 1257 CURVE",
"895 1241 LINE",
"825 1241 LINE",
"744 1308 OFFCURVE",
"670 1377 OFFCURVE",
"604 1448 CURVE",
"532 1372 OFFCURVE",
"458 1303 OFFCURVE",
"383 1241 CURVE",
"313 1241 LINE"
);
}
);
width = 1208;
}
);
unicode = 00FB;
},
{
glyphname = udieresis;
layers = (
{
layerId = "76F3DBC4-34E6-4FAC-BFB3-3E99EC0C3BB0";
name = Light;
paths = (
{
closed = 1;
nodes = (
"268 1087 LINE",
"268 383 LINE SMOOTH",
"268 164 OFFCURVE",
"358 70 OFFCURVE",
"551 70 CURVE SMOOTH",
"810 70 OFFCURVE",
"928 192 OFFCURVE",
"928 487 CURVE SMOOTH",
"928 1087 LINE",
"1026 1087 LINE",
"1026 0 LINE",
"942 0 LINE",
"924 150 LINE",
"918 150 LINE",
"847 37 OFFCURVE",
"722 -20 OFFCURVE",
"541 -20 CURVE SMOOTH",
"294 -20 OFFCURVE",
"170 112 OFFCURVE",
"170 377 CURVE SMOOTH",
"170 1087 LINE"
);
},
{
closed = 1;
nodes = (
"350 1450 OFFCURVE",
"370 1475 OFFCURVE",
"413 1475 CURVE SMOOTH",
"456 1475 OFFCURVE",
"477 1446 OFFCURVE",
"477 1389 CURVE SMOOTH",
"477 1332 OFFCURVE",
"456 1303 OFFCURVE",
"413 1303 CURVE SMOOTH",
"371 1303 OFFCURVE",
"350 1332 OFFCURVE",
"350 1389 CURVE SMOOTH"
);
},
{
closed = 1;
nodes = (
"731 1450 OFFCURVE",
"751 1475 OFFCURVE",
"794 1475 CURVE SMOOTH",
"837 1475 OFFCURVE",
"858 1446 OFFCURVE",
"858 1389 CURVE SMOOTH",
"858 1332 OFFCURVE",
"837 1303 OFFCURVE",
"794 1303 CURVE SMOOTH",
"752 1303 OFFCURVE",
"731 1332 OFFCURVE",
"731 1389 CURVE SMOOTH"
);
}
);
width = 1208;
}
);
unicode = 00FC;
},
{
glyphname = yacute;
layers = (
{
layerId = "76F3DBC4-34E6-4FAC-BFB3-3E99EC0C3BB0";
name = Light;
paths = (
{
closed = 1;
nodes = (
"0 1087 LINE",
"102 1087 LINE",
"332 477 LINE SMOOTH",
"402 290 OFFCURVE",
"446 163 OFFCURVE",
"465 98 CURVE",
"471 98 LINE",
"499 184 OFFCURVE",
"545 312 OFFCURVE",
"608 483 CURVE SMOOTH",
"838 1087 LINE",
"940 1087 LINE",
"453 -176 LINE SMOOTH",
"414 -279 OFFCURVE",
"381 -348 OFFCURVE",
"354 -384 CURVE SMOOTH",
"301 -456 OFFCURVE",
"232 -492 OFFCURVE",
"131 -492 CURVE SMOOTH",
"93 -492 OFFCURVE",
"51 -485 OFFCURVE",
"4 -471 CURVE",
"4 -385 LINE",
"43 -396 OFFCURVE",
"84 -401 OFFCURVE",
"129 -401 CURVE SMOOTH",
"197 -401 OFFCURVE",
"248 -370 OFFCURVE",
"290 -302 CURVE SMOOTH",
"332 -235 OFFCURVE",
"400 -44 OFFCURVE",
"416 0 CURVE"
);
},
{
closed = 1;
nodes = (
"361 1257 LINE",
"458 1362 OFFCURVE",
"568 1505 OFFCURVE",
"603 1569 CURVE",
"744 1569 LINE",
"744 1552 LINE",
"696 1483 OFFCURVE",
"570 1357 OFFCURVE",
"431 1241 CURVE",
"361 1241 LINE"
);
}
);
width = 940;
}
);
unicode = 00FD;
},
{
glyphname = thorn;
layers = (
{
layerId = "76F3DBC4-34E6-4FAC-BFB3-3E99EC0C3BB0";
name = Light;
paths = (
{
closed = 1;
nodes = (
"281 918 LINE",
"357 1045 OFFCURVE",
"480 1108 OFFCURVE",
"649 1108 CURVE SMOOTH",
"942 1108 OFFCURVE",
"1100 911 OFFCURVE",
"1100 543 CURVE SMOOTH",
"1100 186 OFFCURVE",
"927 -20 OFFCURVE",
"647 -20 CURVE SMOOTH",
"480 -20 OFFCURVE",
"358 43 OFFCURVE",
"281 168 CURVE",
"274 168 LINE",
"277 84 LINE SMOOTH",
"280 35 OFFCURVE",
"281 -19 OFFCURVE",
"281 -78 CURVE SMOOTH",
"281 -492 LINE",
"182 -492 LINE",
"182 1556 LINE",
"281 1556 LINE",
"281 1165 LINE",
"274 918 LINE"
);
},
{
closed = 1;
nodes = (
"868 68 OFFCURVE",
"995 242 OFFCURVE",
"995 539 CURVE SMOOTH",
"995 858 OFFCURVE",
"879 1018 OFFCURVE",
"647 1018 CURVE SMOOTH",
"390 1018 OFFCURVE",
"281 891 OFFCURVE",
"281 559 CURVE SMOOTH",
"281 541 LINE SMOOTH",
"281 201 OFFCURVE",
"388 68 OFFCURVE",
"645 68 CURVE SMOOTH"
);
}
);
width = 1219;
}
);
unicode = 00FE;
},
{
glyphname = ydieresis;
layers = (
{
layerId = "76F3DBC4-34E6-4FAC-BFB3-3E99EC0C3BB0";
name = Light;
paths = (
{
closed = 1;
nodes = (
"0 1087 LINE",
"102 1087 LINE",
"332 477 LINE SMOOTH",
"402 290 OFFCURVE",
"446 163 OFFCURVE",
"465 98 CURVE",
"471 98 LINE",
"499 184 OFFCURVE",
"545 312 OFFCURVE",
"608 483 CURVE SMOOTH",
"838 1087 LINE",
"940 1087 LINE",
"453 -176 LINE SMOOTH",
"414 -279 OFFCURVE",
"381 -348 OFFCURVE",
"354 -384 CURVE SMOOTH",
"301 -456 OFFCURVE",
"232 -492 OFFCURVE",
"131 -492 CURVE SMOOTH",
"93 -492 OFFCURVE",
"51 -485 OFFCURVE",
"4 -471 CURVE",
"4 -385 LINE",
"43 -396 OFFCURVE",
"84 -401 OFFCURVE",
"129 -401 CURVE SMOOTH",
"197 -401 OFFCURVE",
"248 -370 OFFCURVE",
"290 -302 CURVE SMOOTH",
"332 -235 OFFCURVE",
"400 -44 OFFCURVE",
"416 0 CURVE"
);
},
{
closed = 1;
nodes = (
"214 1450 OFFCURVE",
"234 1475 OFFCURVE",
"277 1475 CURVE SMOOTH",
"320 1475 OFFCURVE",
"341 1446 OFFCURVE",
"341 1389 CURVE SMOOTH",
"341 1332 OFFCURVE",
"320 1303 OFFCURVE",
"277 1303 CURVE SMOOTH",
"235 1303 OFFCURVE",
"214 1332 OFFCURVE",
"214 1389 CURVE SMOOTH"
);
},
{
closed = 1;
nodes = (
"595 1450 OFFCURVE",
"615 1475 OFFCURVE",
"658 1475 CURVE SMOOTH",
"701 1475 OFFCURVE",
"722 1446 OFFCURVE",
"722 1389 CURVE SMOOTH",
"722 1332 OFFCURVE",
"701 1303 OFFCURVE",
"658 1303 CURVE SMOOTH",
"616 1303 OFFCURVE",
"595 1332 OFFCURVE",
"595 1389 CURVE SMOOTH"
);
}
);
width = 940;
}
);
unicode = 00FF;
},
{
glyphname = Amacron;
layers = (
{
layerId = "76F3DBC4-34E6-4FAC-BFB3-3E99EC0C3BB0";
name = Light;
paths = (
{
closed = 1;
nodes = (
"911 516 LINE",
"317 516 LINE",
"113 0 LINE",
"0 0 LINE",
"588 1468 LINE",
"653 1468 LINE",
"1229 0 LINE",
"1114 0 LINE"
);
},
{
closed = 1;
nodes = (
"354 608 LINE",
"877 608 LINE",
"678 1135 LINE SMOOTH",
"661 1176 OFFCURVE",
"641 1234 OFFCURVE",
"618 1307 CURVE",
"600 1243 OFFCURVE",
"580 1185 OFFCURVE",
"559 1133 CURVE SMOOTH"
);
},
{
closed = 1;
nodes = (
"342 1671 LINE",
"897 1671 LINE",
"897 1589 LINE",
"342 1589 LINE"
);
}
);
width = 1229;
}
);
unicode = 0100;
},
{
glyphname = amacron;
layers = (
{
layerId = "76F3DBC4-34E6-4FAC-BFB3-3E99EC0C3BB0";
name = Light;
paths = (
{
closed = 1;
nodes = (
"842 0 LINE",
"817 172 LINE",
"809 172 LINE",
"700 32 OFFCURVE",
"593 -20 OFFCURVE",
"436 -20 CURVE SMOOTH",
"223 -20 OFFCURVE",
"98 96 OFFCURVE",
"98 289 CURVE SMOOTH",
"98 501 OFFCURVE",
"279 622 OFFCURVE",
"614 629 CURVE SMOOTH",
"821 635 LINE",
"821 707 LINE SMOOTH",
"821 914 OFFCURVE",
"742 1020 OFFCURVE",
"555 1020 CURVE SMOOTH",
"454 1020 OFFCURVE",
"350 992 OFFCURVE",
"242 936 CURVE",
"205 1022 LINE",
"324 1078 OFFCURVE",
"442 1106 OFFCURVE",
"559 1106 CURVE SMOOTH",
"798 1106 OFFCURVE",
"915 986 OFFCURVE",
"915 723 CURVE SMOOTH",
"915 0 LINE"
);
},
{
closed = 1;
nodes = (
"674 70 OFFCURVE",
"817 210 OFFCURVE",
"817 446 CURVE SMOOTH",
"817 553 LINE",
"627 545 LINE SMOOTH",
"322 530 OFFCURVE",
"203 456 OFFCURVE",
"203 285 CURVE SMOOTH",
"203 149 OFFCURVE",
"290 70 OFFCURVE",
"442 70 CURVE SMOOTH"
);
},
{
closed = 1;
nodes = (
"274 1333 LINE",
"829 1333 LINE",
"829 1251 LINE",
"274 1251 LINE"
);
}
);
width = 1085;
}
);
unicode = 0101;
},
{
glyphname = Abreve;
layers = (
{
layerId = "76F3DBC4-34E6-4FAC-BFB3-3E99EC0C3BB0";
name = Light;
paths = (
{
closed = 1;
nodes = (
"911 516 LINE",
"317 516 LINE",
"113 0 LINE",
"0 0 LINE",
"588 1468 LINE",
"653 1468 LINE",
"1229 0 LINE",
"1114 0 LINE"
);
},
{
closed = 1;
nodes = (
"354 608 LINE",
"877 608 LINE",
"678 1135 LINE SMOOTH",
"661 1176 OFFCURVE",
"641 1234 OFFCURVE",
"618 1307 CURVE",
"600 1243 OFFCURVE",
"580 1185 OFFCURVE",
"559 1133 CURVE SMOOTH"
);
},
{
closed = 1;
nodes = (
"448 1579 OFFCURVE",
"357 1661 OFFCURVE",
"342 1825 CURVE",
"424 1825 LINE",
"443 1709 OFFCURVE",
"502 1663 OFFCURVE",
"619 1663 CURVE SMOOTH",
"736 1663 OFFCURVE",
"795 1709 OFFCURVE",
"815 1825 CURVE",
"895 1825 LINE",
"875 1661 OFFCURVE",
"782 1579 OFFCURVE",
"617 1579 CURVE SMOOTH"
);
}
);
width = 1229;
}
);
unicode = 0102;
},
{
glyphname = abreve;
layers = (
{
layerId = "76F3DBC4-34E6-4FAC-BFB3-3E99EC0C3BB0";
name = Light;
paths = (
{
closed = 1;
nodes = (
"842 0 LINE",
"817 172 LINE",
"809 172 LINE",
"700 32 OFFCURVE",
"593 -20 OFFCURVE",
"436 -20 CURVE SMOOTH",
"223 -20 OFFCURVE",
"98 96 OFFCURVE",
"98 289 CURVE SMOOTH",
"98 501 OFFCURVE",
"279 622 OFFCURVE",
"614 629 CURVE SMOOTH",
"821 635 LINE",
"821 707 LINE SMOOTH",
"821 914 OFFCURVE",
"742 1020 OFFCURVE",
"555 1020 CURVE SMOOTH",
"454 1020 OFFCURVE",
"350 992 OFFCURVE",
"242 936 CURVE",
"205 1022 LINE",
"324 1078 OFFCURVE",
"442 1106 OFFCURVE",
"559 1106 CURVE SMOOTH",
"798 1106 OFFCURVE",
"915 986 OFFCURVE",
"915 723 CURVE SMOOTH",
"915 0 LINE"
);
},
{
closed = 1;
nodes = (
"674 70 OFFCURVE",
"817 210 OFFCURVE",
"817 446 CURVE SMOOTH",
"817 553 LINE",
"627 545 LINE SMOOTH",
"322 530 OFFCURVE",
"203 456 OFFCURVE",
"203 285 CURVE SMOOTH",
"203 149 OFFCURVE",
"290 70 OFFCURVE",
"442 70 CURVE SMOOTH"
);
},
{
closed = 1;
nodes = (
"383 1241 OFFCURVE",
"292 1323 OFFCURVE",
"277 1487 CURVE",
"359 1487 LINE",
"378 1371 OFFCURVE",
"437 1325 OFFCURVE",
"554 1325 CURVE SMOOTH",
"671 1325 OFFCURVE",
"730 1371 OFFCURVE",
"750 1487 CURVE",
"830 1487 LINE",
"810 1323 OFFCURVE",
"717 1241 OFFCURVE",
"552 1241 CURVE SMOOTH"
);
}
);
width = 1085;
}
);
unicode = 0103;
},
{
glyphname = Aogonek;
layers = (
{
layerId = "76F3DBC4-34E6-4FAC-BFB3-3E99EC0C3BB0";
name = Light;
paths = (
{
closed = 1;
nodes = (
"911 516 LINE",
"317 516 LINE",
"113 0 LINE",
"0 0 LINE",
"588 1468 LINE",
"653 1468 LINE",
"1229 0 LINE",
"1114 0 LINE"
);
},
{
closed = 1;
nodes = (
"354 608 LINE",
"877 608 LINE",
"678 1135 LINE SMOOTH",
"661 1176 OFFCURVE",
"641 1234 OFFCURVE",
"618 1307 CURVE",
"600 1243 OFFCURVE",
"580 1185 OFFCURVE",
"559 1133 CURVE SMOOTH"
);
},
{
closed = 1;
nodes = (
"1061 -321 OFFCURVE",
"1096 -358 OFFCURVE",
"1167 -358 CURVE SMOOTH",
"1200 -358 OFFCURVE",
"1227 -354 OFFCURVE",
"1249 -346 CURVE",
"1249 -430 LINE",
"1222 -441 OFFCURVE",
"1188 -446 OFFCURVE",
"1145 -446 CURVE SMOOTH",
"1033 -446 OFFCURVE",
"962 -380 OFFCURVE",
"962 -264 CURVE SMOOTH",
"962 -171 OFFCURVE",
"1018 -75 OFFCURVE",
"1114 0 CURVE",
"1204 0 LINE",
"1108 -84 OFFCURVE",
"1061 -152 OFFCURVE",
"1061 -248 CURVE SMOOTH"
);
}
);
width = 1229;
}
);
unicode = 0104;
},
{
glyphname = aogonek;
layers = (
{
layerId = "76F3DBC4-34E6-4FAC-BFB3-3E99EC0C3BB0";
name = Light;
paths = (
{
closed = 1;
nodes = (
"772 -321 OFFCURVE",
"807 -358 OFFCURVE",
"878 -358 CURVE SMOOTH",
"911 -358 OFFCURVE",
"938 -354 OFFCURVE",
"960 -346 CURVE",
"960 -430 LINE",
"933 -441 OFFCURVE",
"899 -446 OFFCURVE",
"856 -446 CURVE SMOOTH",
"744 -446 OFFCURVE",
"673 -380 OFFCURVE",
"673 -264 CURVE SMOOTH",
"673 -171 OFFCURVE",
"721 -82 OFFCURVE",
"840 13 CURVE",
"817 172 LINE",
"809 172 LINE",
"700 32 OFFCURVE",
"593 -20 OFFCURVE",
"436 -20 CURVE SMOOTH",
"223 -20 OFFCURVE",
"98 96 OFFCURVE",
"98 289 CURVE SMOOTH",
"98 501 OFFCURVE",
"279 622 OFFCURVE",
"614 629 CURVE SMOOTH",
"821 635 LINE",
"821 707 LINE SMOOTH",
"821 914 OFFCURVE",
"742 1020 OFFCURVE",
"555 1020 CURVE SMOOTH",
"454 1020 OFFCURVE",
"350 992 OFFCURVE",
"242 936 CURVE",
"205 1022 LINE",
"324 1078 OFFCURVE",
"442 1106 OFFCURVE",
"559 1106 CURVE SMOOTH",
"798 1106 OFFCURVE",
"915 986 OFFCURVE",
"915 723 CURVE SMOOTH",
"915 0 LINE",
"819 -84 OFFCURVE",
"772 -152 OFFCURVE",
"772 -248 CURVE SMOOTH"
);
},
{
closed = 1;
nodes = (
"674 70 OFFCURVE",
"817 210 OFFCURVE",
"817 446 CURVE SMOOTH",
"817 553 LINE",
"627 545 LINE SMOOTH",
"322 530 OFFCURVE",
"203 456 OFFCURVE",
"203 285 CURVE SMOOTH",
"203 149 OFFCURVE",
"290 70 OFFCURVE",
"442 70 CURVE SMOOTH"
);
}
);
width = 1085;
}
);
unicode = 0105;
},
{
glyphname = Cacute;
layers = (
{
layerId = "76F3DBC4-34E6-4FAC-BFB3-3E99EC0C3BB0";
name = Light;
paths = (
{
closed = 1;
nodes = (
"464 1391 OFFCURVE",
"240 1141 OFFCURVE",
"240 733 CURVE SMOOTH",
"240 316 OFFCURVE",
"446 74 OFFCURVE",
"815 74 CURVE SMOOTH",
"938 74 OFFCURVE",
"1050 90 OFFCURVE",
"1153 121 CURVE",
"1153 31 LINE",
"1056 -3 OFFCURVE",
"936 -20 OFFCURVE",
"791 -20 CURVE SMOOTH",
"380 -20 OFFCURVE",
"129 259 OFFCURVE",
"129 735 CURVE SMOOTH",
"129 1032 OFFCURVE",
"245 1267 OFFCURVE",
"457 1391 CURVE SMOOTH",
"562 1452 OFFCURVE",
"685 1483 OFFCURVE",
"825 1483 CURVE SMOOTH",
"968 1483 OFFCURVE",
"1095 1456 OFFCURVE",
"1208 1403 CURVE",
"1167 1311 LINE",
"1060 1364 OFFCURVE",
"948 1391 OFFCURVE",
"831 1391 CURVE SMOOTH"
);
},
{
closed = 1;
nodes = (
"657 1595 LINE",
"754 1700 OFFCURVE",
"864 1843 OFFCURVE",
"899 1907 CURVE",
"1040 1907 LINE",
"1040 1890 LINE",
"992 1821 OFFCURVE",
"866 1695 OFFCURVE",
"727 1579 CURVE",
"657 1579 LINE"
);
}
);
width = 1272;
}
);
unicode = 0106;
},
{
glyphname = cacute;
layers = (
{
layerId = "76F3DBC4-34E6-4FAC-BFB3-3E99EC0C3BB0";
name = Light;
paths = (
{
closed = 1;
nodes = (
"305 -20 OFFCURVE",
"119 186 OFFCURVE",
"119 537 CURVE SMOOTH",
"119 897 OFFCURVE",
"314 1108 OFFCURVE",
"631 1108 CURVE SMOOTH",
"725 1108 OFFCURVE",
"815 1092 OFFCURVE",
"901 1059 CURVE",
"874 971 LINE",
"780 1002 OFFCURVE",
"698 1018 OFFCURVE",
"629 1018 CURVE SMOOTH",
"362 1018 OFFCURVE",
"223 848 OFFCURVE",
"223 539 CURVE SMOOTH",
"223 246 OFFCURVE",
"367 70 OFFCURVE",
"614 70 CURVE SMOOTH",
"713 70 OFFCURVE",
"804 88 OFFCURVE",
"889 123 CURVE",
"889 31 LINE",
"820 -3 OFFCURVE",
"729 -20 OFFCURVE",
"616 -20 CURVE SMOOTH"
);
},
{
closed = 1;
nodes = (
"444 1257 LINE",
"541 1362 OFFCURVE",
"651 1505 OFFCURVE",
"686 1569 CURVE",
"827 1569 LINE",
"827 1552 LINE",
"779 1483 OFFCURVE",
"653 1357 OFFCURVE",
"514 1241 CURVE",
"444 1241 LINE"
);
}
);
width = 973;
}
);
unicode = 0107;
},
{
glyphname = Ccircumflex;
layers = (
{
layerId = "76F3DBC4-34E6-4FAC-BFB3-3E99EC0C3BB0";
name = Light;
paths = (
{
closed = 1;
nodes = (
"464 1391 OFFCURVE",
"240 1141 OFFCURVE",
"240 733 CURVE SMOOTH",
"240 316 OFFCURVE",
"446 74 OFFCURVE",
"815 74 CURVE SMOOTH",
"938 74 OFFCURVE",
"1050 90 OFFCURVE",
"1153 121 CURVE",
"1153 31 LINE",
"1056 -3 OFFCURVE",
"936 -20 OFFCURVE",
"791 -20 CURVE SMOOTH",
"380 -20 OFFCURVE",
"129 259 OFFCURVE",
"129 735 CURVE SMOOTH",
"129 1032 OFFCURVE",
"245 1267 OFFCURVE",
"457 1391 CURVE SMOOTH",
"562 1452 OFFCURVE",
"685 1483 OFFCURVE",
"825 1483 CURVE SMOOTH",
"968 1483 OFFCURVE",
"1095 1456 OFFCURVE",
"1208 1403 CURVE",
"1167 1311 LINE",
"1060 1364 OFFCURVE",
"948 1391 OFFCURVE",
"831 1391 CURVE SMOOTH"
);
},
{
closed = 1;
nodes = (
"473 1595 LINE",
"556 1684 OFFCURVE",
"660 1818 OFFCURVE",
"715 1907 CURVE",
"813 1907 LINE",
"858 1827 OFFCURVE",
"939 1723 OFFCURVE",
"1055 1595 CURVE",
"1055 1579 LINE",
"985 1579 LINE",
"904 1646 OFFCURVE",
"830 1715 OFFCURVE",
"764 1786 CURVE",
"692 1710 OFFCURVE",
"618 1641 OFFCURVE",
"543 1579 CURVE",
"473 1579 LINE"
);
}
);
width = 1272;
}
);
unicode = 0108;
},
{
glyphname = ccircumflex;
layers = (
{
layerId = "76F3DBC4-34E6-4FAC-BFB3-3E99EC0C3BB0";
name = Light;
paths = (
{
closed = 1;
nodes = (
"305 -20 OFFCURVE",
"119 186 OFFCURVE",
"119 537 CURVE SMOOTH",
"119 897 OFFCURVE",
"314 1108 OFFCURVE",
"631 1108 CURVE SMOOTH",
"725 1108 OFFCURVE",
"815 1092 OFFCURVE",
"901 1059 CURVE",
"874 971 LINE",
"780 1002 OFFCURVE",
"698 1018 OFFCURVE",
"629 1018 CURVE SMOOTH",
"362 1018 OFFCURVE",
"223 848 OFFCURVE",
"223 539 CURVE SMOOTH",
"223 246 OFFCURVE",
"367 70 OFFCURVE",
"614 70 CURVE SMOOTH",
"713 70 OFFCURVE",
"804 88 OFFCURVE",
"889 123 CURVE",
"889 31 LINE",
"820 -3 OFFCURVE",
"729 -20 OFFCURVE",
"616 -20 CURVE SMOOTH"
);
},
{
closed = 1;
nodes = (
"290 1257 LINE",
"373 1346 OFFCURVE",
"477 1480 OFFCURVE",
"532 1569 CURVE",
"630 1569 LINE",
"675 1489 OFFCURVE",
"756 1385 OFFCURVE",
"872 1257 CURVE",
"872 1241 LINE",
"802 1241 LINE",
"721 1308 OFFCURVE",
"647 1377 OFFCURVE",
"581 1448 CURVE",
"509 1372 OFFCURVE",
"435 1303 OFFCURVE",
"360 1241 CURVE",
"290 1241 LINE"
);
}
);
width = 973;
}
);
unicode = 0109;
},
{
glyphname = Cdot;
layers = (
{
layerId = "76F3DBC4-34E6-4FAC-BFB3-3E99EC0C3BB0";
name = Light;
paths = (
{
closed = 1;
nodes = (
"464 1391 OFFCURVE",
"240 1141 OFFCURVE",
"240 733 CURVE SMOOTH",
"240 316 OFFCURVE",
"446 74 OFFCURVE",
"815 74 CURVE SMOOTH",
"938 74 OFFCURVE",
"1050 90 OFFCURVE",
"1153 121 CURVE",
"1153 31 LINE",
"1056 -3 OFFCURVE",
"936 -20 OFFCURVE",
"791 -20 CURVE SMOOTH",
"380 -20 OFFCURVE",
"129 259 OFFCURVE",
"129 735 CURVE SMOOTH",
"129 1032 OFFCURVE",
"245 1267 OFFCURVE",
"457 1391 CURVE SMOOTH",
"562 1452 OFFCURVE",
"685 1483 OFFCURVE",
"825 1483 CURVE SMOOTH",
"968 1483 OFFCURVE",
"1095 1456 OFFCURVE",
"1208 1403 CURVE",
"1167 1311 LINE",
"1060 1364 OFFCURVE",
"948 1391 OFFCURVE",
"831 1391 CURVE SMOOTH"
);
},
{
closed = 1;
nodes = (
"717 1791 OFFCURVE",
"738 1823 OFFCURVE",
"781 1823 CURVE SMOOTH",
"822 1823 OFFCURVE",
"846 1788 OFFCURVE",
"846 1727 CURVE SMOOTH",
"846 1667 OFFCURVE",
"822 1630 OFFCURVE",
"781 1630 CURVE SMOOTH",
"738 1630 OFFCURVE",
"717 1662 OFFCURVE",
"717 1727 CURVE SMOOTH"
);
}
);
width = 1272;
}
);
unicode = 010A;
},
{
glyphname = cdot;
layers = (
{
layerId = "76F3DBC4-34E6-4FAC-BFB3-3E99EC0C3BB0";
name = Light;
paths = (
{
closed = 1;
nodes = (
"305 -20 OFFCURVE",
"119 186 OFFCURVE",
"119 537 CURVE SMOOTH",
"119 897 OFFCURVE",
"314 1108 OFFCURVE",
"631 1108 CURVE SMOOTH",
"725 1108 OFFCURVE",
"815 1092 OFFCURVE",
"901 1059 CURVE",
"874 971 LINE",
"780 1002 OFFCURVE",
"698 1018 OFFCURVE",
"629 1018 CURVE SMOOTH",
"362 1018 OFFCURVE",
"223 848 OFFCURVE",
"223 539 CURVE SMOOTH",
"223 246 OFFCURVE",
"367 70 OFFCURVE",
"614 70 CURVE SMOOTH",
"713 70 OFFCURVE",
"804 88 OFFCURVE",
"889 123 CURVE",
"889 31 LINE",
"820 -3 OFFCURVE",
"729 -20 OFFCURVE",
"616 -20 CURVE SMOOTH"
);
},
{
closed = 1;
nodes = (
"522 1453 OFFCURVE",
"543 1485 OFFCURVE",
"586 1485 CURVE SMOOTH",
"627 1485 OFFCURVE",
"651 1450 OFFCURVE",
"651 1389 CURVE SMOOTH",
"651 1329 OFFCURVE",
"627 1292 OFFCURVE",
"586 1292 CURVE SMOOTH",
"543 1292 OFFCURVE",
"522 1324 OFFCURVE",
"522 1389 CURVE SMOOTH"
);
}
);
width = 973;
}
);
unicode = 010B;
},
{
glyphname = Ccaron;
layers = (
{
layerId = "76F3DBC4-34E6-4FAC-BFB3-3E99EC0C3BB0";
name = Light;
paths = (
{
closed = 1;
nodes = (
"464 1391 OFFCURVE",
"240 1141 OFFCURVE",
"240 733 CURVE SMOOTH",
"240 316 OFFCURVE",
"446 74 OFFCURVE",
"815 74 CURVE SMOOTH",
"938 74 OFFCURVE",
"1050 90 OFFCURVE",
"1153 121 CURVE",
"1153 31 LINE",
"1056 -3 OFFCURVE",
"936 -20 OFFCURVE",
"791 -20 CURVE SMOOTH",
"380 -20 OFFCURVE",
"129 259 OFFCURVE",
"129 735 CURVE SMOOTH",
"129 1032 OFFCURVE",
"245 1267 OFFCURVE",
"457 1391 CURVE SMOOTH",
"562 1452 OFFCURVE",
"685 1483 OFFCURVE",
"825 1483 CURVE SMOOTH",
"968 1483 OFFCURVE",
"1095 1456 OFFCURVE",
"1208 1403 CURVE",
"1167 1311 LINE",
"1060 1364 OFFCURVE",
"948 1391 OFFCURVE",
"831 1391 CURVE SMOOTH"
);
},
{
closed = 1;
nodes = (
"1051 1890 LINE",
"938 1765 OFFCURVE",
"857 1661 OFFCURVE",
"809 1579 CURVE",
"711 1579 LINE",
"660 1664 OFFCURVE",
"580 1768 OFFCURVE",
"469 1890 CURVE",
"469 1907 LINE",
"539 1907 LINE",
"615 1844 OFFCURVE",
"689 1775 OFFCURVE",
"760 1700 CURVE",
"832 1776 OFFCURVE",
"906 1845 OFFCURVE",
"981 1907 CURVE",
"1051 1907 LINE"
);
}
);
width = 1272;
}
);
unicode = 010C;
},
{
glyphname = ccaron;
layers = (
{
layerId = "76F3DBC4-34E6-4FAC-BFB3-3E99EC0C3BB0";
name = Light;
paths = (
{
closed = 1;
nodes = (
"305 -20 OFFCURVE",
"119 186 OFFCURVE",
"119 537 CURVE SMOOTH",
"119 897 OFFCURVE",
"314 1108 OFFCURVE",
"631 1108 CURVE SMOOTH",
"725 1108 OFFCURVE",
"815 1092 OFFCURVE",
"901 1059 CURVE",
"874 971 LINE",
"780 1002 OFFCURVE",
"698 1018 OFFCURVE",
"629 1018 CURVE SMOOTH",
"362 1018 OFFCURVE",
"223 848 OFFCURVE",
"223 539 CURVE SMOOTH",
"223 246 OFFCURVE",
"367 70 OFFCURVE",
"614 70 CURVE SMOOTH",
"713 70 OFFCURVE",
"804 88 OFFCURVE",
"889 123 CURVE",
"889 31 LINE",
"820 -3 OFFCURVE",
"729 -20 OFFCURVE",
"616 -20 CURVE SMOOTH"
);
},
{
closed = 1;
nodes = (
"872 1552 LINE",
"759 1427 OFFCURVE",
"678 1323 OFFCURVE",
"630 1241 CURVE",
"532 1241 LINE",
"481 1326 OFFCURVE",
"401 1430 OFFCURVE",
"290 1552 CURVE",
"290 1569 LINE",
"360 1569 LINE",
"436 1506 OFFCURVE",
"510 1437 OFFCURVE",
"581 1362 CURVE",
"653 1438 OFFCURVE",
"727 1507 OFFCURVE",
"802 1569 CURVE",
"872 1569 LINE"
);
}
);
width = 973;
}
);
unicode = 010D;
},
{
glyphname = Dcaron;
layers = (
{
layerId = "76F3DBC4-34E6-4FAC-BFB3-3E99EC0C3BB0";
name = Light;
paths = (
{
closed = 1;
nodes = (
"1317 254 OFFCURVE",
"1056 0 OFFCURVE",
"557 0 CURVE SMOOTH",
"207 0 LINE",
"207 1462 LINE",
"602 1462 LINE SMOOTH",
"1069 1462 OFFCURVE",
"1317 1213 OFFCURVE",
"1317 745 CURVE SMOOTH"
);
},
{
closed = 1;
nodes = (
"1206 1160 OFFCURVE",
"990 1372 OFFCURVE",
"578 1372 CURVE SMOOTH",
"309 1372 LINE",
"309 90 LINE",
"551 90 LINE SMOOTH",
"988 90 OFFCURVE",
"1206 307 OFFCURVE",
"1206 741 CURVE SMOOTH"
);
},
{
closed = 1;
nodes = (
"961 1890 LINE",
"848 1765 OFFCURVE",
"767 1661 OFFCURVE",
"719 1579 CURVE",
"621 1579 LINE",
"570 1664 OFFCURVE",
"490 1768 OFFCURVE",
"379 1890 CURVE",
"379 1907 LINE",
"449 1907 LINE",
"525 1844 OFFCURVE",
"599 1775 OFFCURVE",
"670 1700 CURVE",
"742 1776 OFFCURVE",
"816 1845 OFFCURVE",
"891 1907 CURVE",
"961 1907 LINE"
);
}
);
width = 1446;
}
);
unicode = 010E;
},
{
glyphname = dcaron;
layers = (
{
layerId = "76F3DBC4-34E6-4FAC-BFB3-3E99EC0C3BB0";
name = Light;
paths = (
{
closed = 1;
nodes = (
"737 1108 OFFCURVE",
"847 1057 OFFCURVE",
"938 918 CURVE",
"944 918 LINE",
"940 1002 OFFCURVE",
"938 1084 OFFCURVE",
"938 1165 CURVE SMOOTH",
"938 1556 LINE",
"1036 1556 LINE",
"1036 0 LINE",
"971 0 LINE",
"946 166 LINE",
"938 166 LINE",
"855 42 OFFCURVE",
"737 -20 OFFCURVE",
"582 -20 CURVE SMOOTH",
"282 -20 OFFCURVE",
"119 171 OFFCURVE",
"119 528 CURVE SMOOTH",
"119 904 OFFCURVE",
"280 1108 OFFCURVE",
"580 1108 CURVE SMOOTH"
);
},
{
closed = 1;
nodes = (
"343 1018 OFFCURVE",
"223 847 OFFCURVE",
"223 530 CURVE SMOOTH",
"223 222 OFFCURVE",
"343 68 OFFCURVE",
"582 68 CURVE SMOOTH",
"827 68 OFFCURVE",
"938 200 OFFCURVE",
"938 528 CURVE SMOOTH",
"938 545 LINE SMOOTH",
"938 881 OFFCURVE",
"832 1018 OFFCURVE",
"580 1018 CURVE SMOOTH"
);
},
{
closed = 1;
nodes = (
"1141 1245 LINE",
"1169 1305 OFFCURVE",
"1212 1453 OFFCURVE",
"1227 1556 CURVE",
"1339 1556 LINE",
"1339 1542 LINE",
"1319 1462 OFFCURVE",
"1265 1334 OFFCURVE",
"1194 1229 CURVE",
"1141 1229 LINE"
);
}
);
width = 1219;
}
);
unicode = 010F;
},
{
glyphname = Dcroat;
layers = (
{
layerId = "76F3DBC4-34E6-4FAC-BFB3-3E99EC0C3BB0";
name = Light;
paths = (
{
closed = 1;
nodes = (
"1317 254 OFFCURVE",
"1056 0 OFFCURVE",
"557 0 CURVE SMOOTH",
"207 0 LINE",
"207 678 LINE",
"47 678 LINE",
"47 772 LINE",
"207 772 LINE",
"207 1462 LINE",
"602 1462 LINE SMOOTH",
"1069 1462 OFFCURVE",
"1317 1213 OFFCURVE",
"1317 745 CURVE SMOOTH"
);
},
{
closed = 1;
nodes = (
"1206 1160 OFFCURVE",
"990 1372 OFFCURVE",
"578 1372 CURVE SMOOTH",
"309 1372 LINE",
"309 772 LINE",
"715 772 LINE",
"715 678 LINE",
"309 678 LINE",
"309 90 LINE",
"551 90 LINE SMOOTH",
"988 90 OFFCURVE",
"1206 307 OFFCURVE",
"1206 741 CURVE SMOOTH"
);
}
);
width = 1466;
}
);
unicode = 0110;
},
{
glyphname = dcroat;
layers = (
{
layerId = "76F3DBC4-34E6-4FAC-BFB3-3E99EC0C3BB0";
name = Light;
paths = (
{
closed = 1;
nodes = (
"737 1108 OFFCURVE",
"847 1057 OFFCURVE",
"938 918 CURVE",
"944 918 LINE",
"940 1002 OFFCURVE",
"938 1084 OFFCURVE",
"938 1165 CURVE SMOOTH",
"938 1272 LINE",
"465 1272 LINE",
"465 1354 LINE",
"938 1354 LINE",
"938 1556 LINE",
"1036 1556 LINE",
"1036 1354 LINE",
"1192 1354 LINE",
"1192 1272 LINE",
"1036 1272 LINE",
"1036 0 LINE",
"971 0 LINE",
"946 166 LINE",
"938 166 LINE",
"855 42 OFFCURVE",
"737 -20 OFFCURVE",
"582 -20 CURVE SMOOTH",
"282 -20 OFFCURVE",
"119 171 OFFCURVE",
"119 528 CURVE SMOOTH",
"119 904 OFFCURVE",
"280 1108 OFFCURVE",
"580 1108 CURVE SMOOTH"
);
},
{
closed = 1;
nodes = (
"343 1018 OFFCURVE",
"223 847 OFFCURVE",
"223 530 CURVE SMOOTH",
"223 222 OFFCURVE",
"343 68 OFFCURVE",
"582 68 CURVE SMOOTH",
"827 68 OFFCURVE",
"938 200 OFFCURVE",
"938 528 CURVE SMOOTH",
"938 545 LINE SMOOTH",
"938 881 OFFCURVE",
"832 1018 OFFCURVE",
"580 1018 CURVE SMOOTH"
);
}
);
width = 1219;
}
);
unicode = 0111;
},
{
glyphname = Emacron;
layers = (
{
layerId = "76F3DBC4-34E6-4FAC-BFB3-3E99EC0C3BB0";
name = Light;
paths = (
{
closed = 1;
nodes = (
"1006 0 LINE",
"207 0 LINE",
"207 1462 LINE",
"1006 1462 LINE",
"1006 1368 LINE",
"309 1368 LINE",
"309 815 LINE",
"967 815 LINE",
"967 721 LINE",
"309 721 LINE",
"309 94 LINE",
"1006 94 LINE"
);
},
{
closed = 1;
nodes = (
"322 1671 LINE",
"877 1671 LINE",
"877 1589 LINE",
"322 1589 LINE"
);
}
);
width = 1130;
}
);
unicode = 0112;
},
{
glyphname = emacron;
layers = (
{
layerId = "76F3DBC4-34E6-4FAC-BFB3-3E99EC0C3BB0";
name = Light;
paths = (
{
closed = 1;
nodes = (
"305 -20 OFFCURVE",
"119 184 OFFCURVE",
"119 535 CURVE SMOOTH",
"119 882 OFFCURVE",
"303 1108 OFFCURVE",
"592 1108 CURVE SMOOTH",
"848 1108 OFFCURVE",
"1006 917 OFFCURVE",
"1006 610 CURVE SMOOTH",
"1006 530 LINE",
"223 530 LINE",
"226 231 OFFCURVE",
"366 70 OFFCURVE",
"621 70 CURVE SMOOTH",
"745 70 OFFCURVE",
"819 82 OFFCURVE",
"963 139 CURVE",
"963 49 LINE",
"840 -4 OFFCURVE",
"746 -20 OFFCURVE",
"621 -20 CURVE SMOOTH"
);
},
{
closed = 1;
nodes = (
"383 1020 OFFCURVE",
"250 878 OFFCURVE",
"229 618 CURVE",
"901 618 LINE",
"901 870 OFFCURVE",
"785 1020 OFFCURVE",
"592 1020 CURVE SMOOTH"
);
},
{
closed = 1;
nodes = (
"309 1333 LINE",
"864 1333 LINE",
"864 1251 LINE",
"309 1251 LINE"
);
}
);
width = 1124;
}
);
unicode = 0113;
},
{
glyphname = Ebreve;
layers = (
{
layerId = "76F3DBC4-34E6-4FAC-BFB3-3E99EC0C3BB0";
name = Light;
paths = (
{
closed = 1;
nodes = (
"1006 0 LINE",
"207 0 LINE",
"207 1462 LINE",
"1006 1462 LINE",
"1006 1368 LINE",
"309 1368 LINE",
"309 815 LINE",
"967 815 LINE",
"967 721 LINE",
"309 721 LINE",
"309 94 LINE",
"1006 94 LINE"
);
},
{
closed = 1;
nodes = (
"427 1579 OFFCURVE",
"336 1661 OFFCURVE",
"321 1825 CURVE",
"403 1825 LINE",
"422 1709 OFFCURVE",
"481 1663 OFFCURVE",
"598 1663 CURVE SMOOTH",
"715 1663 OFFCURVE",
"774 1709 OFFCURVE",
"794 1825 CURVE",
"874 1825 LINE",
"854 1661 OFFCURVE",
"761 1579 OFFCURVE",
"596 1579 CURVE SMOOTH"
);
}
);
width = 1130;
}
);
unicode = 0114;
},
{
glyphname = ebreve;
layers = (
{
layerId = "76F3DBC4-34E6-4FAC-BFB3-3E99EC0C3BB0";
name = Light;
paths = (
{
closed = 1;
nodes = (
"305 -20 OFFCURVE",
"119 184 OFFCURVE",
"119 535 CURVE SMOOTH",
"119 882 OFFCURVE",
"303 1108 OFFCURVE",
"592 1108 CURVE SMOOTH",
"848 1108 OFFCURVE",
"1006 917 OFFCURVE",
"1006 610 CURVE SMOOTH",
"1006 530 LINE",
"223 530 LINE",
"226 231 OFFCURVE",
"366 70 OFFCURVE",
"621 70 CURVE SMOOTH",
"745 70 OFFCURVE",
"819 82 OFFCURVE",
"963 139 CURVE",
"963 49 LINE",
"840 -4 OFFCURVE",
"746 -20 OFFCURVE",
"621 -20 CURVE SMOOTH"
);
},
{
closed = 1;
nodes = (
"383 1020 OFFCURVE",
"250 878 OFFCURVE",
"229 618 CURVE",
"901 618 LINE",
"901 870 OFFCURVE",
"785 1020 OFFCURVE",
"592 1020 CURVE SMOOTH"
);
},
{
closed = 1;
nodes = (
"412 1241 OFFCURVE",
"321 1323 OFFCURVE",
"306 1487 CURVE",
"388 1487 LINE",
"407 1371 OFFCURVE",
"466 1325 OFFCURVE",
"583 1325 CURVE SMOOTH",
"700 1325 OFFCURVE",
"759 1371 OFFCURVE",
"779 1487 CURVE",
"859 1487 LINE",
"839 1323 OFFCURVE",
"746 1241 OFFCURVE",
"581 1241 CURVE SMOOTH"
);
}
);
width = 1124;
}
);
unicode = 0115;
},
{
glyphname = Edotaccent;
layers = (
{
layerId = "76F3DBC4-34E6-4FAC-BFB3-3E99EC0C3BB0";
name = Light;
paths = (
{
closed = 1;
nodes = (
"1006 0 LINE",
"207 0 LINE",
"207 1462 LINE",
"1006 1462 LINE",
"1006 1368 LINE",
"309 1368 LINE",
"309 815 LINE",
"967 815 LINE",
"967 721 LINE",
"309 721 LINE",
"309 94 LINE",
"1006 94 LINE"
);
},
{
closed = 1;
nodes = (
"543 1762 OFFCURVE",
"564 1794 OFFCURVE",
"607 1794 CURVE SMOOTH",
"648 1794 OFFCURVE",
"672 1759 OFFCURVE",
"672 1698 CURVE SMOOTH",
"672 1638 OFFCURVE",
"648 1601 OFFCURVE",
"607 1601 CURVE SMOOTH",
"564 1601 OFFCURVE",
"543 1633 OFFCURVE",
"543 1698 CURVE SMOOTH"
);
}
);
width = 1130;
}
);
unicode = 0116;
},
{
glyphname = edotaccent;
layers = (
{
layerId = "76F3DBC4-34E6-4FAC-BFB3-3E99EC0C3BB0";
name = Light;
paths = (
{
closed = 1;
nodes = (
"305 -20 OFFCURVE",
"119 184 OFFCURVE",
"119 535 CURVE SMOOTH",
"119 882 OFFCURVE",
"303 1108 OFFCURVE",
"592 1108 CURVE SMOOTH",
"848 1108 OFFCURVE",
"1006 917 OFFCURVE",
"1006 610 CURVE SMOOTH",
"1006 530 LINE",
"223 530 LINE",
"226 231 OFFCURVE",
"366 70 OFFCURVE",
"621 70 CURVE SMOOTH",
"745 70 OFFCURVE",
"819 82 OFFCURVE",
"963 139 CURVE",
"963 49 LINE",
"840 -4 OFFCURVE",
"746 -20 OFFCURVE",
"621 -20 CURVE SMOOTH"
);
},
{
closed = 1;
nodes = (
"383 1020 OFFCURVE",
"250 878 OFFCURVE",
"229 618 CURVE",
"901 618 LINE",
"901 870 OFFCURVE",
"785 1020 OFFCURVE",
"592 1020 CURVE SMOOTH"
);
},
{
closed = 1;
nodes = (
"512 1453 OFFCURVE",
"533 1485 OFFCURVE",
"576 1485 CURVE SMOOTH",
"617 1485 OFFCURVE",
"641 1450 OFFCURVE",
"641 1389 CURVE SMOOTH",
"641 1329 OFFCURVE",
"617 1292 OFFCURVE",
"576 1292 CURVE SMOOTH",
"533 1292 OFFCURVE",
"512 1324 OFFCURVE",
"512 1389 CURVE SMOOTH"
);
}
);
width = 1124;
}
);
unicode = 0117;
},
{
glyphname = Eogonek;
layers = (
{
layerId = "76F3DBC4-34E6-4FAC-BFB3-3E99EC0C3BB0";
name = Light;
paths = (
{
closed = 1;
nodes = (
"1006 0 LINE",
"207 0 LINE",
"207 1462 LINE",
"1006 1462 LINE",
"1006 1368 LINE",
"309 1368 LINE",
"309 815 LINE",
"967 815 LINE",
"967 721 LINE",
"309 721 LINE",
"309 94 LINE",
"1006 94 LINE"
);
},
{
closed = 1;
nodes = (
"754 -321 OFFCURVE",
"789 -358 OFFCURVE",
"860 -358 CURVE SMOOTH",
"893 -358 OFFCURVE",
"920 -354 OFFCURVE",
"942 -346 CURVE",
"942 -430 LINE",
"915 -441 OFFCURVE",
"881 -446 OFFCURVE",
"838 -446 CURVE SMOOTH",
"726 -446 OFFCURVE",
"655 -380 OFFCURVE",
"655 -264 CURVE SMOOTH",
"655 -171 OFFCURVE",
"711 -75 OFFCURVE",
"807 0 CURVE",
"897 0 LINE",
"801 -84 OFFCURVE",
"754 -152 OFFCURVE",
"754 -248 CURVE SMOOTH"
);
}
);
width = 1130;
}
);
unicode = 0118;
},
{
glyphname = eogonek;
layers = (
{
layerId = "76F3DBC4-34E6-4FAC-BFB3-3E99EC0C3BB0";
name = Light;
paths = (
{
closed = 1;
nodes = (
"305 -20 OFFCURVE",
"119 184 OFFCURVE",
"119 535 CURVE SMOOTH",
"119 882 OFFCURVE",
"303 1108 OFFCURVE",
"592 1108 CURVE SMOOTH",
"848 1108 OFFCURVE",
"1006 917 OFFCURVE",
"1006 610 CURVE SMOOTH",
"1006 530 LINE",
"223 530 LINE",
"226 231 OFFCURVE",
"366 70 OFFCURVE",
"621 70 CURVE SMOOTH",
"745 70 OFFCURVE",
"819 82 OFFCURVE",
"963 139 CURVE",
"963 49 LINE",
"840 -4 OFFCURVE",
"746 -20 OFFCURVE",
"621 -20 CURVE SMOOTH"
);
},
{
closed = 1;
nodes = (
"383 1020 OFFCURVE",
"250 878 OFFCURVE",
"229 618 CURVE",
"901 618 LINE",
"901 870 OFFCURVE",
"785 1020 OFFCURVE",
"592 1020 CURVE SMOOTH"
);
},
{
closed = 1;
nodes = (
"752 -284 OFFCURVE",
"787 -321 OFFCURVE",
"858 -321 CURVE SMOOTH",
"891 -321 OFFCURVE",
"918 -317 OFFCURVE",
"940 -309 CURVE",
"940 -393 LINE",
"913 -404 OFFCURVE",
"879 -409 OFFCURVE",
"836 -409 CURVE SMOOTH",
"724 -409 OFFCURVE",
"653 -343 OFFCURVE",
"653 -227 CURVE SMOOTH",
"653 -134 OFFCURVE",
"709 -38 OFFCURVE",
"805 37 CURVE",
"895 37 LINE",
"799 -47 OFFCURVE",
"752 -115 OFFCURVE",
"752 -211 CURVE SMOOTH"
);
}
);
width = 1124;
}
);
unicode = 0119;
},
{
glyphname = Ecaron;
layers = (
{
layerId = "76F3DBC4-34E6-4FAC-BFB3-3E99EC0C3BB0";
name = Light;
paths = (
{
closed = 1;
nodes = (
"1006 0 LINE",
"207 0 LINE",
"207 1462 LINE",
"1006 1462 LINE",
"1006 1368 LINE",
"309 1368 LINE",
"309 815 LINE",
"967 815 LINE",
"967 721 LINE",
"309 721 LINE",
"309 94 LINE",
"1006 94 LINE"
);
},
{
closed = 1;
nodes = (
"889 1890 LINE",
"776 1765 OFFCURVE",
"695 1661 OFFCURVE",
"647 1579 CURVE",
"549 1579 LINE",
"498 1664 OFFCURVE",
"418 1768 OFFCURVE",
"307 1890 CURVE",
"307 1907 LINE",
"377 1907 LINE",
"453 1844 OFFCURVE",
"527 1775 OFFCURVE",
"598 1700 CURVE",
"670 1776 OFFCURVE",
"744 1845 OFFCURVE",
"819 1907 CURVE",
"889 1907 LINE"
);
}
);
width = 1130;
}
);
unicode = 011A;
},
{
glyphname = ecaron;
layers = (
{
layerId = "76F3DBC4-34E6-4FAC-BFB3-3E99EC0C3BB0";
name = Light;
paths = (
{
closed = 1;
nodes = (
"305 -20 OFFCURVE",
"119 184 OFFCURVE",
"119 535 CURVE SMOOTH",
"119 882 OFFCURVE",
"303 1108 OFFCURVE",
"592 1108 CURVE SMOOTH",
"848 1108 OFFCURVE",
"1006 917 OFFCURVE",
"1006 610 CURVE SMOOTH",
"1006 530 LINE",
"223 530 LINE",
"226 231 OFFCURVE",
"366 70 OFFCURVE",
"621 70 CURVE SMOOTH",
"745 70 OFFCURVE",
"819 82 OFFCURVE",
"963 139 CURVE",
"963 49 LINE",
"840 -4 OFFCURVE",
"746 -20 OFFCURVE",
"621 -20 CURVE SMOOTH"
);
},
{
closed = 1;
nodes = (
"383 1020 OFFCURVE",
"250 878 OFFCURVE",
"229 618 CURVE",
"901 618 LINE",
"901 870 OFFCURVE",
"785 1020 OFFCURVE",
"592 1020 CURVE SMOOTH"
);
},
{
closed = 1;
nodes = (
"866 1552 LINE",
"753 1427 OFFCURVE",
"672 1323 OFFCURVE",
"624 1241 CURVE",
"526 1241 LINE",
"475 1326 OFFCURVE",
"395 1430 OFFCURVE",
"284 1552 CURVE",
"284 1569 LINE",
"354 1569 LINE",
"430 1506 OFFCURVE",
"504 1437 OFFCURVE",
"575 1362 CURVE",
"647 1438 OFFCURVE",
"721 1507 OFFCURVE",
"796 1569 CURVE",
"866 1569 LINE"
);
}
);
width = 1124;
}
);
unicode = 011B;
},
{
glyphname = Gcircumflex;
layers = (
{
layerId = "76F3DBC4-34E6-4FAC-BFB3-3E99EC0C3BB0";
name = Light;
paths = (
{
closed = 1;
nodes = (
"782 737 LINE",
"1321 737 LINE",
"1321 70 LINE",
"1180 10 OFFCURVE",
"1021 -20 OFFCURVE",
"844 -20 CURVE SMOOTH",
"383 -20 OFFCURVE",
"129 252 OFFCURVE",
"129 729 CURVE SMOOTH",
"129 1026 OFFCURVE",
"255 1266 OFFCURVE",
"483 1391 CURVE SMOOTH",
"596 1454 OFFCURVE",
"727 1485 OFFCURVE",
"874 1485 CURVE SMOOTH",
"1033 1485 OFFCURVE",
"1176 1456 OFFCURVE",
"1303 1397 CURVE",
"1262 1305 LINE",
"1135 1364 OFFCURVE",
"1004 1393 OFFCURVE",
"868 1393 CURVE SMOOTH",
"483 1393 OFFCURVE",
"240 1137 OFFCURVE",
"240 733 CURVE SMOOTH",
"240 293 OFFCURVE",
"458 70 OFFCURVE",
"874 70 CURVE SMOOTH",
"1009 70 OFFCURVE",
"1123 89 OFFCURVE",
"1217 127 CURVE",
"1217 641 LINE",
"782 641 LINE"
);
},
{
closed = 1;
nodes = (
"512 1595 LINE",
"595 1684 OFFCURVE",
"699 1818 OFFCURVE",
"754 1907 CURVE",
"852 1907 LINE",
"897 1827 OFFCURVE",
"978 1723 OFFCURVE",
"1094 1595 CURVE",
"1094 1579 LINE",
"1024 1579 LINE",
"943 1646 OFFCURVE",
"869 1715 OFFCURVE",
"803 1786 CURVE",
"731 1710 OFFCURVE",
"657 1641 OFFCURVE",
"582 1579 CURVE",
"512 1579 LINE"
);
}
);
width = 1481;
}
);
unicode = 011C;
},
{
glyphname = gcircumflex;
layers = (
{
layerId = "76F3DBC4-34E6-4FAC-BFB3-3E99EC0C3BB0";
name = Light;
paths = (
{
closed = 1;
nodes = (
"1030 1087 LINE",
"1030 1018 LINE",
"805 1004 LINE",
"865 929 OFFCURVE",
"895 847 OFFCURVE",
"895 758 CURVE SMOOTH",
"895 549 OFFCURVE",
"745 406 OFFCURVE",
"510 406 CURVE SMOOTH",
"461 406 OFFCURVE",
"426 408 OFFCURVE",
"406 412 CURVE",
"327 371 OFFCURVE",
"285 313 OFFCURVE",
"285 250 CURVE SMOOTH",
"285 181 OFFCURVE",
"333 150 OFFCURVE",
"457 150 CURVE SMOOTH",
"647 150 LINE SMOOTH",
"883 150 OFFCURVE",
"1012 54 OFFCURVE",
"1012 -133 CURVE SMOOTH",
"1012 -362 OFFCURVE",
"819 -492 OFFCURVE",
"475 -492 CURVE SMOOTH",
"202 -492 OFFCURVE",
"45 -381 OFFCURVE",
"45 -193 CURVE SMOOTH",
"45 -44 OFFCURVE",
"144 58 OFFCURVE",
"303 94 CURVE",
"238 122 OFFCURVE",
"195 175 OFFCURVE",
"195 242 CURVE SMOOTH",
"195 315 OFFCURVE",
"241 379 OFFCURVE",
"334 434 CURVE",
"207 486 OFFCURVE",
"133 604 OFFCURVE",
"133 748 CURVE SMOOTH",
"133 965 OFFCURVE",
"281 1108 OFFCURVE",
"516 1108 CURVE SMOOTH",
"587 1108 OFFCURVE",
"643 1101 OFFCURVE",
"682 1087 CURVE"
);
},
{
closed = 1;
nodes = (
"150 -333 OFFCURVE",
"261 -408 OFFCURVE",
"483 -408 CURVE SMOOTH",
"768 -408 OFFCURVE",
"911 -317 OFFCURVE",
"911 -135 CURVE SMOOTH",
"911 -4 OFFCURVE",
"827 51 OFFCURVE",
"627 51 CURVE SMOOTH",
"449 51 LINE SMOOTH",
"250 51 OFFCURVE",
"150 -27 OFFCURVE",
"150 -184 CURVE SMOOTH"
);
},
{
closed = 1;
nodes = (
"233 580 OFFCURVE",
"343 483 OFFCURVE",
"514 483 CURVE SMOOTH",
"695 483 OFFCURVE",
"795 577 OFFCURVE",
"795 752 CURVE SMOOTH",
"795 937 OFFCURVE",
"691 1030 OFFCURVE",
"512 1030 CURVE SMOOTH",
"339 1030 OFFCURVE",
"233 925 OFFCURVE",
"233 748 CURVE SMOOTH"
);
},
{
closed = 1;
nodes = (
"230 1257 LINE",
"313 1346 OFFCURVE",
"417 1480 OFFCURVE",
"472 1569 CURVE",
"570 1569 LINE",
"615 1489 OFFCURVE",
"696 1385 OFFCURVE",
"812 1257 CURVE",
"812 1241 LINE",
"742 1241 LINE",
"661 1308 OFFCURVE",
"587 1377 OFFCURVE",
"521 1448 CURVE",
"449 1372 OFFCURVE",
"375 1303 OFFCURVE",
"300 1241 CURVE",
"230 1241 LINE"
);
}
);
width = 1071;
}
);
unicode = 011D;
},
{
glyphname = Gbreve;
layers = (
{
layerId = "76F3DBC4-34E6-4FAC-BFB3-3E99EC0C3BB0";
name = Light;
paths = (
{
closed = 1;
nodes = (
"782 737 LINE",
"1321 737 LINE",
"1321 70 LINE",
"1180 10 OFFCURVE",
"1021 -20 OFFCURVE",
"844 -20 CURVE SMOOTH",
"383 -20 OFFCURVE",
"129 252 OFFCURVE",
"129 729 CURVE SMOOTH",
"129 1026 OFFCURVE",
"255 1266 OFFCURVE",
"483 1391 CURVE SMOOTH",
"596 1454 OFFCURVE",
"727 1485 OFFCURVE",
"874 1485 CURVE SMOOTH",
"1033 1485 OFFCURVE",
"1176 1456 OFFCURVE",
"1303 1397 CURVE",
"1262 1305 LINE",
"1135 1364 OFFCURVE",
"1004 1393 OFFCURVE",
"868 1393 CURVE SMOOTH",
"483 1393 OFFCURVE",
"240 1137 OFFCURVE",
"240 733 CURVE SMOOTH",
"240 293 OFFCURVE",
"458 70 OFFCURVE",
"874 70 CURVE SMOOTH",
"1009 70 OFFCURVE",
"1123 89 OFFCURVE",
"1217 127 CURVE",
"1217 641 LINE",
"782 641 LINE"
);
},
{
closed = 1;
nodes = (
"630 1579 OFFCURVE",
"539 1661 OFFCURVE",
"524 1825 CURVE",
"606 1825 LINE",
"625 1709 OFFCURVE",
"684 1663 OFFCURVE",
"801 1663 CURVE SMOOTH",
"918 1663 OFFCURVE",
"977 1709 OFFCURVE",
"997 1825 CURVE",
"1077 1825 LINE",
"1057 1661 OFFCURVE",
"964 1579 OFFCURVE",
"799 1579 CURVE SMOOTH"
);
}
);
width = 1481;
}
);
unicode = 011E;
},
{
glyphname = gbreve;
layers = (
{
layerId = "76F3DBC4-34E6-4FAC-BFB3-3E99EC0C3BB0";
name = Light;
paths = (
{
closed = 1;
nodes = (
"1030 1087 LINE",
"1030 1018 LINE",
"805 1004 LINE",
"865 929 OFFCURVE",
"895 847 OFFCURVE",
"895 758 CURVE SMOOTH",
"895 549 OFFCURVE",
"745 406 OFFCURVE",
"510 406 CURVE SMOOTH",
"461 406 OFFCURVE",
"426 408 OFFCURVE",
"406 412 CURVE",
"327 371 OFFCURVE",
"285 313 OFFCURVE",
"285 250 CURVE SMOOTH",
"285 181 OFFCURVE",
"333 150 OFFCURVE",
"457 150 CURVE SMOOTH",
"647 150 LINE SMOOTH",
"883 150 OFFCURVE",
"1012 54 OFFCURVE",
"1012 -133 CURVE SMOOTH",
"1012 -362 OFFCURVE",
"819 -492 OFFCURVE",
"475 -492 CURVE SMOOTH",
"202 -492 OFFCURVE",
"45 -381 OFFCURVE",
"45 -193 CURVE SMOOTH",
"45 -44 OFFCURVE",
"144 58 OFFCURVE",
"303 94 CURVE",
"238 122 OFFCURVE",
"195 175 OFFCURVE",
"195 242 CURVE SMOOTH",
"195 315 OFFCURVE",
"241 379 OFFCURVE",
"334 434 CURVE",
"207 486 OFFCURVE",
"133 604 OFFCURVE",
"133 748 CURVE SMOOTH",
"133 965 OFFCURVE",
"281 1108 OFFCURVE",
"516 1108 CURVE SMOOTH",
"587 1108 OFFCURVE",
"643 1101 OFFCURVE",
"682 1087 CURVE"
);
},
{
closed = 1;
nodes = (
"150 -333 OFFCURVE",
"261 -408 OFFCURVE",
"483 -408 CURVE SMOOTH",
"768 -408 OFFCURVE",
"911 -317 OFFCURVE",
"911 -135 CURVE SMOOTH",
"911 -4 OFFCURVE",
"827 51 OFFCURVE",
"627 51 CURVE SMOOTH",
"449 51 LINE SMOOTH",
"250 51 OFFCURVE",
"150 -27 OFFCURVE",
"150 -184 CURVE SMOOTH"
);
},
{
closed = 1;
nodes = (
"233 580 OFFCURVE",
"343 483 OFFCURVE",
"514 483 CURVE SMOOTH",
"695 483 OFFCURVE",
"795 577 OFFCURVE",
"795 752 CURVE SMOOTH",
"795 937 OFFCURVE",
"691 1030 OFFCURVE",
"512 1030 CURVE SMOOTH",
"339 1030 OFFCURVE",
"233 925 OFFCURVE",
"233 748 CURVE SMOOTH"
);
},
{
closed = 1;
nodes = (
"344 1241 OFFCURVE",
"253 1323 OFFCURVE",
"238 1487 CURVE",
"320 1487 LINE",
"339 1371 OFFCURVE",
"398 1325 OFFCURVE",
"515 1325 CURVE SMOOTH",
"632 1325 OFFCURVE",
"691 1371 OFFCURVE",
"711 1487 CURVE",
"791 1487 LINE",
"771 1323 OFFCURVE",
"678 1241 OFFCURVE",
"513 1241 CURVE SMOOTH"
);
}
);
width = 1071;
}
);
unicode = 011F;
},
{
glyphname = Gdot;
layers = (
{
layerId = "76F3DBC4-34E6-4FAC-BFB3-3E99EC0C3BB0";
name = Light;
paths = (
{
closed = 1;
nodes = (
"782 737 LINE",
"1321 737 LINE",
"1321 70 LINE",
"1180 10 OFFCURVE",
"1021 -20 OFFCURVE",
"844 -20 CURVE SMOOTH",
"383 -20 OFFCURVE",
"129 252 OFFCURVE",
"129 729 CURVE SMOOTH",
"129 1026 OFFCURVE",
"255 1266 OFFCURVE",
"483 1391 CURVE SMOOTH",
"596 1454 OFFCURVE",
"727 1485 OFFCURVE",
"874 1485 CURVE SMOOTH",
"1033 1485 OFFCURVE",
"1176 1456 OFFCURVE",
"1303 1397 CURVE",
"1262 1305 LINE",
"1135 1364 OFFCURVE",
"1004 1393 OFFCURVE",
"868 1393 CURVE SMOOTH",
"483 1393 OFFCURVE",
"240 1137 OFFCURVE",
"240 733 CURVE SMOOTH",
"240 293 OFFCURVE",
"458 70 OFFCURVE",
"874 70 CURVE SMOOTH",
"1009 70 OFFCURVE",
"1123 89 OFFCURVE",
"1217 127 CURVE",
"1217 641 LINE",
"782 641 LINE"
);
},
{
closed = 1;
nodes = (
"753 1791 OFFCURVE",
"774 1823 OFFCURVE",
"817 1823 CURVE SMOOTH",
"858 1823 OFFCURVE",
"882 1788 OFFCURVE",
"882 1727 CURVE SMOOTH",
"882 1667 OFFCURVE",
"858 1630 OFFCURVE",
"817 1630 CURVE SMOOTH",
"774 1630 OFFCURVE",
"753 1662 OFFCURVE",
"753 1727 CURVE SMOOTH"
);
}
);
width = 1481;
}
);
unicode = 0120;
},
{
glyphname = gdot;
layers = (
{
layerId = "76F3DBC4-34E6-4FAC-BFB3-3E99EC0C3BB0";
name = Light;
paths = (
{
closed = 1;
nodes = (
"1030 1087 LINE",
"1030 1018 LINE",
"805 1004 LINE",
"865 929 OFFCURVE",
"895 847 OFFCURVE",
"895 758 CURVE SMOOTH",
"895 549 OFFCURVE",
"745 406 OFFCURVE",
"510 406 CURVE SMOOTH",
"461 406 OFFCURVE",
"426 408 OFFCURVE",
"406 412 CURVE",
"327 371 OFFCURVE",
"285 313 OFFCURVE",
"285 250 CURVE SMOOTH",
"285 181 OFFCURVE",
"333 150 OFFCURVE",
"457 150 CURVE SMOOTH",
"647 150 LINE SMOOTH",
"883 150 OFFCURVE",
"1012 54 OFFCURVE",
"1012 -133 CURVE SMOOTH",
"1012 -362 OFFCURVE",
"819 -492 OFFCURVE",
"475 -492 CURVE SMOOTH",
"202 -492 OFFCURVE",
"45 -381 OFFCURVE",
"45 -193 CURVE SMOOTH",
"45 -44 OFFCURVE",
"144 58 OFFCURVE",
"303 94 CURVE",
"238 122 OFFCURVE",
"195 175 OFFCURVE",
"195 242 CURVE SMOOTH",
"195 315 OFFCURVE",
"241 379 OFFCURVE",
"334 434 CURVE",
"207 486 OFFCURVE",
"133 604 OFFCURVE",
"133 748 CURVE SMOOTH",
"133 965 OFFCURVE",
"281 1108 OFFCURVE",
"516 1108 CURVE SMOOTH",
"587 1108 OFFCURVE",
"643 1101 OFFCURVE",
"682 1087 CURVE"
);
},
{
closed = 1;
nodes = (
"150 -333 OFFCURVE",
"261 -408 OFFCURVE",
"483 -408 CURVE SMOOTH",
"768 -408 OFFCURVE",
"911 -317 OFFCURVE",
"911 -135 CURVE SMOOTH",
"911 -4 OFFCURVE",
"827 51 OFFCURVE",
"627 51 CURVE SMOOTH",
"449 51 LINE SMOOTH",
"250 51 OFFCURVE",
"150 -27 OFFCURVE",
"150 -184 CURVE SMOOTH"
);
},
{
closed = 1;
nodes = (
"233 580 OFFCURVE",
"343 483 OFFCURVE",
"514 483 CURVE SMOOTH",
"695 483 OFFCURVE",
"795 577 OFFCURVE",
"795 752 CURVE SMOOTH",
"795 937 OFFCURVE",
"691 1030 OFFCURVE",
"512 1030 CURVE SMOOTH",
"339 1030 OFFCURVE",
"233 925 OFFCURVE",
"233 748 CURVE SMOOTH"
);
},
{
closed = 1;
nodes = (
"463 1453 OFFCURVE",
"484 1485 OFFCURVE",
"527 1485 CURVE SMOOTH",
"568 1485 OFFCURVE",
"592 1450 OFFCURVE",
"592 1389 CURVE SMOOTH",
"592 1329 OFFCURVE",
"568 1292 OFFCURVE",
"527 1292 CURVE SMOOTH",
"484 1292 OFFCURVE",
"463 1324 OFFCURVE",
"463 1389 CURVE SMOOTH"
);
}
);
width = 1071;
}
);
unicode = 0121;
},
{
glyphname = Gcommaaccent;
layers = (
{
layerId = "76F3DBC4-34E6-4FAC-BFB3-3E99EC0C3BB0";
name = Light;
paths = (
{
closed = 1;
nodes = (
"782 737 LINE",
"1321 737 LINE",
"1321 70 LINE",
"1180 10 OFFCURVE",
"1021 -20 OFFCURVE",
"844 -20 CURVE SMOOTH",
"383 -20 OFFCURVE",
"129 252 OFFCURVE",
"129 729 CURVE SMOOTH",
"129 1026 OFFCURVE",
"255 1266 OFFCURVE",
"483 1391 CURVE SMOOTH",
"596 1454 OFFCURVE",
"727 1485 OFFCURVE",
"874 1485 CURVE SMOOTH",
"1033 1485 OFFCURVE",
"1176 1456 OFFCURVE",
"1303 1397 CURVE",
"1262 1305 LINE",
"1135 1364 OFFCURVE",
"1004 1393 OFFCURVE",
"868 1393 CURVE SMOOTH",
"483 1393 OFFCURVE",
"240 1137 OFFCURVE",
"240 733 CURVE SMOOTH",
"240 293 OFFCURVE",
"458 70 OFFCURVE",
"874 70 CURVE SMOOTH",
"1009 70 OFFCURVE",
"1123 89 OFFCURVE",
"1217 127 CURVE",
"1217 641 LINE",
"782 641 LINE"
);
},
{
closed = 1;
nodes = (
"682 -436 LINE",
"715 -364 OFFCURVE",
"753 -225 OFFCURVE",
"768 -125 CURVE",
"881 -125 LINE",
"881 -139 LINE",
"850 -248 OFFCURVE",
"791 -372 OFFCURVE",
"736 -453 CURVE",
"682 -453 LINE"
);
}
);
width = 1481;
}
);
unicode = 0122;
},
{
glyphname = gcommaaccent;
layers = (
{
layerId = "76F3DBC4-34E6-4FAC-BFB3-3E99EC0C3BB0";
name = Light;
paths = (
{
closed = 1;
nodes = (
"1030 1087 LINE",
"1030 1018 LINE",
"805 1004 LINE",
"865 929 OFFCURVE",
"895 847 OFFCURVE",
"895 758 CURVE SMOOTH",
"895 549 OFFCURVE",
"745 406 OFFCURVE",
"510 406 CURVE SMOOTH",
"461 406 OFFCURVE",
"426 408 OFFCURVE",
"406 412 CURVE",
"327 371 OFFCURVE",
"285 313 OFFCURVE",
"285 250 CURVE SMOOTH",
"285 181 OFFCURVE",
"333 150 OFFCURVE",
"457 150 CURVE SMOOTH",
"647 150 LINE SMOOTH",
"883 150 OFFCURVE",
"1012 54 OFFCURVE",
"1012 -133 CURVE SMOOTH",
"1012 -362 OFFCURVE",
"819 -492 OFFCURVE",
"475 -492 CURVE SMOOTH",
"202 -492 OFFCURVE",
"45 -381 OFFCURVE",
"45 -193 CURVE SMOOTH",
"45 -44 OFFCURVE",
"144 58 OFFCURVE",
"303 94 CURVE",
"238 122 OFFCURVE",
"195 175 OFFCURVE",
"195 242 CURVE SMOOTH",
"195 315 OFFCURVE",
"241 379 OFFCURVE",
"334 434 CURVE",
"207 486 OFFCURVE",
"133 604 OFFCURVE",
"133 748 CURVE SMOOTH",
"133 965 OFFCURVE",
"281 1108 OFFCURVE",
"516 1108 CURVE SMOOTH",
"587 1108 OFFCURVE",
"643 1101 OFFCURVE",
"682 1087 CURVE"
);
},
{
closed = 1;
nodes = (
"150 -333 OFFCURVE",
"261 -408 OFFCURVE",
"483 -408 CURVE SMOOTH",
"768 -408 OFFCURVE",
"911 -317 OFFCURVE",
"911 -135 CURVE SMOOTH",
"911 -4 OFFCURVE",
"827 51 OFFCURVE",
"627 51 CURVE SMOOTH",
"449 51 LINE SMOOTH",
"250 51 OFFCURVE",
"150 -27 OFFCURVE",
"150 -184 CURVE SMOOTH"
);
},
{
closed = 1;
nodes = (
"233 580 OFFCURVE",
"343 483 OFFCURVE",
"514 483 CURVE SMOOTH",
"695 483 OFFCURVE",
"795 577 OFFCURVE",
"795 752 CURVE SMOOTH",
"795 937 OFFCURVE",
"691 1030 OFFCURVE",
"512 1030 CURVE SMOOTH",
"339 1030 OFFCURVE",
"233 925 OFFCURVE",
"233 748 CURVE SMOOTH"
);
},
{
closed = 1;
nodes = (
"669 1552 LINE",
"633 1475 OFFCURVE",
"591 1309 OFFCURVE",
"583 1241 CURVE",
"471 1241 LINE",
"471 1255 LINE",
"498 1358 OFFCURVE",
"560 1488 OFFCURVE",
"616 1569 CURVE",
"669 1569 LINE"
);
}
);
width = 1071;
}
);
unicode = 0123;
},
{
glyphname = Hcircumflex;
layers = (
{
layerId = "76F3DBC4-34E6-4FAC-BFB3-3E99EC0C3BB0";
name = Light;
paths = (
{
closed = 1;
nodes = (
"1266 0 LINE",
"1163 0 LINE",
"1163 719 LINE",
"309 719 LINE",
"309 0 LINE",
"207 0 LINE",
"207 1462 LINE",
"309 1462 LINE",
"309 813 LINE",
"1163 813 LINE",
"1163 1462 LINE",
"1266 1462 LINE"
);
},
{
closed = 1;
nodes = (
"444 1595 LINE",
"527 1684 OFFCURVE",
"631 1818 OFFCURVE",
"686 1907 CURVE",
"784 1907 LINE",
"829 1827 OFFCURVE",
"910 1723 OFFCURVE",
"1026 1595 CURVE",
"1026 1579 LINE",
"956 1579 LINE",
"875 1646 OFFCURVE",
"801 1715 OFFCURVE",
"735 1786 CURVE",
"663 1710 OFFCURVE",
"589 1641 OFFCURVE",
"514 1579 CURVE",
"444 1579 LINE"
);
}
);
width = 1473;
}
);
unicode = 0124;
},
{
glyphname = hcircumflex;
layers = (
{
layerId = "76F3DBC4-34E6-4FAC-BFB3-3E99EC0C3BB0";
name = Light;
paths = (
{
closed = 1;
nodes = (
"940 0 LINE",
"940 705 LINE SMOOTH",
"940 924 OFFCURVE",
"850 1018 OFFCURVE",
"657 1018 CURVE SMOOTH",
"397 1018 OFFCURVE",
"281 895 OFFCURVE",
"281 600 CURVE SMOOTH",
"281 0 LINE",
"182 0 LINE",
"182 1556 LINE",
"281 1556 LINE",
"281 1061 LINE",
"276 922 LINE",
"283 922 LINE",
"364 1053 OFFCURVE",
"484 1108 OFFCURVE",
"668 1108 CURVE SMOOTH",
"915 1108 OFFCURVE",
"1038 976 OFFCURVE",
"1038 711 CURVE SMOOTH",
"1038 0 LINE"
);
},
{
closed = 1;
nodes = (
"313 1650 LINE",
"396 1739 OFFCURVE",
"500 1873 OFFCURVE",
"555 1962 CURVE",
"653 1962 LINE",
"698 1882 OFFCURVE",
"779 1778 OFFCURVE",
"895 1650 CURVE",
"895 1634 LINE",
"825 1634 LINE",
"744 1701 OFFCURVE",
"670 1770 OFFCURVE",
"604 1841 CURVE",
"532 1765 OFFCURVE",
"458 1696 OFFCURVE",
"383 1634 CURVE",
"313 1634 LINE"
);
}
);
width = 1208;
}
);
unicode = 0125;
},
{
glyphname = Hbar;
layers = (
{
layerId = "76F3DBC4-34E6-4FAC-BFB3-3E99EC0C3BB0";
name = Light;
paths = (
{
closed = 1;
nodes = (
"207 1192 LINE",
"207 1462 LINE",
"309 1462 LINE",
"309 1192 LINE",
"1163 1192 LINE",
"1163 1462 LINE",
"1266 1462 LINE",
"1266 1192 LINE",
"1473 1192 LINE",
"1473 1098 LINE",
"1266 1098 LINE",
"1266 0 LINE",
"1163 0 LINE",
"1163 719 LINE",
"309 719 LINE",
"309 0 LINE",
"207 0 LINE",
"207 1098 LINE",
"0 1098 LINE",
"0 1192 LINE"
);
},
{
closed = 1;
nodes = (
"1163 813 LINE",
"1163 1098 LINE",
"309 1098 LINE",
"309 813 LINE"
);
}
);
width = 1473;
}
);
unicode = 0126;
},
{
glyphname = hbar;
layers = (
{
layerId = "76F3DBC4-34E6-4FAC-BFB3-3E99EC0C3BB0";
name = Light;
paths = (
{
closed = 1;
nodes = (
"940 0 LINE",
"940 674 LINE SMOOTH",
"940 893 OFFCURVE",
"850 987 OFFCURVE",
"657 987 CURVE SMOOTH",
"394 987 OFFCURVE",
"281 865 OFFCURVE",
"281 569 CURVE SMOOTH",
"281 0 LINE",
"182 0 LINE",
"182 1272 LINE",
"27 1272 LINE",
"27 1354 LINE",
"182 1354 LINE",
"182 1556 LINE",
"281 1556 LINE",
"281 1354 LINE",
"754 1354 LINE",
"754 1272 LINE",
"281 1272 LINE",
"281 1030 LINE",
"276 891 LINE",
"283 891 LINE",
"364 1022 OFFCURVE",
"484 1077 OFFCURVE",
"668 1077 CURVE SMOOTH",
"915 1077 OFFCURVE",
"1038 945 OFFCURVE",
"1038 680 CURVE SMOOTH",
"1038 0 LINE"
);
}
);
width = 1208;
}
);
unicode = 0127;
},
{
glyphname = Itilde.alt;
layers = (
{
layerId = "76F3DBC4-34E6-4FAC-BFB3-3E99EC0C3BB0";
name = Light;
paths = (
{
closed = 1;
nodes = (
"532 0 LINE",
"90 0 LINE",
"90 66 LINE",
"260 86 LINE",
"260 1376 LINE",
"90 1397 LINE",
"90 1462 LINE",
"532 1462 LINE",
"532 1397 LINE",
"362 1376 LINE",
"362 86 LINE",
"532 66 LINE"
);
},
{
closed = 1;
nodes = (
"424 1581 OFFCURVE",
"379 1600 OFFCURVE",
"296 1671 CURVE SMOOTH",
"253 1706 OFFCURVE",
"214 1737 OFFCURVE",
"171 1737 CURVE SMOOTH",
"111 1737 OFFCURVE",
"72 1697 OFFCURVE",
"48 1581 CURVE",
"-25 1581 LINE",
"-12 1729 OFFCURVE",
"63 1819 OFFCURVE",
"175 1819 CURVE SMOOTH",
"239 1819 OFFCURVE",
"289 1780 OFFCURVE",
"345 1735 CURVE SMOOTH",
"390 1698 OFFCURVE",
"433 1663 OFFCURVE",
"472 1663 CURVE SMOOTH",
"533 1663 OFFCURVE",
"574 1708 OFFCURVE",
"597 1819 CURVE",
"673 1819 LINE",
"652 1664 OFFCURVE",
"577 1581 OFFCURVE",
"472 1581 CURVE SMOOTH"
);
}
);
width = 623;
}
);
},
{
glyphname = itilde;
layers = (
{
layerId = "76F3DBC4-34E6-4FAC-BFB3-3E99EC0C3BB0";
name = Light;
paths = (
{
closed = 1;
nodes = (
"281 0 LINE",
"182 0 LINE",
"182 1087 LINE",
"281 1087 LINE"
);
},
{
closed = 1;
nodes = (
"342 1243 OFFCURVE",
"297 1262 OFFCURVE",
"214 1333 CURVE SMOOTH",
"171 1368 OFFCURVE",
"132 1399 OFFCURVE",
"89 1399 CURVE SMOOTH",
"29 1399 OFFCURVE",
"-10 1359 OFFCURVE",
"-34 1243 CURVE",
"-107 1243 LINE",
"-94 1391 OFFCURVE",
"-19 1481 OFFCURVE",
"93 1481 CURVE SMOOTH",
"157 1481 OFFCURVE",
"207 1442 OFFCURVE",
"263 1397 CURVE SMOOTH",
"308 1360 OFFCURVE",
"351 1325 OFFCURVE",
"390 1325 CURVE SMOOTH",
"451 1325 OFFCURVE",
"492 1370 OFFCURVE",
"515 1481 CURVE",
"591 1481 LINE",
"570 1326 OFFCURVE",
"495 1243 OFFCURVE",
"390 1243 CURVE SMOOTH"
);
}
);
width = 463;
}
);
unicode = 0129;
},
{
glyphname = Imacron.alt;
layers = (
{
layerId = "76F3DBC4-34E6-4FAC-BFB3-3E99EC0C3BB0";
name = Light;
paths = (
{
closed = 1;
nodes = (
"532 0 LINE",
"90 0 LINE",
"90 66 LINE",
"260 86 LINE",
"260 1376 LINE",
"90 1397 LINE",
"90 1462 LINE",
"532 1462 LINE",
"532 1397 LINE",
"362 1376 LINE",
"362 86 LINE",
"532 66 LINE"
);
},
{
closed = 1;
nodes = (
"36 1671 LINE",
"591 1671 LINE",
"591 1589 LINE",
"36 1589 LINE"
);
}
);
width = 623;
}
);
},
{
glyphname = imacron;
layers = (
{
layerId = "76F3DBC4-34E6-4FAC-BFB3-3E99EC0C3BB0";
name = Light;
paths = (
{
closed = 1;
nodes = (
"281 0 LINE",
"182 0 LINE",
"182 1087 LINE",
"281 1087 LINE"
);
},
{
closed = 1;
nodes = (
"-44 1333 LINE",
"511 1333 LINE",
"511 1251 LINE",
"-44 1251 LINE"
);
}
);
width = 463;
}
);
unicode = 012B;
},
{
glyphname = Ibreve.alt;
layers = (
{
layerId = "76F3DBC4-34E6-4FAC-BFB3-3E99EC0C3BB0";
name = Light;
paths = (
{
closed = 1;
nodes = (
"532 0 LINE",
"90 0 LINE",
"90 66 LINE",
"260 86 LINE",
"260 1376 LINE",
"90 1397 LINE",
"90 1462 LINE",
"532 1462 LINE",
"532 1397 LINE",
"362 1376 LINE",
"362 86 LINE",
"532 66 LINE"
);
},
{
closed = 1;
nodes = (
"142 1579 OFFCURVE",
"51 1661 OFFCURVE",
"36 1825 CURVE",
"118 1825 LINE",
"137 1709 OFFCURVE",
"196 1663 OFFCURVE",
"313 1663 CURVE SMOOTH",
"430 1663 OFFCURVE",
"489 1709 OFFCURVE",
"509 1825 CURVE",
"589 1825 LINE",
"569 1661 OFFCURVE",
"476 1579 OFFCURVE",
"311 1579 CURVE SMOOTH"
);
}
);
width = 623;
}
);
},
{
glyphname = ibreve;
layers = (
{
layerId = "76F3DBC4-34E6-4FAC-BFB3-3E99EC0C3BB0";
name = Light;
paths = (
{
closed = 1;
nodes = (
"281 0 LINE",
"182 0 LINE",
"182 1087 LINE",
"281 1087 LINE"
);
},
{
closed = 1;
nodes = (
"62 1241 OFFCURVE",
"-29 1323 OFFCURVE",
"-44 1487 CURVE",
"38 1487 LINE",
"57 1371 OFFCURVE",
"116 1325 OFFCURVE",
"233 1325 CURVE SMOOTH",
"350 1325 OFFCURVE",
"409 1371 OFFCURVE",
"429 1487 CURVE",
"509 1487 LINE",
"489 1323 OFFCURVE",
"396 1241 OFFCURVE",
"231 1241 CURVE SMOOTH"
);
}
);
width = 463;
}
);
unicode = 012D;
},
{
glyphname = Iogonek.alt;
layers = (
{
layerId = "76F3DBC4-34E6-4FAC-BFB3-3E99EC0C3BB0";
name = Light;
paths = (
{
closed = 1;
nodes = (
"532 0 LINE",
"90 0 LINE",
"90 66 LINE",
"260 86 LINE",
"260 1376 LINE",
"90 1397 LINE",
"90 1462 LINE",
"532 1462 LINE",
"532 1397 LINE",
"362 1376 LINE",
"362 86 LINE",
"532 66 LINE"
);
},
{
closed = 1;
nodes = (
"264 -321 OFFCURVE",
"299 -358 OFFCURVE",
"370 -358 CURVE SMOOTH",
"403 -358 OFFCURVE",
"430 -354 OFFCURVE",
"452 -346 CURVE",
"452 -430 LINE",
"425 -441 OFFCURVE",
"391 -446 OFFCURVE",
"348 -446 CURVE SMOOTH",
"236 -446 OFFCURVE",
"165 -380 OFFCURVE",
"165 -264 CURVE SMOOTH",
"165 -171 OFFCURVE",
"221 -75 OFFCURVE",
"317 0 CURVE",
"407 0 LINE",
"311 -84 OFFCURVE",
"264 -152 OFFCURVE",
"264 -248 CURVE SMOOTH"
);
}
);
width = 623;
}
);
},
{
glyphname = iogonek;
layers = (
{
layerId = "76F3DBC4-34E6-4FAC-BFB3-3E99EC0C3BB0";
name = Light;
paths = (
{
closed = 1;
nodes = (
"281 0 LINE",
"182 0 LINE",
"182 1087 LINE",
"281 1087 LINE"
);
},
{
closed = 1;
nodes = (
"168 1453 OFFCURVE",
"189 1485 OFFCURVE",
"231 1485 CURVE SMOOTH",
"272 1485 OFFCURVE",
"297 1450 OFFCURVE",
"297 1389 CURVE SMOOTH",
"297 1329 OFFCURVE",
"272 1292 OFFCURVE",
"231 1292 CURVE SMOOTH",
"189 1292 OFFCURVE",
"168 1324 OFFCURVE",
"168 1389 CURVE SMOOTH"
);
},
{
closed = 1;
nodes = (
"138 -321 OFFCURVE",
"173 -358 OFFCURVE",
"244 -358 CURVE SMOOTH",
"277 -358 OFFCURVE",
"304 -354 OFFCURVE",
"326 -346 CURVE",
"326 -430 LINE",
"299 -441 OFFCURVE",
"265 -446 OFFCURVE",
"222 -446 CURVE SMOOTH",
"110 -446 OFFCURVE",
"39 -380 OFFCURVE",
"39 -264 CURVE SMOOTH",
"39 -171 OFFCURVE",
"95 -75 OFFCURVE",
"191 0 CURVE",
"281 0 LINE",
"185 -84 OFFCURVE",
"138 -152 OFFCURVE",
"138 -248 CURVE SMOOTH"
);
}
);
width = 463;
}
);
unicode = 012F;
},
